<svg xmlns="http://www.w3.org/2000/svg" xmlns:xlink="http://www.w3.org/1999/xlink" width="1587" zoomAndPan="magnify" viewBox="0 0 1190.25 1683.749945" height="2245" preserveAspectRatio="xMidYMid meet" version="1.0"><defs><clipPath id="12bfef725c"><path d="M 28.882812 333.234375 L 1161.144531 333.234375 L 1161.144531 1465.496094 L 28.882812 1465.496094 Z M 28.882812 333.234375 " clip-rule="nonzero"/></clipPath><clipPath id="a12813a740"><path d="M 191.503906 915 L 1005 915 L 1005 1326 L 191.503906 1326 Z M 191.503906 915 " clip-rule="nonzero"/></clipPath><clipPath id="99ab20011b"><path d="M 348 1013 L 860 1013 L 860 1326.605469 L 348 1326.605469 Z M 348 1013 " clip-rule="nonzero"/></clipPath><clipPath id="26c7e728af"><path d="M 749.898438 357.765625 L 887.867188 357.765625 L 887.867188 495.738281 L 749.898438 495.738281 Z M 749.898438 357.765625 " clip-rule="nonzero"/></clipPath><clipPath id="df6f688432"><path d="M 119.03125 989.453125 L 263.75 989.453125 L 263.75 1134.171875 L 119.03125 1134.171875 Z M 119.03125 989.453125 " clip-rule="nonzero"/></clipPath><clipPath id="478fb420ea"><path d="M 935.472656 873.921875 L 1091.441406 873.921875 L 1091.441406 1029.886719 L 935.472656 1029.886719 Z M 935.472656 873.921875 " clip-rule="nonzero"/></clipPath></defs><g clip-path="url(#12bfef725c)"><path fill="#ffffff" d="M 1161.144531 899.363281 C 1161.144531 908.628906 1160.917969 917.890625 1160.460938 927.144531 C 1160.007812 936.398438 1159.324219 945.636719 1158.417969 954.855469 C 1157.507812 964.078125 1156.375 973.269531 1155.015625 982.433594 C 1153.65625 991.597656 1152.074219 1000.722656 1150.265625 1009.8125 C 1148.457031 1018.898438 1146.429688 1027.9375 1144.175781 1036.921875 C 1141.925781 1045.910156 1139.457031 1054.839844 1136.765625 1063.703125 C 1134.078125 1072.570312 1131.171875 1081.363281 1128.050781 1090.089844 C 1124.929688 1098.8125 1121.59375 1107.453125 1118.050781 1116.015625 C 1114.503906 1124.574219 1110.75 1133.042969 1106.789062 1141.417969 C 1102.828125 1149.792969 1098.664062 1158.066406 1094.296875 1166.238281 C 1089.929688 1174.410156 1085.363281 1182.46875 1080.597656 1190.414062 C 1075.835938 1198.363281 1070.878906 1206.1875 1065.734375 1213.890625 C 1060.585938 1221.59375 1055.253906 1229.167969 1049.734375 1236.609375 C 1044.214844 1244.050781 1038.515625 1251.351562 1032.636719 1258.515625 C 1026.761719 1265.675781 1020.710938 1272.691406 1014.488281 1279.554688 C 1008.265625 1286.421875 1001.878906 1293.128906 995.328125 1299.679688 C 988.777344 1306.230469 982.066406 1312.617188 975.203125 1318.839844 C 968.339844 1325.0625 961.324219 1331.113281 954.164062 1336.988281 C 947 1342.867188 939.699219 1348.566406 932.257812 1354.085938 C 924.816406 1359.605469 917.242188 1364.9375 909.539062 1370.085938 C 901.835938 1375.234375 894.007812 1380.1875 886.0625 1384.953125 C 878.113281 1389.714844 870.054688 1394.28125 861.886719 1398.648438 C 853.714844 1403.015625 845.441406 1407.179688 837.066406 1411.140625 C 828.6875 1415.101562 820.222656 1418.855469 811.660156 1422.402344 C 803.101562 1425.945312 794.460938 1429.28125 785.738281 1432.402344 C 777.011719 1435.523438 768.21875 1438.429688 759.351562 1441.117188 C 750.484375 1443.808594 741.558594 1446.277344 732.570312 1448.53125 C 723.582031 1450.78125 714.546875 1452.808594 705.460938 1454.617188 C 696.371094 1456.425781 687.246094 1458.007812 678.082031 1459.367188 C 668.917969 1460.726562 659.722656 1461.863281 650.503906 1462.769531 C 641.28125 1463.679688 632.046875 1464.359375 622.792969 1464.8125 C 613.539062 1465.269531 604.277344 1465.496094 595.011719 1465.496094 C 585.746094 1465.496094 576.488281 1465.269531 567.234375 1464.8125 C 557.980469 1464.359375 548.742188 1463.679688 539.523438 1462.769531 C 530.300781 1461.863281 521.109375 1460.726562 511.945312 1459.367188 C 502.78125 1458.007812 493.652344 1456.425781 484.566406 1454.617188 C 475.480469 1452.808594 466.441406 1450.78125 457.453125 1448.53125 C 448.46875 1446.277344 439.539062 1443.808594 430.675781 1441.117188 C 421.808594 1438.429688 413.011719 1435.523438 404.289062 1432.402344 C 395.566406 1429.28125 386.925781 1425.945312 378.363281 1422.402344 C 369.804688 1418.855469 361.335938 1415.101562 352.960938 1411.140625 C 344.585938 1407.179688 336.3125 1403.015625 328.140625 1398.648438 C 319.96875 1394.28125 311.910156 1389.714844 303.964844 1384.953125 C 296.015625 1380.1875 288.191406 1375.234375 280.488281 1370.085938 C 272.785156 1364.9375 265.210938 1359.605469 257.769531 1354.085938 C 250.328125 1348.566406 243.027344 1342.867188 235.863281 1336.988281 C 228.703125 1331.113281 221.6875 1325.0625 214.824219 1318.839844 C 207.957031 1312.617188 201.25 1306.230469 194.699219 1299.679688 C 188.148438 1293.128906 181.761719 1286.421875 175.539062 1279.554688 C 169.316406 1272.691406 163.265625 1265.675781 157.386719 1258.515625 C 151.511719 1251.351562 145.8125 1244.050781 140.292969 1236.609375 C 134.773438 1229.167969 129.441406 1221.59375 124.292969 1213.890625 C 119.144531 1206.1875 114.191406 1198.363281 109.425781 1190.414062 C 104.664062 1182.46875 100.097656 1174.410156 95.730469 1166.238281 C 91.363281 1158.066406 87.199219 1149.792969 83.238281 1141.417969 C 79.277344 1133.042969 75.523438 1124.574219 71.976562 1116.015625 C 68.429688 1107.453125 65.097656 1098.8125 61.976562 1090.089844 C 58.855469 1081.363281 55.949219 1072.570312 53.257812 1063.703125 C 50.570312 1054.835938 48.101562 1045.910156 45.847656 1036.921875 C 43.597656 1027.9375 41.566406 1018.898438 39.761719 1009.8125 C 37.953125 1000.722656 36.371094 991.597656 35.011719 982.433594 C 33.652344 973.269531 32.515625 964.074219 31.609375 954.855469 C 30.699219 945.636719 30.019531 936.398438 29.5625 927.144531 C 29.109375 917.890625 28.882812 908.628906 28.882812 899.363281 C 28.882812 890.101562 29.109375 880.839844 29.5625 871.585938 C 30.019531 862.332031 30.699219 853.09375 31.609375 843.875 C 32.515625 834.652344 33.652344 825.460938 35.011719 816.296875 C 36.371094 807.132812 37.953125 798.003906 39.761719 788.917969 C 41.566406 779.832031 43.597656 770.792969 45.847656 761.804688 C 48.101562 752.820312 50.570312 743.890625 53.261719 735.027344 C 55.949219 726.160156 58.855469 717.363281 61.976562 708.640625 C 65.097656 699.917969 68.429688 691.277344 71.976562 682.714844 C 75.523438 674.15625 79.277344 665.6875 83.238281 657.3125 C 87.199219 648.9375 91.363281 640.664062 95.730469 632.492188 C 100.097656 624.320312 104.664062 616.261719 109.425781 608.316406 C 114.191406 600.367188 119.144531 592.542969 124.292969 584.839844 C 129.441406 577.136719 134.773438 569.5625 140.292969 562.121094 C 145.8125 554.679688 151.511719 547.378906 157.386719 540.214844 C 163.265625 533.054688 169.316406 526.039062 175.539062 519.175781 C 181.761719 512.308594 188.148438 505.601562 194.699219 499.050781 C 201.25 492.5 207.957031 486.113281 214.824219 479.890625 C 221.6875 473.667969 228.703125 467.617188 235.863281 461.742188 C 243.027344 455.863281 250.328125 450.164062 257.769531 444.644531 C 265.210938 439.125 272.785156 433.792969 280.488281 428.644531 C 288.191406 423.496094 296.015625 418.542969 303.964844 413.777344 C 311.910156 409.015625 319.96875 404.449219 328.140625 400.082031 C 336.3125 395.714844 344.585938 391.550781 352.960938 387.589844 C 361.335938 383.628906 369.804688 379.875 378.363281 376.328125 C 386.925781 372.78125 395.566406 369.449219 404.289062 366.328125 C 413.011719 363.207031 421.808594 360.300781 430.675781 357.613281 C 439.539062 354.921875 448.46875 352.453125 457.453125 350.199219 C 466.441406 347.949219 475.480469 345.921875 484.566406 344.113281 C 493.652344 342.304688 502.78125 340.722656 511.945312 339.363281 C 521.109375 338.003906 530.300781 336.867188 539.523438 335.960938 C 548.742188 335.050781 557.980469 334.371094 567.234375 333.917969 C 576.488281 333.460938 585.746094 333.234375 595.011719 333.234375 C 604.277344 333.234375 613.539062 333.460938 622.792969 333.917969 C 632.046875 334.371094 641.28125 335.050781 650.503906 335.960938 C 659.722656 336.867188 668.917969 338.003906 678.082031 339.363281 C 687.246094 340.722656 696.371094 342.304688 705.460938 344.113281 C 714.546875 345.921875 723.582031 347.949219 732.570312 350.199219 C 741.558594 352.453125 750.484375 354.921875 759.351562 357.613281 C 768.21875 360.300781 777.011719 363.207031 785.738281 366.328125 C 794.460938 369.449219 803.101562 372.78125 811.660156 376.328125 C 820.222656 379.875 828.6875 383.628906 837.066406 387.589844 C 845.441406 391.550781 853.714844 395.714844 861.886719 400.082031 C 870.054688 404.449219 878.117188 409.015625 886.0625 413.777344 C 894.007812 418.542969 901.835938 423.496094 909.539062 428.644531 C 917.242188 433.792969 924.816406 439.125 932.257812 444.644531 C 939.699219 450.164062 947 455.863281 954.164062 461.742188 C 961.324219 467.617188 968.339844 473.667969 975.203125 479.890625 C 982.066406 486.113281 988.777344 492.5 995.328125 499.050781 C 1001.878906 505.601562 1008.265625 512.308594 1014.488281 519.175781 C 1020.710938 526.039062 1026.761719 533.054688 1032.636719 540.214844 C 1038.515625 547.378906 1044.214844 554.679688 1049.734375 562.121094 C 1055.253906 569.5625 1060.585938 577.136719 1065.734375 584.839844 C 1070.878906 592.542969 1075.835938 600.367188 1080.597656 608.316406 C 1085.363281 616.261719 1089.929688 624.320312 1094.296875 632.492188 C 1098.664062 640.664062 1102.828125 648.9375 1106.789062 657.3125 C 1110.75 665.6875 1114.503906 674.15625 1118.050781 682.714844 C 1121.59375 691.277344 1124.929688 699.917969 1128.050781 708.640625 C 1131.171875 717.363281 1134.078125 726.160156 1136.765625 735.027344 C 1139.457031 743.890625 1141.925781 752.820312 1144.175781 761.804688 C 1146.429688 770.792969 1148.457031 779.832031 1150.265625 788.917969 C 1152.074219 798.003906 1153.65625 807.132812 1155.015625 816.296875 C 1156.375 825.460938 1157.507812 834.652344 1158.417969 843.875 C 1159.324219 853.09375 1160.007812 862.332031 1160.460938 871.585938 C 1160.917969 880.839844 1161.144531 890.101562 1161.144531 899.363281 Z M 1161.144531 899.363281 " fill-opacity="1" fill-rule="nonzero"/></g><path fill="#130b09" d="M 465.742188 1099.421875 C 466.589844 1055.746094 452.5625 1099.421875 415.972656 1099.421875 C 379.386719 1099.421875 412.574219 1082.820312 407.042969 1077.304688 C 401.511719 1071.773438 373.871094 1077.304688 381.101562 1060.707031 C 388.332031 1044.105469 363.03125 1018.382812 348.136719 1033.265625 C 333.257812 1048.148438 316.664062 1037.515625 322.195312 1029.015625 C 327.726562 1020.5 334.957031 1037.097656 344.304688 1014.984375 C 353.667969 992.871094 348.554688 994.984375 335.375 1002.21875 C 326.289062 1007.214844 320.824219 991.152344 312.328125 986.140625 C 308.496094 983.886719 304.058594 983.886719 298.386719 989.019531 C 280.09375 1005.617188 280.320312 984.976562 287.550781 972.644531 C 294.78125 960.3125 343.054688 972.4375 335.390625 965.203125 C 327.726562 957.972656 303.484375 963.503906 311.148438 952.4375 C 318.816406 941.371094 318.816406 948.605469 331.558594 941.371094 C 344.324219 934.140625 314.964844 937.539062 292.855469 941.371094 C 270.746094 945.207031 267.972656 935.632812 280.300781 916.066406 C 292.628906 896.5 318.796875 911.589844 296.671875 897.140625 C 274.5625 882.675781 293.273438 904.375 261.800781 907.359375 C 230.328125 910.34375 226.09375 863.996094 247.980469 873.535156 C 279.660156 887.359375 280.09375 878.859375 274.5625 855.027344 C 269.03125 831.214844 246.921875 869.496094 239.691406 845.664062 C 232.460938 821.847656 232.460938 790.347656 250.753906 810.78125 C 269.046875 831.214844 276.277344 796.316406 269.046875 792.484375 C 261.816406 788.648438 245.238281 761.417969 250.753906 761.417969 C 256.285156 761.417969 276.695312 748.234375 261.816406 742.703125 C 246.9375 737.167969 228.210938 721.003906 241.40625 721.003906 C 254.601562 721.003906 294.988281 711.636719 285.640625 729.9375 C 276.277344 748.234375 289.042969 761.417969 298.40625 752.050781 C 307.769531 742.683594 321.796875 723.554688 311.167969 718.4375 C 300.539062 713.335938 283.941406 709.921875 291.175781 693.339844 C 298.40625 676.738281 313.28125 687.390625 326.046875 678.457031 C 338.808594 669.523438 312.867188 621.441406 327.746094 621.441406 C 342.625 621.441406 339.222656 586.976562 353.6875 594.210938 C 368.148438 601.445312 380.910156 587.828125 386.007812 576.761719 C 391.105469 565.695312 390.691406 558.046875 403.019531 564.429688 C 415.347656 570.8125 417.898438 553.363281 420.464844 546.132812 C 423.03125 538.898438 452.371094 508.699219 438.757812 510.816406 C 425.144531 512.933594 419.199219 504.867188 427.695312 502.300781 C 436.210938 499.75 462.566406 503.582031 443.855469 532.929688 C 425.144531 562.277344 458.734375 551.230469 465.964844 538.878906 C 473.195312 526.546875 478.726562 531.648438 486.375 541.429688 C 494.039062 551.214844 510.617188 512.082031 515.714844 519.316406 C 520.8125 526.546875 535.277344 503.148438 546.339844 506.984375 C 557.402344 510.816406 561.21875 481.035156 579.511719 489.117188 C 597.804688 497.199219 622.046875 472.519531 629.695312 489.117188 C 637.359375 505.71875 617.78125 481.035156 616.515625 495.917969 C 615.25 510.800781 625.878906 521.015625 638.207031 512.082031 C 650.539062 503.148438 674.78125 507.832031 670.113281 514.214844 C 665.433594 520.597656 709.667969 514.214844 707.121094 526.546875 C 704.570312 538.878906 741.140625 552.496094 741.140625 541.429688 C 741.140625 530.363281 765.816406 534.199219 756.019531 549.945312 C 746.222656 565.695312 729.644531 570.363281 750.070312 576.746094 C 770.480469 583.128906 746.671875 564.414062 774.3125 573.761719 C 801.953125 583.128906 780.695312 612.476562 804.085938 608.640625 C 827.480469 604.808594 836.410156 579.710938 838.542969 599.710938 C 840.675781 619.707031 829.613281 601.410156 825.78125 612.476562 C 821.949219 623.542969 844.074219 627.359375 849.589844 623.542969 C 855.121094 619.707031 862.765625 612.476562 864.46875 630.773438 C 866.167969 649.074219 872.132812 638.441406 892.109375 645.65625 C 912.082031 652.871094 901.472656 675.003906 892.109375 676.722656 C 882.742188 678.421875 942.289062 683.953125 923.582031 700.535156 C 904.871094 717.136719 925.28125 682.238281 904.871094 693.304688 C 884.460938 704.371094 908.269531 717.550781 915.933594 726.484375 C 923.597656 735.417969 928.261719 751.582031 908.269531 753.714844 C 888.273438 755.851562 923.582031 746.917969 923.582031 766.898438 C 923.582031 786.898438 921.03125 775.832031 906.570312 775.832031 C 892.109375 775.832031 931.246094 763.066406 923.582031 786.898438 C 915.914062 810.710938 933.359375 801.363281 923.582031 816.246094 C 913.800781 831.128906 936.757812 834.960938 923.582031 847.726562 C 910.402344 860.492188 907.210938 856.015625 918.691406 868.785156 C 930.167969 881.550781 932.09375 915.371094 913.800781 907.289062 C 895.507812 899.207031 923.582031 860.492188 903.171875 877.089844 C 882.761719 893.691406 912.101562 908.574219 899.339844 915.804688 C 886.574219 923.039062 869.566406 877.089844 867.867188 907.289062 C 866.167969 937.488281 869.566406 947.269531 862.332031 945.152344 C 855.101562 943.039062 835.109375 937.488281 846.171875 959.621094 C 857.234375 981.734375 853.402344 1002.167969 842.339844 998.332031 C 831.277344 994.5 851.269531 1017.046875 814.699219 1020.449219 C 778.128906 1023.847656 786.625 1027.246094 764.933594 1034.914062 C 743.257812 1042.632812 465.53125 1110.261719 465.742188 1099.421875 Z M 465.742188 1099.421875 " fill-opacity="1" fill-rule="nonzero"/><g clip-path="url(#a12813a740)"><path fill="#753a28" d="M 649.253906 915.859375 C 649.253906 915.859375 658.617188 1036.683594 686.257812 1042.632812 C 713.898438 1048.582031 849.570312 1026.902344 882.328125 1030.300781 C 915.082031 1033.699219 987.585938 1068.804688 1000.78125 1178.980469 C 1012.953125 1280.726562 988.660156 1325.964844 988.660156 1325.964844 L 580.570312 1325.753906 L 191.882812 1325.945312 C 191.882812 1325.945312 247.40625 1205.382812 309.015625 1174.921875 C 332.894531 1163.113281 405.136719 1151.523438 423.847656 1143.007812 C 442.554688 1134.492188 496.136719 1085.144531 496.136719 1066.863281 C 496.136719 1048.566406 469.347656 933.289062 469.347656 933.289062 Z M 649.253906 915.859375 " fill-opacity="1" fill-rule="nonzero"/></g><path fill="#5e2d21" d="M 653.085938 950.945312 C 653.121094 950.914062 653.136719 950.859375 653.171875 950.824219 C 650.433594 931 649.253906 915.839844 649.253906 915.839844 L 469.347656 933.289062 C 469.347656 933.289062 473.75 952.246094 478.988281 976.027344 C 489.460938 981.542969 499.136719 985.066406 505.917969 985.828125 C 520.8125 987.527344 632.675781 978.59375 653.085938 950.945312 Z M 653.085938 950.945312 " fill-opacity="1" fill-rule="nonzero"/><path fill="#753a28" d="M 427.246094 792.050781 C 427.246094 792.050781 420.011719 827.78125 427.246094 864.359375 C 434.476562 900.941406 421.296875 917.105469 441.707031 937.539062 C 462.117188 957.953125 491.039062 972.855469 505.933594 974.554688 C 520.832031 976.253906 632.675781 967.320312 653.085938 939.671875 C 673.496094 912.023438 673.496094 907.339844 673.496094 907.339844 C 673.496094 907.339844 706.667969 910.324219 715.597656 899.257812 C 724.527344 888.191406 708.367188 625.292969 708.367188 625.292969 L 456.585938 625.292969 Z M 427.246094 792.050781 " fill-opacity="1" fill-rule="nonzero"/><path fill="#070403" d="M 578.226562 695.90625 C 605.746094 690.425781 626.695312 691.117188 643.308594 695.90625 L 668.605469 721.644531 C 649.601562 711.222656 594.390625 707.71875 571.636719 716.546875 Z M 578.226562 695.90625 " fill-opacity="1" fill-rule="nonzero"/><path fill="#130b09" d="M 596.089844 638.910156 C 597.789062 658.476562 582.910156 660.175781 579.492188 666.558594 C 576.09375 672.941406 590.125 675.488281 588.007812 689.523438 C 585.875 703.554688 570.148438 706.539062 579.078125 714.621094 C 588.007812 722.703125 566.75 743.117188 565.898438 726.535156 C 565.050781 709.9375 570.996094 711.222656 574.828125 695.90625 C 578.660156 680.589844 562.066406 674.640625 562.066406 685.6875 C 562.066406 696.753906 576.527344 727.386719 562.066406 721.851562 C 547.605469 716.320312 559.085938 716.753906 556.117188 703.554688 C 553.136719 690.371094 528.042969 688.238281 534.425781 701.421875 C 540.808594 714.601562 540.808594 746.085938 533.578125 732.902344 C 526.34375 719.71875 514.433594 721.417969 521.664062 735.886719 C 528.894531 750.351562 502.101562 763.96875 500.402344 747.367188 C 498.703125 730.769531 496.78125 728.445312 494.230469 726.746094 C 491.683594 725.046875 478.710938 709.085938 478.710938 733.769531 C 478.710938 758.433594 468.082031 774.183594 464.683594 763.96875 C 461.285156 753.75 460 775.882812 452.769531 774.183594 C 445.539062 772.484375 431.511719 767.382812 440.855469 753.769531 C 450.21875 740.152344 424.261719 749.085938 423.847656 741.851562 C 423.414062 734.621094 448.9375 603.160156 448.9375 603.160156 L 729.210938 614.226562 C 729.210938 614.226562 755.585938 899.257812 729.210938 900.109375 C 702.835938 900.957031 687.109375 900.109375 693.488281 888.191406 C 699.871094 876.277344 690.089844 889.890625 687.109375 878.824219 C 684.125 867.761719 685.410156 873.726562 690.941406 859.675781 C 696.472656 845.644531 677.328125 853.726562 680.726562 845.644531 C 684.125 837.5625 696.039062 822.679688 687.957031 822.679688 C 679.878906 822.679688 665.847656 808.648438 681.578125 800.132812 C 697.304688 791.617188 685.824219 787.800781 672.214844 792.050781 C 658.601562 796.296875 657.335938 786.097656 665.832031 779.714844 C 674.347656 773.332031 676.460938 752.917969 668.816406 757.601562 C 661.148438 762.285156 673.914062 735.054688 677.746094 727.402344 C 681.578125 719.753906 666.683594 728.6875 660.300781 721.019531 C 653.917969 713.355469 629.242188 703.570312 634.773438 716.335938 C 640.308594 729.105469 656.882812 727.820312 645.839844 736.335938 C 634.773438 744.851562 654.769531 756.75 643.707031 769.519531 C 632.640625 782.285156 636.472656 770.367188 639.457031 756.75 C 642.441406 743.136719 636.058594 738.035156 632.660156 730.804688 C 629.261719 723.570312 613.101562 709.105469 622.03125 704.421875 C 630.960938 699.738281 639.039062 691.65625 626.277344 686.972656 C 613.515625 682.289062 625.84375 670.375 622.03125 664.007812 C 618.199219 657.625 603.320312 668.257812 602.46875 660.175781 C 601.621094 652.089844 596.089844 638.910156 596.089844 638.910156 Z M 596.089844 638.910156 " fill-opacity="1" fill-rule="nonzero"/><path fill="#5e2d21" d="M 660.421875 1100.722656 C 659.640625 1101.328125 658.773438 1101.847656 657.90625 1102.300781 C 657.039062 1102.769531 656.136719 1103.167969 655.238281 1103.546875 C 653.433594 1104.3125 651.59375 1104.917969 649.738281 1105.472656 C 647.882812 1106.011719 646.027344 1106.480469 644.171875 1106.894531 C 642.316406 1107.3125 640.445312 1107.660156 638.554688 1107.851562 C 636.664062 1108.074219 634.757812 1108.144531 632.851562 1108.300781 C 630.941406 1108.441406 629.054688 1108.648438 627.199219 1109.03125 C 625.34375 1109.410156 623.539062 1109.949219 621.769531 1110.625 C 620.019531 1111.285156 618.320312 1112.132812 616.757812 1113.105469 C 615.976562 1113.589844 615.214844 1114.113281 614.503906 1114.632812 C 614.15625 1114.910156 613.808594 1115.167969 613.480469 1115.464844 C 613.152344 1115.742188 612.839844 1116.035156 612.542969 1116.3125 C 611.367188 1117.476562 610.464844 1118.707031 610.1875 1119.921875 C 610.152344 1120.078125 610.117188 1120.21875 610.101562 1120.375 L 610.066406 1120.597656 C 610.066406 1120.667969 610.066406 1120.753906 610.066406 1120.824219 L 610.03125 1121.484375 L 609.976562 1122.296875 C 609.945312 1122.835938 609.855469 1123.355469 609.789062 1123.894531 C 609.699219 1124.414062 609.597656 1124.933594 609.476562 1125.457031 C 609.007812 1127.519531 608.246094 1129.480469 607.308594 1131.300781 C 606.371094 1133.121094 605.261719 1134.820312 604.03125 1136.417969 C 602.816406 1138.011719 601.5 1139.488281 600.078125 1140.875 C 598.671875 1142.261719 597.179688 1143.546875 595.621094 1144.726562 C 594.839844 1145.316406 594.042969 1145.886719 593.210938 1146.40625 C 592.394531 1146.945312 591.546875 1147.429688 590.660156 1147.882812 L 590.332031 1147.484375 C 592.636719 1144.378906 594.890625 1141.359375 596.972656 1138.289062 C 598.011719 1136.765625 598.984375 1135.203125 599.902344 1133.640625 C 600.804688 1132.082031 601.65625 1130.503906 602.382812 1128.90625 C 603.128906 1127.3125 603.769531 1125.714844 604.273438 1124.101562 C 604.394531 1123.703125 604.5 1123.289062 604.601562 1122.886719 C 604.6875 1122.488281 604.792969 1122.074219 604.863281 1121.675781 L 604.949219 1121.066406 L 605 1120.753906 L 605.070312 1120.304688 C 605.089844 1120.148438 605.121094 1119.992188 605.140625 1119.835938 L 605.246094 1119.367188 C 605.3125 1119.054688 605.417969 1118.761719 605.523438 1118.449219 C 605.957031 1117.234375 606.613281 1116.175781 607.394531 1115.292969 C 607.777344 1114.839844 608.191406 1114.441406 608.609375 1114.078125 C 608.816406 1113.886719 609.023438 1113.710938 609.25 1113.558594 C 609.476562 1113.382812 609.683594 1113.226562 609.925781 1113.089844 C 610.828125 1112.480469 611.765625 1112.011719 612.699219 1111.597656 C 613.636719 1111.179688 614.589844 1110.851562 615.527344 1110.539062 C 615.996094 1110.382812 616.480469 1110.242188 616.949219 1110.105469 C 617.417969 1109.984375 617.886719 1109.84375 618.371094 1109.722656 L 621.179688 1108.976562 L 622.566406 1108.597656 L 623.261719 1108.40625 L 623.953125 1108.214844 C 624.875 1107.972656 625.792969 1107.695312 626.710938 1107.417969 C 630.371094 1106.324219 633.960938 1104.726562 637.636719 1103.652344 C 639.472656 1103.113281 641.347656 1102.714844 643.21875 1102.402344 C 645.09375 1102.074219 646.964844 1101.8125 648.839844 1101.554688 C 650.710938 1101.3125 652.582031 1101.085938 654.457031 1100.878906 C 656.328125 1100.667969 658.203125 1100.460938 660.125 1100.21875 Z M 660.421875 1100.722656 " fill-opacity="1" fill-rule="nonzero"/><path fill="#5e2d21" d="M 447.238281 1147.707031 C 447.671875 1147.519531 448.140625 1147.398438 448.589844 1147.292969 C 449.042969 1147.171875 449.507812 1147.085938 449.960938 1146.980469 C 450.878906 1146.789062 451.796875 1146.617188 452.71875 1146.476562 C 454.554688 1146.164062 456.410156 1145.921875 458.25 1145.679688 C 461.941406 1145.210938 465.617188 1144.863281 469.3125 1144.550781 C 476.683594 1143.929688 484.035156 1143.527344 491.386719 1143.214844 C 498.738281 1142.886719 506.074219 1142.660156 513.390625 1142.417969 C 517.050781 1142.296875 520.710938 1142.140625 524.367188 1141.914062 C 526.1875 1141.8125 528.027344 1141.65625 529.832031 1141.464844 C 531.652344 1141.257812 533.453125 1140.996094 535.277344 1140.511719 C 533.75 1141.605469 531.980469 1142.382812 530.230469 1143.078125 C 528.460938 1143.773438 526.65625 1144.308594 524.835938 1144.8125 C 521.195312 1145.800781 517.519531 1146.496094 513.84375 1147.085938 C 510.148438 1147.675781 506.457031 1148.109375 502.746094 1148.4375 C 499.050781 1148.785156 495.339844 1149.011719 491.628906 1149.164062 C 484.226562 1149.476562 476.804688 1149.496094 469.417969 1149.21875 C 465.722656 1149.078125 462.011719 1148.871094 458.320312 1148.59375 C 456.464844 1148.453125 454.625 1148.296875 452.769531 1148.125 L 449.996094 1147.882812 C 449.527344 1147.832031 449.074219 1147.796875 448.609375 1147.777344 C 448.175781 1147.726562 447.707031 1147.691406 447.238281 1147.707031 Z M 447.238281 1147.707031 " fill-opacity="1" fill-rule="nonzero"/><path fill="#5e2d21" d="M 803.757812 1050.160156 C 801.953125 1051.546875 800.0625 1052.710938 798.140625 1053.820312 C 796.230469 1054.929688 794.273438 1055.953125 792.3125 1056.90625 C 790.335938 1057.863281 788.34375 1058.761719 786.332031 1059.613281 C 784.320312 1060.464844 782.273438 1061.226562 780.15625 1061.816406 C 775.925781 1063.011719 771.488281 1063.621094 767.34375 1065.023438 C 763.179688 1066.394531 759.226562 1068.285156 755.378906 1070.4375 C 754.40625 1070.972656 753.453125 1071.511719 752.480469 1072.03125 L 751.027344 1072.8125 C 750.539062 1073.054688 750.054688 1073.332031 749.550781 1073.578125 C 747.59375 1074.582031 745.597656 1075.449219 743.605469 1076.367188 C 739.617188 1078.171875 735.628906 1079.992188 731.515625 1081.46875 C 729.472656 1082.214844 727.390625 1082.90625 725.292969 1083.550781 C 723.210938 1084.207031 721.097656 1084.816406 718.964844 1085.371094 C 716.832031 1085.941406 714.699219 1086.464844 712.53125 1086.914062 C 710.363281 1087.367188 708.175781 1087.78125 705.941406 1088.042969 L 705.714844 1087.453125 C 707.554688 1086.132812 709.441406 1084.972656 711.351562 1083.84375 C 713.257812 1082.71875 715.199219 1081.675781 717.140625 1080.652344 C 719.085938 1079.648438 721.0625 1078.675781 723.054688 1077.738281 C 725.03125 1076.800781 727.042969 1075.917969 729.054688 1075.085938 C 733.09375 1073.402344 737.257812 1072.066406 741.417969 1070.714844 C 743.5 1070.039062 745.582031 1069.34375 747.695312 1068.773438 C 748.214844 1068.617188 748.753906 1068.496094 749.292969 1068.339844 L 750.886719 1067.9375 C 751.960938 1067.660156 753.035156 1067.417969 754.09375 1067.160156 C 758.394531 1066.152344 762.589844 1064.886719 766.578125 1063.101562 C 770.585938 1061.347656 774.296875 1058.796875 778.214844 1056.839844 C 780.175781 1055.851562 782.203125 1055.035156 784.265625 1054.304688 C 786.332031 1053.578125 788.410156 1052.882812 790.511719 1052.277344 C 792.609375 1051.667969 794.742188 1051.097656 796.910156 1050.628906 C 799.074219 1050.179688 801.261719 1049.761719 803.515625 1049.554688 Z M 803.757812 1050.160156 " fill-opacity="1" fill-rule="nonzero"/><path fill="#ead9d3" d="M 564.617188 883.527344 L 546.339844 860.976562 L 484.660156 864.792969 L 487.640625 885.226562 Z M 564.617188 883.527344 " fill-opacity="1" fill-rule="nonzero"/><path fill="#681b19" d="M 475.726562 875.445312 C 475.726562 875.445312 478.710938 852.480469 491.890625 847.363281 C 505.070312 842.261719 512.734375 847.363281 512.734375 847.363281 C 512.734375 847.363281 524.644531 843.113281 531.027344 843.527344 C 550.171875 844.8125 570.996094 883.507812 570.996094 883.507812 C 570.996094 883.507812 538.675781 873.292969 531.875 866.492188 C 523.363281 870.328125 511.035156 869.476562 503.800781 867.34375 C 503.472656 870.484375 478.277344 879.519531 475.726562 875.445312 Z M 475.726562 875.445312 " fill-opacity="1" fill-rule="nonzero"/><path fill="#701c1c" d="M 475.726562 875.445312 C 475.726562 875.445312 475.726562 895.859375 488.492188 901.390625 C 498.566406 905.761719 527.195312 910.757812 547.605469 900.542969 C 568.015625 890.324219 570.996094 883.527344 570.996094 883.527344 C 570.996094 883.527344 539.089844 871.195312 512.734375 880.976562 C 512.734375 880.976562 492.738281 871.609375 475.726562 875.445312 Z M 475.726562 875.445312 " fill-opacity="1" fill-rule="nonzero"/><path fill="#5e2d21" d="M 822.105469 1325.945312 L 822.140625 1233.429688 L 803.636719 1325.945312 Z M 822.105469 1325.945312 " fill-opacity="1" fill-rule="nonzero"/><path fill="#5e2d21" d="M 344.410156 1325.945312 L 344.53125 1279.792969 L 366.464844 1325.945312 Z M 344.410156 1325.945312 " fill-opacity="1" fill-rule="nonzero"/><path fill="#5e2d21" d="M 829.371094 1033.058594 C 829.371094 1033.058594 737.5 1144.082031 725.605469 1265.34375 C 722.449219 1297.414062 531.894531 1306.503906 483.183594 1302.773438 C 388.765625 1295.539062 415.175781 1146.007812 415.175781 1146.007812 L 396.917969 1151.402344 C 396.917969 1151.402344 399.535156 1209.5625 404.492188 1233.445312 C 415.972656 1288.742188 411.273438 1308.117188 497.214844 1315.125 C 601.410156 1323.640625 780.574219 1325.859375 796.265625 1325.964844 C 796.265625 1325.964844 742.617188 1291.117188 745.164062 1251.726562 C 752.394531 1139.835938 846.085938 1031.445312 846.085938 1031.445312 Z M 829.371094 1033.058594 " fill-opacity="1" fill-rule="nonzero"/><path fill="#ead9d3" d="M 822.140625 1038.589844 C 822.140625 1038.589844 730.269531 1144.101562 718.375 1265.34375 C 715.21875 1297.414062 626.9375 1259.808594 590.367188 1279.808594 C 553.796875 1299.808594 498.6875 1284.300781 469.15625 1292.574219 C 394.730469 1313.421875 410.078125 1147.726562 410.078125 1147.726562 L 390.96875 1152.6875 C 390.96875 1152.6875 393.96875 1209.285156 397.261719 1233.445312 C 407.476562 1308.324219 366.640625 1325.980469 366.640625 1325.980469 L 789.035156 1325.980469 C 789.035156 1325.980469 738.367188 1291.570312 740.917969 1252.179688 C 748.148438 1140.285156 841.402344 1031.480469 841.402344 1031.480469 Z M 822.140625 1038.589844 " fill-opacity="1" fill-rule="nonzero"/><g clip-path="url(#99ab20011b)"><path stroke-linecap="butt" transform="matrix(1.734046, 0, 0, 1.734504, 191.882496, 483.28976)" fill="none" stroke-linejoin="miter" d="M 363.461081 320.149171 C 363.461081 320.149171 310.480302 380.980225 303.620891 450.880423 C 301.800726 469.370036 250.890159 447.689219 229.800569 459.219892 C 208.71098 470.750564 176.930171 461.809789 159.899911 466.579704 C 116.9796 478.599079 125.830379 383.070159 125.830379 383.070159 L 114.810269 385.930307 C 114.810269 385.930307 116.540327 418.560759 118.439336 432.489901 C 124.330094 475.660108 100.780578 485.83953 100.780578 485.83953 L 344.369619 485.83953 C 344.369619 485.83953 315.150107 466.000918 316.621107 443.290898 C 320.790818 378.779938 374.569046 316.050377 374.569046 316.050377 Z M 363.461081 320.149171 " stroke="#ead9d3" stroke-width="0.731" stroke-opacity="1" stroke-miterlimit="10"/></g><path fill="#130b09" d="M 660.316406 929.648438 C 660.316406 929.648438 642.023438 950.738281 643.308594 967.753906 C 644.589844 984.769531 640.324219 996.253906 651.820312 999.667969 C 663.300781 1003.070312 650.539062 1010.300781 651.820312 1025.199219 C 653.105469 1040.082031 673.183594 1029.832031 673.183594 1029.832031 C 673.183594 1029.832031 652.671875 1071.5625 673.097656 1068.597656 C 693.507812 1065.613281 660.230469 1062.042969 677.085938 1057.671875 C 693.941406 1053.300781 716.898438 1062.648438 705.855469 1068.597656 C 694.789062 1074.546875 723.316406 1094.164062 730.527344 1078.191406 C 737.742188 1062.214844 736.460938 1086.898438 754.753906 1084.347656 C 773.046875 1081.796875 778.5625 1064.78125 771.765625 1049.882812 C 764.96875 1035 815.152344 1045.632812 827.0625 1038.816406 C 838.976562 1032.015625 859.386719 1030.300781 851.738281 1020.519531 C 844.074219 1010.734375 826.214844 1014.136719 819.832031 997.121094 C 813.417969 980.085938 660.316406 929.648438 660.316406 929.648438 Z M 660.316406 929.648438 " fill-opacity="1" fill-rule="nonzero"/><g clip-path="url(#26c7e728af)"><path fill="#000000" d="M 818.882812 357.765625 C 812.160156 414.578125 806.707031 420.027344 749.898438 426.75 C 750.015625 426.765625 750.132812 426.78125 750.25 426.792969 C 806.730469 433.5 812.171875 439.042969 818.882812 495.738281 C 825.605469 438.925781 831.054688 433.476562 887.867188 426.75 C 831.054688 420.027344 825.605469 414.578125 818.882812 357.765625 Z M 818.882812 357.765625 " fill-opacity="1" fill-rule="nonzero"/></g><g clip-path="url(#df6f688432)"><path fill="#000000" d="M 191.390625 989.453125 C 184.335938 1049.042969 178.621094 1054.761719 119.03125 1061.8125 C 119.152344 1061.828125 119.277344 1061.84375 119.398438 1061.855469 L 119.402344 1061.859375 C 178.640625 1068.890625 184.351562 1074.707031 191.390625 1134.171875 C 198.441406 1074.582031 204.160156 1068.867188 263.75 1061.8125 C 204.160156 1054.761719 198.441406 1049.042969 191.390625 989.453125 Z M 191.390625 989.453125 " fill-opacity="1" fill-rule="nonzero"/></g><g clip-path="url(#478fb420ea)"><path fill="#000000" d="M 1013.457031 873.921875 C 1005.855469 938.144531 999.695312 944.304688 935.472656 951.90625 C 935.605469 951.921875 935.738281 951.9375 935.871094 951.953125 L 935.875 951.953125 C 999.71875 959.53125 1005.871094 965.800781 1013.457031 1029.886719 C 1021.058594 965.667969 1027.21875 959.503906 1091.441406 951.90625 C 1027.21875 944.304688 1021.058594 938.144531 1013.457031 873.921875 Z M 1013.457031 873.921875 " fill-opacity="1" fill-rule="nonzero"/></g></svg>