<svg xmlns="http://www.w3.org/2000/svg" xmlns:xlink="http://www.w3.org/1999/xlink" width="1587" zoomAndPan="magnify" viewBox="0 0 1190.25 1683.749945" height="2245" preserveAspectRatio="xMidYMid meet" version="1.0"><defs><clipPath id="45b414c1a6"><path d="M 272.691406 848 L 939 848 L 939 1184.96875 L 272.691406 1184.96875 Z M 272.691406 848 " clip-rule="nonzero"/></clipPath><clipPath id="5ee17faf3c"><path d="M 774 1108 L 790 1108 L 790 1184.96875 L 774 1184.96875 Z M 774 1108 " clip-rule="nonzero"/></clipPath><clipPath id="0291fafa4e"><path d="M 397 1146 L 417 1146 L 417 1184.96875 L 397 1184.96875 Z M 397 1146 " clip-rule="nonzero"/></clipPath><clipPath id="b26ddcd0d6"><path d="M 440 943 L 810 943 L 810 1184.96875 L 440 1184.96875 Z M 440 943 " clip-rule="nonzero"/></clipPath><clipPath id="0177126f19"><path d="M 416 943 L 806 943 L 806 1184.96875 L 416 1184.96875 Z M 416 943 " clip-rule="nonzero"/></clipPath><clipPath id="c10745e82b"><path d="M 401 928 L 820 928 L 820 1184.96875 L 401 1184.96875 Z M 401 928 " clip-rule="nonzero"/></clipPath><clipPath id="d5006bc069"><path d="M 729.980469 391.375 L 843.207031 391.375 L 843.207031 504.601562 L 729.980469 504.601562 Z M 729.980469 391.375 " clip-rule="nonzero"/></clipPath><clipPath id="d38ed319f9"><path d="M 213.335938 908.695312 L 331.8125 908.695312 L 331.8125 1027.167969 L 213.335938 1027.167969 Z M 213.335938 908.695312 " clip-rule="nonzero"/></clipPath><clipPath id="9b3d0ec485"><path d="M 881.960938 814.078125 L 1009.433594 814.078125 L 1009.433594 941.550781 L 881.960938 941.550781 Z M 881.960938 814.078125 " clip-rule="nonzero"/></clipPath></defs><path fill="#746967" d="M 868.628906 1151.617188 C 934.054688 1102.246094 990.617188 1041.472656 1037.101562 973.964844 C 1083.25 906.949219 1120.511719 822.792969 1093.835938 745.929688 C 1077.703125 699.496094 1040.617188 663.542969 1018.34375 619.742188 C 984.171875 552.5625 984.949219 467.625 934.515625 411.617188 C 897.792969 370.832031 841.496094 354.558594 787.695312 343.609375 C 714.535156 328.722656 630.765625 322.648438 572.773438 369.648438 C 519.027344 413.210938 505.007812 487.851562 473.960938 549.675781 C 435.660156 625.925781 377.234375 631.703125 305.257812 651.523438 C -99.515625 762.945312 256.484375 1613.453125 868.628906 1151.617188 " fill-opacity="1" fill-rule="nonzero"/><path fill="#130b09" d="M 497.382812 998.871094 C 498.078125 963.097656 486.582031 998.871094 456.605469 998.871094 C 426.625 998.871094 453.820312 985.273438 449.289062 980.757812 C 444.753906 976.226562 422.105469 980.757812 428.03125 967.160156 C 433.957031 953.5625 413.226562 932.492188 401.023438 944.683594 C 388.832031 956.875 375.234375 948.164062 379.765625 941.203125 C 384.300781 934.226562 390.226562 947.824219 397.882812 929.707031 C 405.554688 911.59375 401.363281 913.324219 390.566406 919.25 C 383.121094 923.34375 378.644531 910.1875 371.683594 906.078125 C 368.542969 904.234375 364.90625 904.234375 360.261719 908.4375 C 345.269531 922.035156 345.457031 905.128906 351.378906 895.027344 C 357.304688 884.925781 396.859375 894.855469 390.578125 888.929688 C 384.300781 883.007812 364.4375 887.539062 370.71875 878.472656 C 376.996094 869.410156 376.996094 875.332031 387.441406 869.410156 C 397.898438 863.484375 373.84375 866.269531 355.726562 869.410156 C 337.613281 872.550781 335.339844 864.707031 345.441406 848.679688 C 355.542969 832.652344 376.984375 845.015625 358.851562 833.179688 C 340.738281 821.328125 356.070312 839.101562 330.28125 841.546875 C 304.492188 843.992188 301.027344 806.027344 318.957031 813.839844 C 344.914062 825.164062 345.269531 818.203125 340.738281 798.679688 C 336.207031 779.175781 318.089844 810.53125 312.164062 791.007812 C 306.242188 771.5 306.242188 745.699219 321.230469 762.4375 C 336.21875 779.175781 342.144531 750.585938 336.21875 747.449219 C 330.296875 744.308594 316.710938 722 321.230469 722 C 325.761719 722 342.484375 711.203125 330.296875 706.671875 C 318.105469 702.136719 302.761719 688.894531 313.574219 688.894531 C 324.386719 688.894531 357.476562 681.222656 349.816406 696.214844 C 342.144531 711.203125 352.601562 722 360.273438 714.328125 C 367.945312 706.65625 379.441406 690.984375 370.730469 686.792969 C 362.023438 682.617188 348.425781 679.816406 354.347656 666.234375 C 360.273438 652.636719 372.464844 661.359375 382.921875 654.042969 C 393.378906 646.726562 372.125 607.34375 384.3125 607.34375 C 396.503906 607.34375 393.71875 579.109375 405.570312 585.035156 C 417.417969 590.960938 427.875 579.808594 432.054688 570.742188 C 436.230469 561.675781 435.890625 555.410156 445.992188 560.640625 C 456.09375 565.867188 458.179688 551.574219 460.285156 545.652344 C 462.386719 539.726562 486.425781 514.988281 475.273438 516.722656 C 464.121094 518.457031 459.246094 511.851562 466.207031 509.746094 C 473.183594 507.660156 494.78125 510.796875 479.449219 534.839844 C 464.121094 558.878906 491.640625 549.828125 497.566406 539.710938 C 503.492188 529.609375 508.023438 533.789062 514.289062 541.800781 C 520.570312 549.8125 534.152344 517.761719 538.328125 523.683594 C 542.503906 529.609375 554.355469 510.445312 563.421875 513.582031 C 572.484375 516.722656 575.609375 492.328125 590.601562 498.949219 C 605.589844 505.570312 625.453125 485.351562 631.71875 498.949219 C 637.996094 512.546875 621.957031 492.328125 620.917969 504.519531 C 619.882812 516.710938 628.59375 525.078125 638.695312 517.761719 C 648.796875 510.445312 668.660156 514.28125 664.835938 519.507812 C 661 524.738281 697.246094 519.507812 695.15625 529.609375 C 693.066406 539.710938 723.03125 550.867188 723.03125 541.800781 C 723.03125 532.734375 743.25 535.875 735.222656 548.777344 C 727.195312 561.675781 713.613281 565.5 730.351562 570.726562 C 747.074219 575.957031 727.566406 560.625 750.210938 568.285156 C 772.859375 575.957031 755.441406 599.996094 774.609375 596.855469 C 793.773438 593.714844 801.089844 573.15625 802.839844 589.539062 C 804.585938 605.921875 795.523438 590.933594 792.382812 599.996094 C 789.242188 609.0625 807.371094 612.1875 811.890625 609.0625 C 816.421875 605.921875 822.6875 599.996094 824.078125 614.984375 C 825.472656 629.976562 830.359375 621.265625 846.726562 627.175781 C 863.09375 633.085938 854.398438 651.214844 846.726562 652.625 C 839.054688 654.015625 887.84375 658.546875 872.515625 672.128906 C 857.183594 685.726562 873.90625 657.140625 857.183594 666.207031 C 840.460938 675.269531 859.96875 686.070312 866.25 693.386719 C 872.527344 700.703125 876.351562 713.945312 859.96875 715.691406 C 843.585938 717.441406 872.515625 710.121094 872.515625 726.492188 C 872.515625 742.871094 870.425781 733.808594 858.578125 733.808594 C 846.726562 733.808594 878.792969 723.351562 872.515625 742.871094 C 866.234375 762.378906 880.527344 754.722656 872.515625 766.914062 C 864.5 779.101562 883.3125 782.242188 872.515625 792.699219 C 861.714844 803.15625 859.101562 799.492188 868.507812 809.949219 C 877.914062 820.40625 879.492188 848.109375 864.5 841.488281 C 849.511719 834.871094 872.515625 803.15625 855.792969 816.753906 C 839.070312 830.351562 863.109375 842.542969 852.652344 848.464844 C 842.195312 854.390625 828.257812 816.753906 826.863281 841.488281 C 825.472656 866.226562 828.257812 874.238281 822.332031 872.507812 C 816.40625 870.773438 800.027344 866.226562 809.089844 884.355469 C 818.15625 902.472656 815.015625 919.207031 805.949219 916.066406 C 796.886719 912.929688 813.265625 931.398438 783.304688 934.183594 C 753.339844 936.96875 760.300781 939.753906 742.527344 946.03125 C 724.765625 952.355469 497.210938 1007.753906 497.382812 998.871094 Z M 497.382812 998.871094 " fill-opacity="1" fill-rule="nonzero"/><g clip-path="url(#45b414c1a6)"><path fill="#753a28" d="M 647.746094 848.507812 C 647.746094 848.507812 655.417969 947.480469 678.0625 952.355469 C 700.710938 957.230469 811.875 939.46875 838.714844 942.253906 C 865.554688 945.039062 924.957031 973.796875 935.769531 1064.042969 C 945.742188 1147.386719 925.835938 1184.441406 925.835938 1184.441406 L 591.464844 1184.273438 L 272.996094 1184.429688 C 272.996094 1184.429688 318.488281 1085.667969 368.96875 1060.71875 C 388.535156 1051.042969 447.722656 1041.554688 463.054688 1034.578125 C 478.386719 1027.601562 522.289062 987.179688 522.289062 972.203125 C 522.289062 957.214844 500.335938 862.789062 500.335938 862.789062 Z M 647.746094 848.507812 " fill-opacity="1" fill-rule="nonzero"/></g><path fill="#5e2d21" d="M 650.882812 877.25 C 650.914062 877.222656 650.925781 877.179688 650.957031 877.152344 C 648.710938 860.914062 647.746094 848.496094 647.746094 848.496094 L 500.335938 862.789062 C 500.335938 862.789062 503.945312 878.316406 508.234375 897.796875 C 516.816406 902.316406 524.746094 905.199219 530.300781 905.824219 C 542.503906 907.214844 634.160156 899.898438 650.882812 877.25 Z M 650.882812 877.25 " fill-opacity="1" fill-rule="nonzero"/><path fill="#753a28" d="M 465.839844 747.09375 C 465.839844 747.09375 459.914062 776.359375 465.839844 806.324219 C 471.765625 836.289062 460.964844 849.53125 477.6875 866.269531 C 494.410156 882.992188 518.109375 895.195312 530.316406 896.589844 C 542.519531 897.980469 634.160156 890.664062 650.882812 868.015625 C 667.605469 845.367188 667.605469 841.53125 667.605469 841.53125 C 667.605469 841.53125 694.785156 843.976562 702.105469 834.910156 C 709.421875 825.847656 696.179688 610.496094 696.179688 610.496094 L 489.878906 610.496094 Z M 465.839844 747.09375 " fill-opacity="1" fill-rule="nonzero"/><path fill="#070403" d="M 589.546875 668.335938 C 612.097656 663.847656 629.261719 664.414062 642.871094 668.335938 L 663.601562 689.421875 C 648.027344 680.882812 602.789062 678.011719 584.148438 685.246094 Z M 589.546875 668.335938 " fill-opacity="1" fill-rule="nonzero"/><path fill="#130b09" d="M 604.183594 621.648438 C 605.574219 637.675781 593.382812 639.070312 590.585938 644.296875 C 587.800781 649.527344 599.296875 651.613281 597.5625 663.109375 C 595.8125 674.601562 582.925781 677.046875 590.246094 683.667969 C 597.5625 690.289062 580.144531 707.011719 579.445312 693.429688 C 578.75 679.832031 583.625 680.882812 586.765625 668.335938 C 589.902344 655.792969 576.308594 650.917969 576.308594 659.96875 C 576.308594 669.035156 588.15625 694.125 576.308594 689.59375 C 564.457031 685.058594 573.863281 685.414062 571.433594 674.601562 C 568.988281 663.804688 548.429688 662.058594 553.660156 672.855469 C 558.886719 683.652344 558.886719 709.441406 552.964844 698.644531 C 547.039062 687.84375 537.277344 689.238281 543.203125 701.085938 C 549.125 712.9375 527.175781 724.089844 525.78125 710.492188 C 524.390625 696.894531 522.8125 694.992188 520.726562 693.597656 C 518.636719 692.207031 508.007812 679.136719 508.007812 699.351562 C 508.007812 719.558594 499.300781 732.457031 496.515625 724.089844 C 493.730469 715.722656 492.679688 733.851562 486.753906 732.457031 C 480.828125 731.066406 469.335938 726.886719 476.992188 715.734375 C 484.664062 704.582031 463.394531 711.898438 463.054688 705.972656 C 462.699219 700.050781 483.613281 592.367188 483.613281 592.367188 L 713.257812 601.429688 C 713.257812 601.429688 734.867188 834.910156 713.257812 835.609375 C 691.648438 836.304688 678.761719 835.609375 683.988281 825.847656 C 689.21875 816.085938 681.203125 827.238281 678.761719 818.175781 C 676.316406 809.109375 677.367188 813.996094 681.902344 802.488281 C 686.433594 790.996094 670.746094 797.617188 673.53125 790.996094 C 676.316406 784.375 686.078125 772.183594 679.457031 772.183594 C 672.835938 772.183594 661.339844 760.6875 674.226562 753.714844 C 687.113281 746.738281 677.710938 743.609375 666.554688 747.09375 C 655.402344 750.574219 654.367188 742.21875 661.328125 736.992188 C 668.304688 731.761719 670.035156 715.039062 663.769531 718.875 C 657.492188 722.710938 667.949219 700.40625 671.089844 694.140625 C 674.226562 687.875 662.023438 695.191406 656.796875 688.910156 C 651.566406 682.628906 631.347656 674.617188 635.878906 685.074219 C 640.414062 695.53125 653.996094 694.480469 644.945312 701.457031 C 635.878906 708.433594 652.261719 718.179688 643.199219 728.636719 C 634.132812 739.09375 637.273438 729.332031 639.71875 718.179688 C 642.160156 707.027344 636.933594 702.847656 634.148438 696.921875 C 631.363281 691 618.121094 679.148438 625.4375 675.3125 C 632.753906 671.476562 639.375 664.855469 628.917969 661.019531 C 618.460938 657.183594 628.5625 647.421875 625.4375 642.207031 C 622.296875 636.980469 610.109375 645.691406 609.410156 639.070312 C 608.714844 632.449219 604.183594 621.648438 604.183594 621.648438 Z M 604.183594 621.648438 " fill-opacity="1" fill-rule="nonzero"/><path fill="#5e2d21" d="M 656.894531 999.9375 C 656.253906 1000.433594 655.542969 1000.863281 654.835938 1001.230469 C 654.125 1001.613281 653.386719 1001.941406 652.644531 1002.253906 C 651.167969 1002.878906 649.664062 1003.375 648.140625 1003.832031 C 646.621094 1004.269531 645.101562 1004.65625 643.582031 1004.996094 C 642.0625 1005.335938 640.527344 1005.621094 638.976562 1005.777344 C 637.429688 1005.960938 635.867188 1006.019531 634.304688 1006.148438 C 632.742188 1006.261719 631.191406 1006.429688 629.671875 1006.742188 C 628.152344 1007.054688 626.675781 1007.496094 625.226562 1008.050781 C 623.789062 1008.589844 622.398438 1009.285156 621.117188 1010.082031 C 620.480469 1010.480469 619.855469 1010.90625 619.273438 1011.332031 C 618.988281 1011.558594 618.703125 1011.773438 618.433594 1012.015625 C 618.164062 1012.242188 617.90625 1012.484375 617.667969 1012.710938 C 616.699219 1013.664062 615.960938 1014.671875 615.734375 1015.667969 C 615.707031 1015.792969 615.675781 1015.90625 615.664062 1016.035156 L 615.632812 1016.21875 C 615.632812 1016.277344 615.632812 1016.347656 615.632812 1016.40625 L 615.605469 1016.945312 L 615.5625 1017.613281 C 615.535156 1018.054688 615.464844 1018.480469 615.40625 1018.917969 C 615.335938 1019.347656 615.25 1019.773438 615.152344 1020.199219 C 614.769531 1021.890625 614.140625 1023.496094 613.375 1024.988281 C 612.609375 1026.476562 611.699219 1027.871094 610.691406 1029.179688 C 609.695312 1030.484375 608.617188 1031.691406 607.449219 1032.828125 C 606.300781 1033.964844 605.078125 1035.015625 603.800781 1035.984375 C 603.160156 1036.464844 602.507812 1036.9375 601.824219 1037.363281 C 601.15625 1037.800781 600.460938 1038.199219 599.734375 1038.570312 L 599.464844 1038.242188 C 601.355469 1035.699219 603.203125 1033.226562 604.90625 1030.710938 C 605.761719 1029.460938 606.554688 1028.183594 607.308594 1026.90625 C 608.046875 1025.625 608.742188 1024.332031 609.339844 1023.027344 C 609.949219 1021.71875 610.476562 1020.410156 610.890625 1019.089844 C 610.988281 1018.761719 611.074219 1018.421875 611.160156 1018.097656 C 611.230469 1017.769531 611.316406 1017.429688 611.371094 1017.101562 L 611.441406 1016.605469 L 611.484375 1016.347656 L 611.542969 1015.980469 C 611.558594 1015.851562 611.585938 1015.722656 611.597656 1015.59375 L 611.683594 1015.210938 C 611.742188 1014.957031 611.828125 1014.714844 611.910156 1014.457031 C 612.265625 1013.464844 612.808594 1012.597656 613.445312 1011.871094 C 613.757812 1011.503906 614.101562 1011.175781 614.441406 1010.878906 C 614.613281 1010.722656 614.78125 1010.578125 614.964844 1010.453125 C 615.152344 1010.308594 615.320312 1010.183594 615.519531 1010.066406 C 616.257812 1009.570312 617.027344 1009.1875 617.792969 1008.847656 C 618.5625 1008.503906 619.34375 1008.234375 620.109375 1007.980469 C 620.492188 1007.851562 620.890625 1007.738281 621.273438 1007.625 C 621.660156 1007.523438 622.042969 1007.410156 622.441406 1007.3125 L 624.742188 1006.699219 L 625.878906 1006.386719 L 626.445312 1006.230469 L 627.015625 1006.074219 C 627.769531 1005.878906 628.519531 1005.648438 629.273438 1005.421875 C 632.273438 1004.527344 635.214844 1003.21875 638.226562 1002.339844 C 639.730469 1001.898438 641.265625 1001.570312 642.800781 1001.316406 C 644.335938 1001.046875 645.867188 1000.832031 647.402344 1000.621094 C 648.9375 1000.421875 650.472656 1000.238281 652.007812 1000.066406 C 653.542969 999.894531 655.074219 999.726562 656.652344 999.527344 Z M 656.894531 999.9375 " fill-opacity="1" fill-rule="nonzero"/><path fill="#5e2d21" d="M 482.222656 1038.425781 C 482.578125 1038.269531 482.960938 1038.171875 483.328125 1038.085938 C 483.699219 1037.988281 484.082031 1037.914062 484.453125 1037.832031 C 485.203125 1037.675781 485.957031 1037.53125 486.710938 1037.417969 C 488.21875 1037.164062 489.738281 1036.964844 491.242188 1036.765625 C 494.269531 1036.382812 497.28125 1036.097656 500.308594 1035.839844 C 506.347656 1035.332031 512.371094 1035.003906 518.394531 1034.746094 C 524.417969 1034.476562 530.429688 1034.292969 536.425781 1034.09375 C 539.421875 1033.996094 542.421875 1033.867188 545.417969 1033.683594 C 546.910156 1033.597656 548.417969 1033.46875 549.894531 1033.3125 C 551.386719 1033.140625 552.863281 1032.929688 554.355469 1032.53125 C 553.105469 1033.425781 551.65625 1034.066406 550.222656 1034.632812 C 548.773438 1035.203125 547.292969 1035.644531 545.800781 1036.054688 C 542.820312 1036.863281 539.804688 1037.433594 536.792969 1037.914062 C 533.769531 1038.398438 530.742188 1038.753906 527.699219 1039.023438 C 524.675781 1039.308594 521.632812 1039.492188 518.59375 1039.621094 C 512.527344 1039.875 506.445312 1039.890625 500.394531 1039.664062 C 497.367188 1039.550781 494.328125 1039.378906 491.300781 1039.152344 C 489.78125 1039.039062 488.273438 1038.910156 486.753906 1038.769531 L 484.480469 1038.570312 C 484.097656 1038.527344 483.726562 1038.5 483.34375 1038.484375 C 482.988281 1038.441406 482.605469 1038.414062 482.222656 1038.425781 Z M 482.222656 1038.425781 " fill-opacity="1" fill-rule="nonzero"/><path fill="#5e2d21" d="M 774.335938 958.523438 C 772.859375 959.65625 771.3125 960.609375 769.734375 961.519531 C 768.171875 962.429688 766.566406 963.265625 764.960938 964.046875 C 763.339844 964.828125 761.707031 965.570312 760.058594 966.265625 C 758.410156 966.960938 756.734375 967.585938 755 968.070312 C 751.535156 969.050781 747.898438 969.546875 744.5 970.699219 C 741.089844 971.820312 737.851562 973.367188 734.699219 975.128906 C 733.902344 975.570312 733.121094 976.011719 732.324219 976.4375 L 731.132812 977.078125 C 730.734375 977.277344 730.335938 977.503906 729.921875 977.703125 C 728.316406 978.527344 726.683594 979.238281 725.050781 979.988281 C 721.78125 981.46875 718.515625 982.960938 715.148438 984.167969 C 713.46875 984.777344 711.765625 985.347656 710.046875 985.871094 C 708.339844 986.410156 706.609375 986.910156 704.859375 987.363281 C 703.113281 987.832031 701.367188 988.257812 699.589844 988.628906 C 697.8125 988.996094 696.023438 989.339844 694.191406 989.550781 L 694.003906 989.070312 C 695.511719 987.988281 697.058594 987.035156 698.625 986.113281 C 700.1875 985.191406 701.777344 984.335938 703.367188 983.5 C 704.960938 982.675781 706.578125 981.878906 708.214844 981.113281 C 709.832031 980.34375 711.480469 979.621094 713.128906 978.9375 C 716.441406 977.558594 719.851562 976.464844 723.261719 975.359375 C 724.964844 974.804688 726.667969 974.234375 728.402344 973.765625 C 728.828125 973.640625 729.269531 973.539062 729.710938 973.410156 L 731.015625 973.085938 C 731.898438 972.859375 732.777344 972.660156 733.644531 972.445312 C 737.167969 971.621094 740.609375 970.585938 743.875 969.121094 C 747.15625 967.6875 750.199219 965.597656 753.410156 963.992188 C 755.015625 963.183594 756.675781 962.515625 758.367188 961.917969 C 760.058594 961.320312 761.761719 960.753906 763.484375 960.253906 C 765.203125 959.757812 766.949219 959.289062 768.726562 958.90625 C 770.5 958.535156 772.292969 958.195312 774.140625 958.023438 Z M 774.335938 958.523438 " fill-opacity="1" fill-rule="nonzero"/><path fill="#ead9d3" d="M 578.394531 822.023438 L 563.421875 803.554688 L 512.882812 806.679688 L 515.324219 823.417969 Z M 578.394531 822.023438 " fill-opacity="1" fill-rule="nonzero"/><path fill="#681b19" d="M 505.566406 815.402344 C 505.566406 815.402344 508.007812 796.59375 518.808594 792.402344 C 529.605469 788.222656 535.886719 792.402344 535.886719 792.402344 C 535.886719 792.402344 545.644531 788.921875 550.875 789.261719 C 566.558594 790.3125 583.625 822.011719 583.625 822.011719 C 583.625 822.011719 557.140625 813.640625 551.570312 808.074219 C 544.59375 811.210938 534.492188 810.515625 528.566406 808.769531 C 528.296875 811.339844 507.652344 818.742188 505.566406 815.402344 Z M 505.566406 815.402344 " fill-opacity="1" fill-rule="nonzero"/><path fill="#701c1c" d="M 505.566406 815.402344 C 505.566406 815.402344 505.566406 832.128906 516.023438 836.660156 C 524.277344 840.238281 547.734375 844.332031 564.457031 835.964844 C 581.179688 827.59375 583.625 822.023438 583.625 822.023438 C 583.625 822.023438 557.480469 811.921875 535.886719 819.9375 C 535.886719 819.9375 519.503906 812.265625 505.566406 815.402344 Z M 505.566406 815.402344 " fill-opacity="1" fill-rule="nonzero"/><g clip-path="url(#5ee17faf3c)"><path fill="#5e2d21" d="M 789.371094 1184.429688 L 789.398438 1108.644531 L 774.238281 1184.429688 Z M 789.371094 1184.429688 " fill-opacity="1" fill-rule="nonzero"/></g><g clip-path="url(#0291fafa4e)"><path fill="#5e2d21" d="M 397.96875 1184.429688 L 398.066406 1146.621094 L 416.039062 1184.429688 Z M 397.96875 1184.429688 " fill-opacity="1" fill-rule="nonzero"/></g><g clip-path="url(#b26ddcd0d6)"><path fill="#5e2d21" d="M 795.324219 944.511719 C 795.324219 944.511719 720.050781 1035.457031 710.300781 1134.785156 C 707.714844 1161.058594 551.585938 1168.5 511.675781 1165.445312 C 434.3125 1159.523438 455.949219 1037.035156 455.949219 1037.035156 L 440.988281 1041.453125 C 440.988281 1041.453125 443.136719 1089.09375 447.199219 1108.65625 C 456.605469 1153.953125 452.753906 1169.824219 523.167969 1175.5625 C 608.542969 1182.539062 755.339844 1184.359375 768.199219 1184.441406 C 768.199219 1184.441406 724.242188 1155.898438 726.328125 1123.632812 C 732.253906 1031.976562 809.019531 943.191406 809.019531 943.191406 Z M 795.324219 944.511719 " fill-opacity="1" fill-rule="nonzero"/></g><g clip-path="url(#0177126f19)"><path fill="#ead9d3" d="M 789.398438 949.042969 C 789.398438 949.042969 714.125 1035.472656 704.378906 1134.785156 C 701.792969 1161.058594 629.457031 1130.253906 599.492188 1146.636719 C 569.53125 1163.015625 524.375 1150.316406 500.179688 1157.09375 C 439.199219 1174.171875 451.773438 1038.441406 451.773438 1038.441406 L 436.117188 1042.503906 C 436.117188 1042.503906 438.574219 1088.867188 441.273438 1108.65625 C 449.640625 1169.992188 416.183594 1184.457031 416.183594 1184.457031 L 762.273438 1184.457031 C 762.273438 1184.457031 720.757812 1156.269531 722.847656 1124.003906 C 728.773438 1032.347656 805.183594 943.21875 805.183594 943.21875 Z M 789.398438 949.042969 " fill-opacity="1" fill-rule="nonzero"/></g><g clip-path="url(#c10745e82b)"><path stroke-linecap="butt" transform="matrix(1.420799, 0, 0, 1.420801, 272.994522, 494.1753)" fill="none" stroke-linejoin="miter" d="M 363.460267 320.148706 C 363.460267 320.148706 310.480607 380.98036 303.62102 450.879301 C 301.800961 469.371288 250.8888 447.690079 229.798662 459.220765 C 208.711272 470.748702 176.928975 461.810633 159.899603 466.580719 C 116.979755 478.600785 125.82986 383.06985 125.82986 383.06985 L 114.810531 385.929152 C 114.810531 385.929152 116.539861 418.560938 118.439651 432.489039 C 124.328724 475.659003 100.780681 485.839769 100.780681 485.839769 L 344.368894 485.839769 C 344.368894 485.839769 315.148976 466.00061 316.619869 443.291153 C 320.790609 378.780896 374.570324 316.049456 374.570324 316.049456 Z M 363.460267 320.148706 " stroke="#ead9d3" stroke-width="0.731" stroke-opacity="1" stroke-miterlimit="10"/></g><path fill="#130b09" d="M 656.808594 859.804688 C 656.808594 859.804688 641.820312 877.082031 642.871094 891.019531 C 643.921875 904.957031 640.425781 914.363281 649.847656 917.160156 C 659.253906 919.945312 648.796875 925.871094 649.847656 938.078125 C 650.898438 950.265625 667.351562 941.871094 667.351562 941.871094 C 667.351562 941.871094 650.542969 976.054688 667.28125 973.625 C 684.003906 971.179688 656.738281 968.253906 670.546875 964.671875 C 684.359375 961.09375 703.167969 968.75 694.121094 973.625 C 685.054688 978.496094 708.425781 994.566406 714.335938 981.480469 C 720.246094 968.394531 719.195312 988.613281 734.1875 986.527344 C 749.175781 984.4375 753.695312 970.5 748.125 958.292969 C 742.554688 946.105469 783.671875 954.8125 793.433594 949.230469 C 803.195312 943.660156 819.917969 942.253906 813.652344 934.238281 C 807.371094 926.226562 792.738281 929.011719 787.507812 915.074219 C 782.25 901.121094 656.808594 859.804688 656.808594 859.804688 Z M 656.808594 859.804688 " fill-opacity="1" fill-rule="nonzero"/><g clip-path="url(#d5006bc069)"><path fill="#000000" d="M 786.59375 391.375 C 781.078125 438 776.605469 442.472656 729.980469 447.988281 C 730.078125 448 730.175781 448.011719 730.269531 448.023438 L 730.273438 448.023438 C 776.621094 453.527344 781.089844 458.078125 786.59375 504.601562 C 792.113281 457.980469 796.585938 453.507812 843.207031 447.988281 C 796.585938 442.472656 792.113281 438 786.59375 391.375 Z M 786.59375 391.375 " fill-opacity="1" fill-rule="nonzero"/></g><g clip-path="url(#d38ed319f9)"><path fill="#000000" d="M 272.574219 908.695312 C 266.800781 957.476562 262.121094 962.15625 213.335938 967.929688 C 213.4375 967.941406 213.539062 967.957031 213.640625 967.96875 C 262.140625 973.722656 266.8125 978.488281 272.574219 1027.167969 C 278.347656 978.386719 283.027344 973.703125 331.8125 967.929688 C 283.027344 962.15625 278.347656 957.476562 272.574219 908.695312 Z M 272.574219 908.695312 " fill-opacity="1" fill-rule="nonzero"/></g><g clip-path="url(#9b3d0ec485)"><path fill="#000000" d="M 945.695312 814.078125 C 939.484375 866.566406 934.449219 871.601562 881.960938 877.816406 C 882.070312 877.828125 882.175781 877.839844 882.285156 877.855469 C 934.46875 884.046875 939.496094 889.171875 945.695312 941.550781 C 951.90625 889.0625 956.945312 884.027344 1009.433594 877.816406 C 956.945312 871.601562 951.90625 866.566406 945.695312 814.078125 Z M 945.695312 814.078125 " fill-opacity="1" fill-rule="nonzero"/></g></svg>