<svg xmlns="http://www.w3.org/2000/svg" xmlns:xlink="http://www.w3.org/1999/xlink" width="1587" zoomAndPan="magnify" viewBox="0 0 1190.25 1683.749945" height="2245" preserveAspectRatio="xMidYMid meet" version="1.0"><defs><filter x="0%" y="0%" width="100%" height="100%" id="03621aa27e"><feColorMatrix values="0 0 0 0 1 0 0 0 0 1 0 0 0 0 1 0 0 0 1 0" color-interpolation-filters="sRGB"/></filter><mask id="ed23b614a6"><g filter="url(#03621aa27e)"><rect x="-119.025" width="1428.3" fill="#000000" y="-168.374994" height="2020.499934" fill-opacity="0.698"/></g></mask><clipPath id="a728284262"><path d="M 0.738281 0.46875 L 772.324219 0.46875 L 772.324219 772.054688 L 0.738281 772.054688 Z M 0.738281 0.46875 " clip-rule="nonzero"/></clipPath><clipPath id="d121992ec5"><rect x="0" width="774" y="0" height="773"/></clipPath><clipPath id="e3468af972"><path d="M 315 476 L 539 476 L 539 798 L 315 798 Z M 315 476 " clip-rule="nonzero"/></clipPath><clipPath id="b78a9fb5c8"><path d="M 214.734375 683.25 L 345.980469 455.113281 L 612.464844 608.421875 L 481.21875 836.558594 Z M 214.734375 683.25 " clip-rule="nonzero"/></clipPath><clipPath id="8a05f97545"><path d="M 214.734375 683.25 L 345.980469 455.113281 L 612.464844 608.421875 L 481.21875 836.558594 Z M 214.734375 683.25 " clip-rule="nonzero"/></clipPath><clipPath id="d8a7c3d18b"><path d="M 214.734375 683.25 L 345.980469 455.113281 L 612.464844 608.421875 L 481.21875 836.558594 Z M 214.734375 683.25 " clip-rule="nonzero"/></clipPath><clipPath id="9c8c8ad7e5"><path d="M 307.023438 923 L 911 923 L 911 1229 L 307.023438 1229 Z M 307.023438 923 " clip-rule="nonzero"/></clipPath><clipPath id="5e8bb093f2"><path d="M 423 996 L 804 996 L 804 1229.011719 L 423 1229.011719 Z M 423 996 " clip-rule="nonzero"/></clipPath><clipPath id="a8462712ba"><path d="M 721.878906 509.378906 L 824.605469 509.378906 L 824.605469 612.109375 L 721.878906 612.109375 Z M 721.878906 509.378906 " clip-rule="nonzero"/></clipPath><clipPath id="06640a8155"><path d="M 253.179688 978.6875 L 361.15625 978.6875 L 361.15625 1086.664062 L 253.179688 1086.664062 Z M 253.179688 978.6875 " clip-rule="nonzero"/></clipPath><clipPath id="a00eb2ea91"><path d="M 859.75 892.855469 L 975.226562 892.855469 L 975.226562 1008.328125 L 859.75 1008.328125 Z M 859.75 892.855469 " clip-rule="nonzero"/></clipPath></defs><g mask="url(#ed23b614a6)"><g transform="matrix(1, 0, 0, 1, 214, 457)"><g clip-path="url(#d121992ec5)"><g clip-path="url(#a728284262)"><path fill="#ffffff" d="M 386.53125 0.46875 C 173.726562 0.46875 0.738281 173.613281 0.738281 386.261719 C 0.738281 599.066406 173.726562 772.054688 386.53125 772.054688 C 599.179688 772.054688 772.324219 599.066406 772.324219 386.261719 C 772.324219 173.613281 599.179688 0.46875 386.53125 0.46875 Z M 386.53125 741.964844 C 190.394531 741.964844 30.828125 582.398438 30.828125 386.261719 C 30.828125 190.125 190.394531 30.558594 386.53125 30.558594 C 582.667969 30.558594 742.234375 190.125 742.234375 386.261719 C 742.234375 582.398438 582.667969 741.964844 386.53125 741.964844 Z M 386.53125 741.964844 " fill-opacity="1" fill-rule="nonzero"/></g><path fill="#ffffff" d="M 386.53125 50.621094 C 201.503906 50.621094 50.890625 201.234375 50.890625 386.261719 C 50.890625 571.289062 201.503906 721.902344 386.53125 721.902344 C 571.558594 721.902344 722.171875 571.289062 722.171875 386.261719 C 722.171875 201.234375 571.558594 50.621094 386.53125 50.621094 Z M 386.53125 50.621094 " fill-opacity="1" fill-rule="nonzero"/></g></g></g><g clip-path="url(#e3468af972)"><g clip-path="url(#b78a9fb5c8)"><g clip-path="url(#8a05f97545)"><g clip-path="url(#d8a7c3d18b)"><path fill="#000000" d="M 405.207031 620.675781 C 405.105469 620.582031 405.007812 620.488281 404.910156 620.390625 C 404.800781 620.277344 404.6875 620.164062 404.46875 619.992188 C 404.261719 619.863281 404.050781 619.742188 403.875 619.59375 L 402.558594 618.578125 L 403.554688 618.03125 C 404.84375 617.320312 405.714844 616.621094 406.46875 615.984375 C 406.609375 615.84375 406.90625 615.53125 407.109375 615.367188 C 407.113281 615.558594 407.101562 615.867188 407.003906 616.304688 C 406.832031 616.828125 406.453125 617.46875 405.964844 618.046875 L 405.554688 618.539062 L 406.292969 619.175781 C 406.402344 619.269531 406.519531 619.375 406.597656 619.441406 C 408.277344 621.382812 408.695312 623.328125 408.964844 624.601562 C 409.132812 625.472656 409.152344 625.964844 409.144531 626.230469 C 408.914062 626.050781 408.558594 625.671875 408.097656 624.984375 C 407.835938 624.597656 407.566406 624.148438 407.292969 623.683594 C 406.710938 622.714844 406.054688 621.609375 405.207031 620.675781 Z M 412.785156 603.3125 C 411.492188 604.375 408.097656 606.597656 400.941406 610.375 C 395.042969 613.417969 390.027344 614.925781 387.957031 615.238281 C 389.4375 614.199219 393.046875 612.351562 396.558594 610.542969 C 397.691406 609.960938 398.875 609.351562 400.101562 608.714844 C 406.164062 605.527344 410.824219 603.78125 412.785156 603.3125 Z M 354.75 602.140625 C 354.058594 603.832031 353.019531 605.539062 351.925781 607.355469 C 351.539062 607.988281 351.140625 608.640625 350.742188 609.328125 C 349.519531 611.515625 348.046875 613.546875 346.460938 615.710938 L 345.476562 617.074219 C 344.964844 617.777344 344.445312 618.476562 343.921875 619.1875 C 342.425781 621.191406 340.914062 623.25 339.625 625.515625 C 337.453125 629.386719 336.550781 632.675781 336.867188 635.535156 C 336.996094 636.902344 337.453125 638.234375 338.234375 639.507812 L 338.753906 640.054688 L 339.335938 639.554688 C 340.148438 638.835938 340.953125 638.132812 341.804688 637.472656 C 342.460938 636.945312 343.121094 636.410156 343.742188 635.921875 C 344.363281 635.453125 344.996094 635.007812 345.609375 634.574219 L 345.824219 634.425781 C 346.742188 633.710938 347.6875 633.148438 348.59375 632.613281 C 349 632.378906 349.402344 632.128906 349.78125 631.898438 C 350.566406 631.457031 351.289062 631.050781 352.007812 630.664062 C 352.601562 630.347656 353.183594 630.027344 353.773438 629.695312 C 356.28125 628.320312 358.75 627.011719 361.113281 625.824219 L 361.351562 625.699219 C 363.550781 624.570312 365.628906 623.507812 367.621094 622.683594 L 373.027344 620.351562 L 375.289062 619.667969 C 375.519531 619.597656 375.738281 619.523438 375.960938 619.464844 L 373.113281 620.695312 C 372.007812 621.292969 370.796875 621.921875 369.46875 622.617188 L 367.945312 623.40625 C 366.324219 624.203125 364.605469 625.1875 362.785156 626.230469 L 361.675781 626.875 C 359.429688 628.121094 357.023438 629.519531 354.511719 631.011719 L 350.609375 633.277344 C 350.203125 633.550781 349.785156 633.816406 349.351562 634.074219 C 348.441406 634.640625 347.492188 635.222656 346.71875 635.871094 C 344.625 637.34375 342.453125 639.222656 340.363281 641.058594 L 338.40625 642.742188 L 337.804688 642.054688 C 336.210938 640.1875 335.21875 637.949219 335.035156 635.738281 C 334.597656 631.410156 336.332031 627.699219 338.085938 624.628906 C 338.09375 624.621094 338.097656 624.613281 338.101562 624.605469 C 339.519531 622.140625 341.152344 620.039062 342.726562 618.015625 C 343.222656 617.375 343.71875 616.742188 344.183594 616.117188 L 345.3125 614.664062 C 346.941406 612.546875 348.492188 610.546875 349.695312 608.539062 C 350.152344 607.824219 350.613281 607.128906 351.058594 606.453125 C 352.164062 604.800781 353.210938 603.242188 353.957031 601.660156 L 357.175781 595.734375 C 357.863281 594.132812 358.484375 592.726562 359.019531 591.554688 C 358.621094 592.796875 358.144531 594.28125 357.609375 595.902344 L 354.765625 602.113281 Z M 327.578125 499.363281 C 327.550781 499.40625 327.527344 499.449219 327.515625 499.492188 L 327.003906 500.253906 L 326.609375 501.085938 C 326.089844 502.089844 325.765625 503.164062 325.441406 504.199219 L 325.386719 504.375 C 324.816406 506.410156 324.390625 508.515625 324.132812 510.660156 C 323.726562 514.042969 323.832031 517.171875 324.394531 519.503906 C 323.464844 517.253906 323.046875 514.039062 323.214844 510.578125 C 323.328125 508.386719 323.625 506.195312 324.117188 504.070312 C 324.40625 502.871094 324.714844 501.699219 325.265625 500.5 L 326.148438 498.742188 C 326.457031 498.164062 326.824219 497.671875 327.269531 497.058594 C 330.15625 493.1875 334.574219 489.898438 341.15625 486.707031 C 346.175781 484.332031 352.074219 481.90625 357.777344 481.839844 C 362.570312 481.71875 367.503906 483.148438 371.324219 485.78125 C 373.832031 487.46875 375.980469 489.457031 377.890625 491.851562 C 376.300781 490.40625 374.003906 488.378906 370.847656 486.589844 C 366.988281 484.308594 362.363281 483.199219 357.855469 483.460938 C 352.976562 483.625 347.976562 485.53125 341.972656 488.351562 C 335.664062 491.410156 331.273438 494.570312 328.550781 498.019531 C 328.199219 498.464844 327.824219 498.929688 327.578125 499.363281 Z M 391.136719 544.859375 L 391.746094 545.984375 C 391.957031 546.375 392.175781 546.769531 392.40625 547.1875 L 394.070312 549.871094 C 394.1875 550.054688 394.292969 550.234375 394.445312 550.460938 L 395.070312 551.257812 C 395.449219 551.742188 395.84375 552.195312 396.226562 552.636719 L 396.496094 552.945312 C 397.949219 554.582031 399.546875 556.429688 400.464844 557.933594 C 399.636719 557.066406 398.480469 556.015625 397.042969 554.707031 L 395.707031 553.480469 C 395.226562 553.027344 394.726562 552.550781 394.230469 552.019531 L 393.933594 551.695312 C 393.769531 551.53125 393.597656 551.363281 393.386719 551.097656 L 392.328125 549.609375 C 391.957031 549.089844 391.574219 548.550781 391.207031 548.046875 L 390.855469 547.46875 C 390.488281 546.859375 390.125 546.25 389.726562 545.609375 C 389.277344 544.902344 388.90625 544.160156 388.519531 543.363281 L 388.378906 543.070312 C 388.238281 542.765625 388.074219 542.460938 387.917969 542.160156 C 387.617188 541.578125 387.304688 540.972656 387.089844 540.332031 L 386.226562 538.109375 L 385.941406 537.300781 C 385.691406 536.285156 385.433594 535.242188 385.167969 534.175781 C 384.921875 533.316406 384.789062 532.300781 384.667969 531.324219 L 384.628906 531.042969 C 384.59375 530.671875 384.554688 530.296875 384.496094 529.925781 C 384.402344 529.210938 384.316406 528.527344 384.328125 527.851562 L 384.308594 526.761719 C 384.292969 526.09375 384.277344 525.425781 384.289062 524.773438 C 384.292969 524.050781 384.339844 523.335938 384.394531 522.628906 L 384.457031 521.886719 C 384.71875 518.125 385.425781 514.832031 386.070312 512.054688 C 386.761719 509.277344 387.367188 507.289062 387.828125 505.933594 C 387.625 507.777344 387.269531 510.296875 386.988281 512.214844 L 386.824219 513.484375 C 386.496094 516.011719 386.128906 518.855469 386.042969 522.011719 C 386.039062 522.386719 386.015625 522.75 386.003906 523.117188 C 385.988281 523.675781 385.964844 524.246094 385.988281 524.824219 C 386.03125 525.765625 386.074219 526.730469 386.113281 527.667969 C 386.113281 528.386719 386.207031 529.074219 386.304688 529.742188 C 386.355469 530.042969 386.40625 530.363281 386.4375 530.675781 L 386.496094 531.167969 C 386.609375 531.996094 386.703125 532.851562 386.960938 533.773438 L 387.742188 536.949219 C 387.917969 537.4375 388.101562 537.917969 388.269531 538.402344 L 388.71875 539.601562 C 388.917969 540.234375 389.195312 540.816406 389.472656 541.375 C 389.613281 541.679688 389.765625 541.988281 389.902344 542.304688 C 390.28125 543.15625 390.671875 544.050781 391.136719 544.859375 Z M 344.546875 540.601562 L 345.296875 541.136719 C 345.835938 541.507812 346.378906 541.890625 346.882812 542.300781 L 349.234375 544.34375 C 349.742188 544.742188 350.207031 545.246094 350.699219 545.777344 C 350.953125 546.050781 351.207031 546.324219 351.460938 546.578125 L 351.789062 546.929688 C 352.417969 547.609375 353.078125 548.304688 353.554688 549.027344 C 354 549.625 354.433594 550.214844 354.875 550.796875 L 355.429688 551.550781 L 357.046875 554.433594 C 357.371094 554.972656 357.625 555.550781 357.875 556.121094 C 358.035156 556.480469 358.1875 556.828125 358.339844 557.148438 C 358.722656 558.015625 359.128906 558.90625 359.425781 559.839844 C 359.609375 560.359375 359.789062 560.886719 359.960938 561.382812 L 360.339844 562.480469 C 360.480469 563.011719 360.621094 563.523438 360.75 564.035156 L 361.285156 566.105469 C 361.355469 566.472656 361.382812 566.714844 361.40625 566.9375 L 361.464844 567.382812 C 361.554688 568.105469 361.609375 568.792969 361.652344 569.453125 L 361.730469 571.273438 C 361.820312 573.179688 361.890625 574.714844 362.023438 575.894531 C 361.523438 574.453125 361.140625 572.367188 360.734375 569.699219 L 360.660156 569.257812 C 360.566406 568.699219 360.472656 568.128906 360.347656 567.550781 L 359.730469 565.316406 C 359.480469 564.585938 359.234375 563.808594 358.980469 563.042969 L 357.9375 560.445312 C 357.675781 559.714844 357.324219 558.996094 356.984375 558.261719 L 356.777344 557.824219 C 356.625 557.539062 356.492188 557.238281 356.34375 556.941406 C 356.078125 556.367188 355.808594 555.773438 355.460938 555.234375 L 355.371094 555.078125 C 354.929688 554.316406 354.488281 553.535156 353.976562 552.6875 L 352.101562 550.164062 C 351.566406 549.375 350.992188 548.761719 350.4375 548.175781 L 350.023438 547.75 C 349.800781 547.503906 349.578125 547.257812 349.363281 547.015625 C 348.933594 546.519531 348.492188 546.019531 347.957031 545.582031 C 347.535156 545.210938 347.121094 544.832031 346.710938 544.457031 L 345.804688 543.640625 C 345.382812 543.257812 344.921875 542.910156 344.472656 542.570312 C 344.1875 542.347656 343.898438 542.132812 343.613281 541.898438 C 341.078125 539.910156 338.609375 538.339844 336.4375 536.949219 L 335.507812 536.355469 C 333.855469 535.34375 331.6875 534.027344 330.144531 532.996094 C 331.472656 533.503906 333.378906 534.316406 335.933594 535.554688 C 338.488281 536.835938 341.457031 538.390625 344.546875 540.601562 Z M 369.03125 507.785156 C 369.777344 510.878906 369.117188 514.238281 367.132812 517.335938 C 364.945312 520.730469 361.457031 523.179688 357.804688 523.886719 C 354.1875 524.578125 350.460938 523.761719 347.578125 521.644531 C 344.898438 519.691406 343.210938 516.78125 342.820312 513.453125 C 342.25 508.5 343.339844 503.910156 345.816406 500.914062 C 347.667969 498.65625 350.191406 497.394531 353.308594 497.140625 L 353.859375 497.105469 C 359.9375 497.101562 367.46875 501.1875 369.03125 507.785156 Z M 463.710938 575.398438 C 465.289062 576.964844 466.371094 579.164062 466.773438 581.570312 L 466.921875 582.476562 L 464.25 582.914062 C 461.4375 583.375 458.777344 583.808594 456.382812 584.460938 C 455.339844 584.660156 454.292969 585.007812 453.277344 585.34375 C 452.796875 585.5 452.3125 585.667969 451.800781 585.820312 C 450.375 586.339844 448.992188 586.847656 447.632812 587.347656 C 444.855469 588.335938 442.242188 589.285156 439.84375 590.207031 L 438.671875 590.652344 C 436.699219 591.382812 434.828125 592.082031 433.183594 592.816406 L 431.945312 593.335938 C 430.429688 593.96875 429.046875 594.550781 427.75 595.070312 L 425.011719 596.457031 C 425.242188 596.308594 425.46875 596.15625 425.710938 596 L 427.507812 594.816406 L 429.15625 593.976562 C 430.285156 593.402344 431.523438 592.777344 432.855469 592.097656 C 434.734375 591.101562 436.867188 590.191406 439.128906 589.222656 L 439.40625 589.109375 C 441.855469 588.039062 444.4375 586.976562 447.0625 585.949219 C 447.710938 585.699219 448.339844 585.449219 448.976562 585.195312 C 449.71875 584.90625 450.488281 584.59375 451.292969 584.296875 C 451.738281 584.140625 452.175781 583.992188 452.617188 583.835938 C 453.625 583.472656 454.65625 583.105469 455.832031 582.839844 C 456.632812 582.632812 457.441406 582.414062 458.246094 582.21875 C 458.878906 582.078125 459.503906 581.957031 460.125 581.832031 L 460.722656 581.71875 C 461.773438 581.476562 462.890625 581.296875 464.023438 581.125 L 464.796875 581.007812 L 464.546875 580.277344 C 464.066406 578.824219 463.324219 577.621094 462.371094 576.6875 C 460.378906 574.613281 457.269531 573.210938 452.898438 572.398438 C 450.398438 571.925781 447.855469 571.789062 445.382812 571.648438 C 444.480469 571.609375 443.582031 571.550781 442.683594 571.480469 L 441.195312 571.390625 C 438.4375 571.222656 435.839844 571.058594 433.328125 570.585938 C 432.5625 570.464844 431.792969 570.351562 431.0625 570.234375 C 428.964844 569.921875 426.992188 569.632812 425.222656 569.074219 L 421.777344 568.136719 C 420.671875 567.828125 419.625 567.546875 418.71875 567.304688 C 417.042969 566.660156 415.597656 566.085938 414.390625 565.589844 C 415.640625 565.933594 417.125 566.355469 418.84375 566.859375 C 420.300781 567.148438 421.914062 567.464844 423.664062 567.8125 L 425.371094 568.160156 C 427.074219 568.585938 428.894531 568.777344 430.820312 568.980469 C 431.660156 569.074219 432.527344 569.164062 433.386719 569.28125 C 435.660156 569.636719 438.101562 569.726562 440.683594 569.8125 L 442.761719 569.894531 C 443.550781 569.9375 444.351562 569.949219 445.167969 569.984375 C 447.746094 570.058594 450.410156 570.144531 453.199219 570.644531 C 456.683594 571.25 460.652344 572.300781 463.710938 575.398438 Z M 359.933594 477.007812 C 345.054688 475.765625 330.460938 487.546875 321.753906 499.007812 C 321.699219 499.082031 321.625 499.148438 321.5625 499.214844 L 321.4375 499.367188 C 312.457031 513.140625 314.195312 528.792969 325.890625 539.140625 C 329.402344 542.230469 333.371094 544.769531 337.214844 547.21875 C 342.644531 550.691406 348.265625 554.277344 352.484375 559.445312 C 359.882812 568.503906 357.085938 580.761719 352.960938 592.652344 C 350.679688 599.1875 347.257812 605.359375 342.167969 612.082031 C 341.410156 613.089844 340.597656 614.113281 339.785156 615.160156 C 334.492188 621.914062 328.476562 629.570312 330.023438 638.707031 C 330.902344 643.960938 334.097656 649.230469 337.195312 654.324219 C 338.648438 656.699219 340.011719 658.953125 341.085938 661.109375 C 343.390625 665.761719 345.628906 670.550781 347.796875 675.179688 C 350.125 680.164062 352.535156 685.308594 355.03125 690.304688 C 365.589844 711.535156 374.433594 728.84375 382.855469 744.765625 C 386.949219 752.515625 392.4375 762.710938 398.402344 772.851562 C 400.1875 775.875 401.746094 778.863281 403.527344 782.425781 C 407.40625 790.25 410.457031 795.058594 412.605469 796.695312 L 413.214844 797.164062 L 413.574219 796.480469 C 414.398438 794.90625 412.421875 790.949219 408.210938 783.722656 C 407.320312 782.1875 406.542969 780.859375 406.335938 780.34375 C 404.867188 776.828125 403.175781 773.378906 401.535156 770.039062 C 400.65625 768.238281 399.773438 766.425781 398.917969 764.617188 C 395.71875 757.785156 392.855469 750.625 390.089844 743.710938 C 388.332031 739.328125 386.53125 734.804688 384.648438 730.394531 C 380.03125 719.644531 374.957031 708.324219 368.691406 694.769531 C 367.085938 691.285156 365.335938 687.808594 363.644531 684.441406 C 361.703125 680.5625 359.6875 676.546875 357.886719 672.511719 C 357.800781 672.335938 357.679688 672.078125 357.527344 671.746094 C 356.949219 670.527344 355.996094 668.488281 355.128906 666.171875 C 352.753906 661.886719 351.515625 658.871094 351.195312 657.550781 C 351.527344 657.871094 352.050781 658.429688 352.8125 659.433594 L 353.632812 660.503906 L 353.96875 659.203125 C 354.15625 658.464844 354.621094 657.5 356.480469 657.535156 L 357.691406 657.550781 L 357.042969 656.53125 C 356.226562 655.238281 355.335938 653.621094 354.410156 651.738281 L 352.875 648.644531 C 352.265625 647.273438 351.714844 646.289062 351.160156 645.496094 C 350.386719 644.453125 349.546875 643.910156 348.941406 644 C 348.621094 644.003906 348.234375 644.144531 347.609375 644.539062 C 347.566406 644.570312 347.492188 644.621094 347.429688 644.667969 C 347.285156 644.773438 347.167969 644.859375 347.078125 644.972656 C 347.039062 645.019531 346.972656 645.074219 346.914062 645.136719 C 346.785156 645.261719 346.625 645.453125 346.546875 645.570312 C 346.175781 646.109375 345.957031 647.0625 346.035156 647.90625 C 346.097656 648.636719 346.269531 649.464844 346.570312 650.449219 C 346.761719 651.039062 346.960938 651.589844 347.136719 652.101562 C 347.402344 652.84375 347.632812 653.503906 347.789062 654.050781 C 347.289062 653.363281 346.507812 652.292969 345.722656 650.820312 C 345.332031 650.03125 344.945312 649.148438 344.746094 648.082031 C 344.582031 647.1875 344.472656 645.84375 345.375 644.460938 C 345.535156 644.222656 345.625 644.125 345.722656 644.015625 C 345.792969 643.9375 345.859375 643.859375 345.929688 643.78125 C 346.136719 643.546875 346.289062 643.425781 346.457031 643.296875 L 346.6875 643.101562 C 347.277344 642.6875 347.882812 642.308594 348.75 642.230469 C 349.503906 642.148438 350.386719 642.386719 351.070312 642.851562 C 351.800781 643.339844 352.289062 643.941406 352.636719 644.398438 C 353.464844 645.554688 353.988281 646.691406 354.484375 647.847656 C 354.855469 648.753906 355.234375 649.628906 355.605469 650.476562 L 355.855469 651.078125 C 356.695312 653.136719 357.457031 654.972656 358.082031 656.425781 C 358.390625 657.273438 358.746094 658.027344 359.054688 658.699219 C 359.285156 659.195312 359.484375 659.640625 359.628906 660.027344 L 359.644531 660.203125 L 360.179688 660.945312 C 362.300781 663.796875 363.898438 666.984375 365.476562 670.265625 L 386.089844 713.238281 C 389.503906 720.335938 392.917969 727.433594 396.347656 734.527344 C 399.769531 741.632812 403.1875 748.722656 406.601562 755.820312 C 410.054688 763.011719 413.507812 770.203125 416.941406 777.371094 C 416.980469 777.464844 417.09375 777.71875 417.265625 778.097656 C 423.320312 791.792969 424.152344 791.800781 424.816406 791.808594 C 425.140625 791.816406 425.402344 791.652344 425.566406 791.324219 C 426.304688 789.773438 424.417969 786.066406 420.914062 780.1875 C 420.429688 779.378906 420.054688 778.742188 419.867188 778.398438 C 419.5625 777.800781 419.257812 777.226562 418.960938 776.640625 C 418.28125 775.371094 417.640625 774.15625 417.042969 772.847656 C 416.671875 772.058594 416.304688 771.269531 415.945312 770.464844 L 410.105469 757.71875 C 404.105469 744.597656 398.101562 731.460938 392.09375 718.347656 C 388.945312 711.460938 385.8125 704.570312 382.671875 697.675781 C 376.515625 684.125 370.144531 670.121094 363.769531 656.382812 L 363.191406 655.160156 C 363.070312 654.898438 363.035156 654.632812 363.0625 654.367188 L 363.082031 654.1875 L 363.015625 654.035156 C 361.496094 650.46875 361 648.351562 360.9375 647.480469 C 361.523438 648.03125 362.632812 649.515625 364.097656 652.238281 L 364.382812 652.765625 L 364.933594 652.519531 C 365.625 652.222656 366.414062 652.03125 367.105469 651.992188 L 368.238281 651.925781 L 367.625 650.988281 C 366.894531 649.851562 366.128906 648.667969 365.351562 647.363281 C 364.980469 646.800781 364.636719 646.214844 364.320312 645.644531 C 363.714844 644.589844 363.132812 643.597656 362.519531 642.949219 C 361.703125 641.976562 360.636719 641.035156 359.890625 640.59375 L 359.921875 640.398438 L 358.964844 640.039062 L 358.734375 640.316406 C 358.730469 640.324219 358.726562 640.332031 358.710938 640.335938 L 358.585938 640.347656 L 358.558594 640.496094 C 358.515625 640.578125 358.464844 640.664062 358.433594 640.777344 C 358.324219 641.03125 358.28125 641.3125 358.234375 641.554688 C 358.226562 641.644531 358.210938 641.742188 358.183594 641.890625 L 358.140625 641.757812 C 358.039062 641.441406 357.953125 641.144531 357.972656 640.617188 C 357.972656 640.582031 357.984375 640.457031 358.085938 640.175781 C 358.152344 640.003906 358.175781 639.9375 358.351562 639.777344 C 358.609375 639.46875 359.152344 639.40625 359.429688 639.433594 C 361.152344 639.6875 362.28125 640.582031 363.6875 641.835938 C 364.289062 642.382812 364.96875 643.246094 365.410156 643.992188 L 365.753906 644.539062 C 366.144531 645.164062 366.542969 645.820312 366.949219 646.441406 C 368.007812 648.199219 368.945312 649.773438 369.699219 651.242188 C 370.097656 652.105469 370.460938 652.921875 370.796875 653.667969 L 370.929688 653.863281 C 372.097656 655.019531 373.113281 656.460938 373.839844 657.523438 C 376.074219 660.75 377.746094 664.363281 379.355469 667.851562 C 380.207031 669.683594 381.082031 671.570312 382.03125 673.398438 C 387.460938 683.875 392.773438 694.640625 397.910156 705.054688 L 409.542969 728.5625 C 416.550781 742.675781 423.78125 757.269531 430.742188 771.707031 C 431.0625 772.371094 431.40625 773.039062 431.738281 773.710938 C 432.523438 775.246094 433.328125 776.847656 433.984375 778.449219 C 434.15625 778.863281 434.449219 779.664062 434.785156 780.589844 C 435.667969 783 436.367188 784.90625 436.753906 785.585938 C 436.988281 785.992188 437.605469 787.085938 438.464844 786.792969 C 439.523438 786.449219 439.347656 784.386719 439.269531 783.765625 C 438.894531 781.085938 436.96875 777.484375 435.277344 774.304688 C 434.292969 772.457031 433.359375 770.710938 432.835938 769.351562 L 431.820312 766.746094 C 430.871094 764.292969 429.871094 761.757812 428.800781 759.308594 C 423.867188 748.09375 418.460938 736.878906 413.234375 726.03125 C 411.171875 721.769531 409.121094 717.511719 407.089844 713.238281 C 402.628906 703.859375 398.203125 694.453125 393.789062 685.050781 C 391.320312 679.800781 388.851562 674.550781 386.378906 669.296875 L 385.382812 667.183594 C 383.523438 663.203125 381.597656 659.074219 379.371094 655.078125 C 378.109375 653.433594 376.75 651.265625 375.527344 648.976562 C 373.324219 644.738281 372.503906 641.175781 372.480469 639.8125 C 373.417969 640.9375 375.214844 644.390625 376.242188 646.367188 L 376.894531 647.636719 L 377.425781 646.308594 C 377.730469 645.554688 378.15625 645.0625 378.691406 644.84375 C 379.511719 644.503906 380.523438 644.804688 381.242188 645.109375 L 382.773438 645.777344 L 381.828125 643.660156 C 381.183594 642.210938 380.519531 640.710938 379.757812 639.214844 C 379.445312 638.53125 379.070312 637.9375 378.691406 637.367188 C 378.484375 637.035156 378.277344 636.71875 378.097656 636.378906 C 377.914062 636.0625 377.691406 635.796875 377.46875 635.550781 C 377.359375 635.414062 377.253906 635.296875 377.121094 635.113281 C 376.902344 634.859375 376.695312 634.585938 376.496094 634.320312 L 376.277344 634.050781 C 374.628906 632.398438 373.089844 632.335938 372.203125 632.8125 C 371.210938 633.335938 370.824219 634.605469 370.78125 635.613281 C 370.671875 635.316406 370.550781 634.835938 370.582031 634.160156 C 370.621094 633.6875 370.804688 632.796875 371.585938 632.128906 C 372.238281 631.53125 373.351562 631.230469 374.363281 631.390625 C 374.871094 631.46875 375.367188 631.625 375.875 631.871094 C 376.136719 632.023438 376.425781 632.199219 376.644531 632.324219 L 377.199219 632.75 C 377.546875 633.066406 377.777344 633.316406 378.011719 633.570312 L 378.398438 633.980469 C 378.527344 634.136719 378.683594 634.296875 378.824219 634.460938 C 379.066406 634.714844 379.316406 634.976562 379.496094 635.257812 C 379.695312 635.585938 379.910156 635.90625 380.121094 636.230469 C 380.578125 636.890625 381.03125 637.574219 381.355469 638.3125 C 383.113281 641.710938 384.152344 644.972656 384.929688 647.726562 L 385.074219 647.984375 C 385.414062 648.355469 385.71875 648.742188 385.898438 649.046875 C 387.824219 652.421875 389.320312 656.253906 390.773438 659.980469 C 391.773438 662.550781 392.804688 665.214844 393.984375 667.691406 C 397.335938 674.753906 400.992188 681.804688 404.535156 688.613281 L 410.769531 700.613281 C 416.46875 711.5625 422.378906 722.882812 428.09375 734.066406 C 429.246094 736.3125 430.414062 738.570312 431.585938 740.84375 C 434.117188 745.71875 436.730469 750.757812 439.160156 755.726562 C 440.65625 758.785156 442.390625 763.097656 444.230469 767.667969 C 446.414062 773.085938 448.675781 778.6875 450.625 782.367188 L 450.875 782.851562 L 451.394531 782.683594 C 451.609375 782.617188 451.898438 782.445312 452.082031 782.042969 C 453.054688 779.761719 448.453125 768.453125 437.152344 745.386719 C 436.617188 744.292969 436.238281 743.519531 436.074219 743.179688 L 389.796875 644.519531 L 389.164062 643.167969 L 388.566406 643.449219 L 389.085938 643.019531 C 388.882812 642.574219 388.949219 642.105469 389.277344 641.578125 C 390.089844 640.351562 392.1875 639.363281 393.859375 639.417969 L 394.917969 639.453125 L 394.480469 638.5 C 394.054688 637.582031 393.554688 636.695312 393.027344 635.757812 C 392.632812 635.074219 392.230469 634.359375 391.859375 633.617188 C 391.578125 633.066406 391.269531 632.539062 390.976562 632.027344 C 390.785156 631.671875 390.585938 631.320312 390.34375 630.902344 C 390.128906 630.601562 389.914062 630.277344 389.707031 629.96875 C 389.394531 629.484375 389.085938 629.023438 388.785156 628.664062 C 387.871094 627.515625 386.1875 626.769531 385.246094 627.015625 C 384.304688 627.039062 383.671875 627.894531 383.589844 629.179688 C 383.460938 628.808594 383.359375 628.398438 383.4375 627.808594 C 383.488281 627.332031 383.929688 626.507812 384.722656 626.1875 C 386.382812 625.507812 388.386719 626.050781 389.964844 627.582031 C 390.445312 628.070312 390.824219 628.578125 391.222656 629.128906 C 391.445312 629.417969 391.667969 629.722656 391.855469 629.949219 L 392.253906 630.601562 C 392.679688 631.292969 393.117188 632.003906 393.492188 632.761719 C 395.535156 636.789062 396.648438 640.636719 397.355469 643.101562 C 397.371094 643.238281 397.40625 643.363281 397.4375 643.488281 L 397.503906 643.679688 C 398.144531 644.894531 398.71875 646.210938 399.28125 647.476562 C 399.84375 648.785156 400.394531 650.019531 400.945312 651.039062 C 410.398438 668.804688 419.324219 687.050781 426.957031 702.769531 C 428.035156 704.960938 429.398438 707.78125 430.972656 711.046875 C 460.148438 771.292969 463.238281 775.597656 464.621094 775.300781 L 465.058594 775.128906 L 465.195312 774.832031 C 465.832031 773.421875 461.984375 765.933594 452.53125 748.558594 C 449.441406 742.878906 446.765625 737.96875 445.902344 736.039062 C 438.726562 719.914062 431.507812 704.210938 426.019531 692.324219 C 418.875 676.902344 411.765625 661.765625 405.742188 648.972656 C 405.605469 648.679688 405.335938 648.207031 405.003906 647.617188 C 404.292969 646.339844 403.210938 644.425781 402.222656 642.28125 C 401.851562 641.785156 401.417969 641.171875 400.933594 640.460938 C 399 637.652344 397.257812 634.714844 395.769531 631.765625 C 395.546875 631.214844 395.304688 630.675781 395.078125 630.148438 C 394.511719 628.867188 393.976562 627.667969 393.664062 626.457031 C 393.5 625.84375 393.269531 624.675781 393.464844 623.699219 C 393.566406 622.910156 393.949219 622.121094 394.464844 621.59375 C 395.453125 620.609375 396.382812 620.261719 397.101562 620.078125 L 397.027344 620.140625 C 396.472656 620.632812 395.722656 621.304688 395.199219 622.15625 C 395.1875 622.175781 395.183594 622.183594 395.171875 622.199219 C 394.460938 623.4375 394.800781 624.828125 395.179688 625.90625 C 395.5 626.820312 395.933594 627.722656 396.386719 628.691406 C 396.734375 629.394531 397.082031 630.136719 397.417969 630.941406 C 398.167969 632.417969 398.878906 633.835938 399.574219 635.222656 L 400.308594 636.703125 L 400.785156 635.121094 C 401.078125 634.140625 401.730469 633.5625 402.851562 633.304688 C 403.164062 633.234375 403.441406 633.195312 403.734375 633.175781 L 404.601562 633.101562 L 404.292969 632.289062 C 402.929688 628.753906 402.4375 626.566406 402.378906 625.628906 C 403.222656 626.511719 404.980469 629.238281 406.757812 633.480469 L 406.839844 633.683594 L 407.027344 633.789062 C 409.261719 635.132812 410.433594 638.347656 411.566406 641.441406 C 411.976562 642.570312 412.367188 643.640625 412.808594 644.636719 C 417.953125 656.019531 423.683594 667.363281 429.21875 678.328125 C 430.5 680.863281 431.789062 683.402344 433.0625 685.945312 C 435.113281 690.023438 438.265625 696.429688 441.96875 703.921875 C 475.042969 770.910156 475.640625 770.628906 476.746094 770.113281 C 477.910156 769.527344 477.261719 766.851562 449.570312 705.132812 C 445.390625 695.808594 441.777344 687.75 439.632812 682.859375 C 438.492188 680.242188 437.355469 677.625 436.222656 675 C 431.320312 663.746094 426.269531 652.097656 420.808594 640.882812 C 420.324219 639.886719 419.738281 638.882812 419.128906 637.816406 C 417.480469 634.984375 415.777344 632.058594 416.171875 629.496094 L 416.203125 629.292969 L 416.105469 629.097656 C 413.976562 625.015625 413.007812 621.921875 412.875 620.703125 C 413.558594 621.355469 414.917969 623.136719 416.765625 626.445312 L 417.179688 627.1875 L 417.785156 626.585938 C 418.003906 626.371094 418.226562 626.167969 418.472656 625.984375 C 419.378906 625.292969 420.25 625.144531 421.214844 625.550781 L 422.742188 626.183594 L 422.058594 624.671875 C 421.425781 623.285156 420.777344 621.820312 420.105469 620.246094 C 419.707031 619.488281 419.351562 618.71875 419.011719 617.984375 C 418.578125 617.042969 418.167969 616.160156 417.695312 615.347656 C 416.777344 613.855469 415.902344 613.152344 414.78125 612.976562 C 413.792969 612.832031 412.808594 612.972656 411.972656 613.101562 C 412.613281 612.636719 413.46875 612.175781 414.820312 612.050781 C 415.5625 611.984375 416.4375 612.203125 417.125 612.621094 C 417.734375 612.972656 418.441406 613.660156 419.074219 614.542969 C 419.816406 615.582031 420.425781 616.789062 421.070312 618.078125 C 421.3125 618.558594 421.558594 619.050781 421.800781 619.507812 C 423.132812 622.601562 424.273438 625.828125 425.195312 629.085938 C 425.4375 629.917969 425.636719 630.632812 425.820312 631.371094 C 426.761719 633.289062 427.5 635.214844 428.042969 636.621094 C 428.320312 637.34375 428.539062 637.90625 428.691406 638.230469 C 436.585938 655.164062 443.066406 668.925781 449.066406 681.519531 C 457.070312 698.402344 463.714844 712.144531 469.960938 724.757812 C 470.867188 726.574219 472.953125 731.261719 475.375 736.671875 C 487.121094 763.007812 487.960938 764.042969 488.875 764.003906 L 489.246094 763.972656 L 489.421875 763.671875 C 489.902344 762.832031 487.648438 757.070312 464.285156 706.042969 C 461.070312 699.035156 458.28125 692.929688 456.472656 688.929688 C 448.421875 671.09375 440.59375 653.617188 433.347656 635.855469 C 432.914062 634.792969 432.328125 633.625 431.707031 632.375 C 431.074219 631.105469 430.421875 629.789062 429.871094 628.496094 L 429.753906 628.3125 C 429.699219 628.246094 429.648438 628.167969 429.585938 628.074219 C 427.683594 625.335938 425.699219 622.265625 424.03125 618.429688 C 423.679688 617.628906 423.394531 616.792969 423.121094 615.988281 L 422.933594 615.472656 C 422.863281 615.089844 422.773438 614.730469 422.691406 614.378906 C 422.535156 613.714844 422.382812 613.085938 422.308594 612.433594 C 422.148438 610.179688 422.996094 608.339844 424.578125 607.488281 C 425.277344 607.113281 426.195312 607.230469 426.691406 607.574219 C 427.195312 607.863281 427.433594 608.246094 427.601562 608.546875 C 426.574219 607.777344 425.496094 607.734375 425 608.328125 C 424.101562 608.988281 423.609375 610.726562 423.886719 612.203125 C 423.96875 612.636719 424.113281 613.117188 424.269531 613.621094 C 424.394531 614.019531 424.523438 614.425781 424.640625 614.914062 C 424.789062 615.269531 424.917969 615.636719 425.0625 616.003906 C 425.277344 616.570312 425.492188 617.152344 425.746094 617.734375 C 426.5625 619.625 427.429688 621.40625 428.082031 622.746094 L 428.554688 623.675781 L 429.183594 622.851562 C 430.230469 621.5 432.507812 620.460938 434.054688 620.636719 C 434.660156 620.703125 435.0625 620.945312 435.261719 621.351562 L 435.492188 621.730469 C 435.726562 621.9375 435.878906 622.261719 435.910156 622.640625 L 482.246094 721.523438 C 482.433594 721.910156 482.839844 722.839844 483.425781 724.152344 C 493.496094 746.921875 498.796875 756.953125 501.140625 757.65625 C 501.5625 757.78125 501.890625 757.660156 502.082031 757.535156 L 502.53125 757.242188 L 502.328125 756.738281 C 500.761719 752.902344 498.011719 747.957031 495.363281 743.191406 C 493.085938 739.097656 490.941406 735.230469 489.535156 732.097656 C 486.90625 726.246094 484.335938 720.199219 481.839844 714.34375 L 479.886719 709.769531 C 474.210938 696.515625 468.53125 683 463.039062 669.9375 L 460.578125 664.082031 C 457.511719 656.746094 454.21875 648.945312 450.601562 641.140625 C 449.429688 638.621094 448.03125 636.089844 446.667969 633.636719 C 444.753906 630.183594 442.78125 626.605469 441.421875 622.980469 C 441.300781 622.6875 441.1875 622.226562 441.113281 621.699219 L 441.015625 621.421875 C 439.519531 619.242188 437.617188 616.28125 436.050781 612.628906 C 435.695312 611.898438 435.457031 611.066406 435.222656 610.273438 C 435.121094 609.933594 435.03125 609.601562 434.914062 609.25 C 434.804688 608.953125 434.757812 608.585938 434.707031 608.203125 C 434.683594 608 434.652344 607.808594 434.632812 607.65625 C 434.601562 607.425781 434.574219 607.234375 434.546875 607.03125 C 434.503906 606.699219 434.457031 606.367188 434.4375 605.980469 L 434.476562 605.191406 C 434.523438 604.890625 434.5625 604.59375 434.601562 604.359375 C 434.734375 603.824219 434.980469 603.320312 435.207031 602.863281 C 435.746094 601.964844 436.667969 601.304688 437.566406 601.191406 C 438.574219 601.015625 439.367188 601.449219 439.746094 601.714844 C 440.269531 602.109375 440.558594 602.488281 440.722656 602.769531 C 440.140625 602.351562 438.875 601.613281 437.695312 602.109375 C 436.785156 602.46875 435.808594 603.714844 436.050781 606.074219 C 436.097656 606.300781 436.144531 606.539062 436.1875 606.777344 L 436.320312 607.402344 C 436.363281 607.570312 436.386719 607.734375 436.417969 607.90625 C 436.472656 608.242188 436.53125 608.570312 436.660156 608.914062 C 436.804688 609.28125 436.921875 609.644531 437.042969 610.027344 C 437.242188 610.660156 437.460938 611.324219 437.769531 611.972656 C 438.570312 613.808594 439.433594 615.550781 440.179688 617.015625 L 440.917969 618.484375 L 441.382812 616.90625 C 441.597656 616.164062 442.015625 615.191406 442.804688 614.777344 C 443.316406 614.507812 443.96875 614.496094 444.722656 614.753906 L 446.074219 615.203125 L 445.53125 613.878906 C 444.492188 611.398438 443.132812 608.140625 442.890625 606.789062 C 443.910156 607.671875 446.132812 610.570312 447.988281 614.984375 C 448.96875 617.382812 449.761719 619.824219 450.246094 621.949219 C 451.871094 626.125 453.816406 630.242188 455.6875 634.21875 L 456.6875 636.324219 C 459.167969 641.652344 461.667969 646.988281 464.164062 652.3125 C 468.53125 661.652344 472.914062 670.988281 477.230469 680.359375 C 479.3125 684.847656 481.371094 689.355469 483.433594 693.867188 C 488.339844 704.617188 493.410156 715.738281 498.792969 726.484375 C 500.074219 729.078125 501.515625 731.65625 502.910156 734.136719 L 503.941406 736 C 504.472656 736.976562 505.082031 738.183594 505.734375 739.5 C 507.492188 743.003906 509.660156 747.363281 511.742188 749.628906 C 512.171875 750.085938 513.613281 751.539062 514.570312 750.960938 C 515.363281 750.480469 514.921875 749.308594 514.757812 748.859375 C 514.511719 748.226562 513.640625 747.125 512.234375 745.402344 C 511.363281 744.324219 510.460938 743.214844 510.195312 742.714844 C 509.414062 741.253906 508.734375 739.699219 508.082031 738.195312 C 507.75 737.429688 507.414062 736.660156 507.0625 735.90625 C 500.449219 721.398438 493.878906 706.570312 487.535156 692.230469 L 475.5625 665.242188 C 471.265625 655.554688 466.804688 645.539062 462.613281 635.621094 C 461.816406 633.714844 460.917969 631.824219 460.054688 630 C 458.410156 626.527344 456.703125 622.9375 455.636719 619.175781 C 455.292969 617.929688 454.824219 616.214844 454.691406 614.589844 L 454.625 614.351562 C 454.257812 613.625 453.863281 612.820312 453.46875 611.992188 C 452.816406 610.410156 452.160156 608.550781 451.546875 606.777344 L 450.621094 604.011719 C 450.34375 603.25 450.117188 602.171875 450.085938 601.328125 C 450.015625 599.445312 450.066406 598.050781 450.925781 596.539062 C 451.09375 596.304688 451.476562 595.902344 452.007812 595.902344 C 452.152344 595.878906 452.238281 595.90625 452.511719 596.003906 C 452.675781 596.050781 452.757812 596.132812 452.851562 596.210938 C 453.210938 596.464844 453.371094 596.722656 453.539062 596.996094 C 453.574219 597.039062 453.605469 597.089844 453.628906 597.128906 C 453.625 597.117188 453.617188 597.109375 453.605469 597.105469 C 453.523438 597.070312 453.425781 597.011719 453.320312 596.953125 C 453.085938 596.804688 452.820312 596.652344 452.675781 596.640625 C 452.53125 596.566406 452.386719 596.53125 452.265625 596.535156 L 452.101562 596.453125 L 452.019531 596.554688 L 451.660156 596.550781 L 451.402344 597.527344 L 451.546875 597.625 C 451.417969 598.476562 451.464844 599.890625 451.671875 601.101562 C 451.773438 602.054688 452.1875 603.148438 452.625 604.308594 C 452.847656 604.902344 453.078125 605.519531 453.28125 606.152344 C 453.757812 607.566406 454.1875 608.90625 454.589844 610.207031 L 454.914062 611.277344 L 455.679688 610.457031 C 456.183594 609.925781 456.824219 609.449219 457.492188 609.125 L 458.035156 608.851562 L 457.804688 608.296875 C 456.632812 605.390625 456.238281 603.625 456.175781 602.835938 C 456.824219 603.445312 458.128906 605.179688 459.878906 608.609375 L 459.953125 608.769531 L 460.097656 608.863281 C 460.332031 609.011719 460.507812 609.214844 460.628906 609.476562 L 461.109375 610.480469 L 461.21875 610.671875 C 467.871094 624.746094 474.761719 638.976562 481.421875 652.75 C 484.527344 659.199219 487.648438 665.636719 490.746094 672.082031 C 497.238281 685.570312 503.738281 699.074219 510.210938 712.558594 L 511.960938 716.199219 C 513.171875 718.707031 514.378906 721.207031 515.585938 723.746094 L 516.726562 726.109375 C 517.316406 727.351562 517.824219 728.597656 518.34375 729.859375 C 518.617188 730.507812 518.882812 731.167969 519.164062 731.824219 L 519.28125 732.089844 C 523.972656 743.214844 525.828125 744.832031 526.820312 745.085938 C 527.148438 745.171875 527.480469 745.066406 527.671875 744.8125 C 528.171875 744.148438 528 742.839844 521.175781 730.59375 C 520.671875 729.695312 520.332031 729.078125 520.253906 728.925781 C 517.21875 722.335938 514.183594 715.703125 511.152344 709.085938 L 510.292969 707.203125 C 507.011719 700.039062 503.746094 692.875 500.476562 685.707031 C 497.199219 678.535156 493.929688 671.367188 490.65625 664.207031 L 470.804688 620.875 C 469.355469 617.75 467.863281 614.402344 466.960938 610.722656 C 466.921875 610.546875 466.875 610.34375 466.816406 610.132812 L 466.699219 609.890625 C 466.488281 609.542969 466.277344 609.09375 466.035156 608.589844 C 465.710938 607.910156 465.339844 607.144531 464.886719 606.378906 C 464.296875 605.183594 463.539062 603.757812 462.695312 602.183594 L 460.585938 598.089844 C 460.03125 597.03125 459.46875 595.859375 459.113281 594.480469 C 458.914062 593.683594 458.859375 592.984375 458.917969 592.265625 C 458.992188 591.460938 459.382812 590.617188 459.953125 590.078125 C 460.550781 589.46875 461.242188 589.246094 461.84375 589.082031 L 462.210938 589.011719 C 462.414062 588.964844 462.597656 588.929688 462.886719 588.921875 C 463.015625 588.921875 463.125 588.917969 463.234375 588.910156 C 463.390625 588.90625 463.515625 588.894531 463.800781 588.929688 C 465.402344 589.121094 466.351562 590.007812 466.996094 590.746094 C 467.671875 591.589844 468.105469 592.453125 468.453125 593.238281 C 469.082031 594.738281 469.40625 595.996094 469.625 596.921875 C 469.304688 596.453125 468.953125 595.863281 468.554688 595.1875 C 468.269531 594.71875 467.960938 594.214844 467.628906 593.667969 C 467.1875 593.003906 466.664062 592.242188 466.035156 591.660156 C 465.429688 591.039062 464.570312 590.59375 463.882812 590.539062 C 463.695312 590.5 463.492188 590.527344 463.324219 590.546875 C 463.238281 590.554688 463.164062 590.5625 463.09375 590.566406 C 462.957031 590.558594 462.816406 590.59375 462.648438 590.640625 C 462.566406 590.664062 462.484375 590.683594 462.285156 590.722656 C 461.714844 590.9375 461.367188 591.136719 461.199219 591.320312 C 460.695312 591.792969 460.59375 592.78125 460.910156 594.035156 C 461.183594 595.128906 461.699219 596.273438 462.210938 597.34375 L 463.632812 600.511719 C 464.503906 602.515625 465.152344 604.183594 465.621094 605.613281 L 465.992188 606.769531 L 466.746094 605.828125 C 467.910156 604.371094 468.960938 604.632812 469.636719 604.964844 L 470.851562 605.535156 L 470.550781 604.21875 C 470.265625 603 470.164062 602.234375 470.144531 601.777344 C 470.953125 602.867188 472.492188 605.761719 474.300781 610.40625 C 475.484375 612.429688 476.429688 614.464844 477.003906 615.675781 C 477.15625 616.023438 477.28125 616.292969 477.371094 616.488281 C 479.382812 620.546875 481.234375 624.785156 483.023438 628.867188 C 484.472656 632.203125 485.988281 635.660156 487.570312 639.015625 C 494.070312 652.660156 499.542969 663.796875 504.792969 674.054688 C 507 678.367188 509.359375 682.707031 511.621094 686.902344 C 515.152344 693.410156 518.792969 700.132812 521.964844 706.914062 C 522.796875 708.699219 523.609375 710.492188 524.414062 712.28125 C 525.949219 715.71875 527.539062 719.265625 529.335938 722.660156 C 529.507812 722.992188 529.792969 723.601562 530.167969 724.382812 C 533.519531 731.503906 535.992188 735.992188 537.875 736.394531 L 538.617188 736.550781 L 538.660156 735.789062 C 538.792969 732.960938 536.453125 728.75 534.582031 725.371094 C 533.839844 724.039062 533.148438 722.773438 532.738281 721.832031 C 531.011719 717.949219 529.746094 714.859375 528.625 711.78125 C 525.402344 702.820312 521.695312 693.308594 516.980469 681.878906 C 510.265625 665.546875 502.835938 648.207031 492.878906 625.664062 C 490.667969 620.621094 488.285156 615.550781 485.980469 610.652344 C 483.773438 605.953125 481.492188 601.09375 479.355469 596.265625 C 478.375 594.046875 477.503906 591.539062 476.59375 588.875 C 474.660156 583.261719 472.660156 577.46875 469.199219 573.433594 C 463.144531 566.414062 453.417969 566.140625 444.839844 565.894531 C 443.515625 565.851562 442.214844 565.820312 440.953125 565.75 C 432.5 565.363281 425.558594 564.050781 419.101562 561.628906 C 407.316406 557.199219 396.105469 551.523438 393.863281 540.035156 C 392.589844 533.488281 393.417969 526.878906 394.226562 520.492188 C 394.800781 515.960938 395.390625 511.292969 395.253906 506.609375 C 394.5625 483.359375 372.828125 478.082031 359.933594 477.007812 " fill-opacity="1" fill-rule="nonzero"/></g></g></g></g><path fill="#130b09" d="M 510.695312 1060.269531 C 511.328125 1027.828125 500.910156 1060.269531 473.734375 1060.269531 C 446.558594 1060.269531 471.210938 1047.941406 467.101562 1043.84375 C 462.992188 1039.734375 442.464844 1043.84375 447.835938 1031.515625 C 453.207031 1019.183594 434.414062 1000.078125 423.351562 1011.132812 C 412.300781 1022.1875 399.976562 1014.289062 404.085938 1007.976562 C 408.195312 1001.652344 413.566406 1013.980469 420.507812 997.554688 C 427.460938 981.128906 423.660156 982.699219 413.875 988.074219 C 407.125 991.78125 403.066406 979.851562 396.757812 976.128906 C 393.910156 974.457031 390.613281 974.457031 386.402344 978.269531 C 372.816406 990.597656 372.984375 975.265625 378.355469 966.105469 C 383.722656 956.945312 419.578125 965.953125 413.886719 960.578125 C 408.195312 955.207031 390.1875 959.316406 395.882812 951.097656 C 401.574219 942.878906 401.574219 948.25 411.039062 942.878906 C 420.519531 937.507812 398.714844 940.03125 382.292969 942.878906 C 365.875 945.726562 363.8125 938.613281 372.96875 924.082031 C 382.128906 909.550781 401.5625 920.757812 385.128906 910.027344 C 368.707031 899.28125 382.605469 915.398438 359.226562 917.613281 C 335.851562 919.832031 332.710938 885.40625 348.964844 892.492188 C 372.492188 902.761719 372.816406 896.449219 368.707031 878.746094 C 364.597656 861.058594 348.179688 889.492188 342.808594 871.789062 C 337.4375 854.101562 337.4375 830.703125 351.023438 845.882812 C 364.613281 861.058594 369.980469 835.136719 364.613281 832.289062 C 359.242188 829.441406 346.929688 809.214844 351.023438 809.214844 C 355.132812 809.214844 370.292969 799.425781 359.242188 795.316406 C 348.191406 791.207031 334.28125 779.199219 344.082031 779.199219 C 353.882812 779.199219 383.878906 772.242188 376.9375 785.832031 C 369.980469 799.425781 379.460938 809.214844 386.414062 802.257812 C 393.371094 795.300781 403.789062 781.09375 395.894531 777.292969 C 388 773.503906 375.675781 770.964844 381.046875 758.648438 C 386.414062 746.320312 397.464844 754.230469 406.945312 747.597656 C 416.421875 740.960938 397.15625 705.25 408.207031 705.25 C 419.257812 705.25 416.734375 679.648438 427.472656 685.023438 C 438.214844 690.394531 447.695312 680.28125 451.480469 672.0625 C 455.265625 663.84375 454.957031 658.160156 464.113281 662.902344 C 473.269531 667.644531 475.164062 654.683594 477.070312 649.308594 C 478.976562 643.9375 500.765625 621.507812 490.65625 623.082031 C 480.546875 624.652344 476.128906 618.660156 482.441406 616.753906 C 488.765625 614.859375 508.339844 617.707031 494.445312 639.507812 C 480.546875 661.304688 505.492188 653.097656 510.863281 643.925781 C 516.234375 634.765625 520.34375 638.554688 526.023438 645.820312 C 531.714844 653.085938 544.027344 624.019531 547.8125 629.394531 C 551.601562 634.765625 562.339844 617.386719 570.558594 620.234375 C 578.773438 623.082031 581.609375 600.960938 595.195312 606.964844 C 608.78125 612.96875 626.789062 594.632812 632.46875 606.964844 C 638.160156 619.292969 623.621094 600.960938 622.679688 612.011719 C 621.738281 623.066406 629.632812 630.65625 638.789062 624.019531 C 647.949219 617.386719 665.953125 620.863281 662.488281 625.605469 C 659.011719 630.347656 691.863281 625.605469 689.972656 634.765625 C 688.078125 643.925781 715.238281 654.039062 715.238281 645.820312 C 715.238281 637.597656 733.566406 640.445312 726.289062 652.144531 C 719.011719 663.84375 706.699219 667.308594 721.871094 672.050781 C 737.03125 676.789062 719.347656 662.890625 739.878906 669.832031 C 760.40625 676.789062 744.617188 698.589844 761.992188 695.742188 C 779.363281 692.894531 785.996094 674.253906 787.582031 689.105469 C 789.164062 703.960938 780.949219 690.367188 778.101562 698.589844 C 775.253906 706.808594 791.6875 709.640625 795.785156 706.808594 C 799.894531 703.960938 805.574219 698.589844 806.835938 712.179688 C 808.097656 725.773438 812.527344 717.875 827.363281 723.234375 C 842.199219 728.59375 834.316406 745.03125 827.363281 746.308594 C 820.410156 747.570312 864.636719 751.679688 850.738281 763.996094 C 836.84375 776.324219 852 750.402344 836.84375 758.625 C 821.683594 766.84375 839.367188 776.632812 845.058594 783.269531 C 850.75 789.902344 854.214844 801.910156 839.367188 803.496094 C 824.515625 805.082031 850.738281 798.445312 850.738281 813.285156 C 850.738281 828.140625 848.84375 819.921875 838.105469 819.921875 C 827.363281 819.921875 856.429688 810.441406 850.738281 828.140625 C 845.046875 845.828125 858.003906 838.886719 850.738281 849.941406 C 843.476562 860.992188 860.527344 863.839844 850.738281 873.324219 C 840.949219 882.804688 838.582031 879.480469 847.105469 888.960938 C 855.632812 898.445312 857.0625 923.566406 843.476562 917.5625 C 829.886719 911.558594 850.738281 882.804688 835.582031 895.132812 C 820.421875 907.460938 842.214844 918.515625 832.734375 923.890625 C 823.253906 929.261719 810.621094 895.132812 809.359375 917.5625 C 808.097656 939.992188 810.621094 947.257812 805.25 945.6875 C 799.878906 944.117188 785.03125 939.992188 793.246094 956.429688 C 801.464844 972.859375 798.617188 988.035156 790.402344 985.1875 C 782.183594 982.339844 797.035156 999.085938 769.871094 1001.613281 C 742.710938 1004.136719 749.019531 1006.664062 732.910156 1012.355469 C 716.8125 1018.089844 510.542969 1068.320312 510.695312 1060.269531 Z M 510.695312 1060.269531 " fill-opacity="1" fill-rule="nonzero"/><g clip-path="url(#9c8c8ad7e5)"><path fill="#753a28" d="M 646.996094 923.925781 C 646.996094 923.925781 653.949219 1013.671875 674.476562 1018.089844 C 695.007812 1022.507812 795.773438 1006.40625 820.101562 1008.929688 C 844.429688 1011.457031 898.273438 1037.53125 908.074219 1119.363281 C 917.117188 1194.9375 899.074219 1228.535156 899.074219 1228.535156 L 595.980469 1228.382812 L 307.300781 1228.523438 C 307.300781 1228.523438 348.539062 1138.972656 394.296875 1116.351562 C 412.03125 1107.578125 465.683594 1098.972656 479.582031 1092.644531 C 493.476562 1086.320312 533.273438 1049.667969 533.273438 1036.089844 C 533.273438 1022.496094 513.375 936.875 513.375 936.875 Z M 646.996094 923.925781 " fill-opacity="1" fill-rule="nonzero"/></g><path fill="#5e2d21" d="M 649.839844 949.988281 C 649.867188 949.964844 649.878906 949.925781 649.90625 949.898438 C 647.871094 935.175781 646.996094 923.914062 646.996094 923.914062 L 513.375 936.875 C 513.375 936.875 516.648438 950.957031 520.535156 968.617188 C 528.316406 972.714844 535.5 975.332031 540.539062 975.898438 C 551.601562 977.160156 634.683594 970.527344 649.839844 949.988281 Z M 649.839844 949.988281 " fill-opacity="1" fill-rule="nonzero"/><path fill="#753a28" d="M 482.105469 831.96875 C 482.105469 831.96875 476.734375 858.507812 482.105469 885.675781 C 487.476562 912.847656 477.6875 924.855469 492.847656 940.03125 C 508.003906 955.195312 529.488281 966.261719 540.550781 967.523438 C 551.613281 968.785156 634.683594 962.152344 649.839844 941.617188 C 665 921.082031 665 917.601562 665 917.601562 C 665 917.601562 689.636719 919.816406 696.269531 911.597656 C 702.902344 903.378906 690.898438 708.109375 690.898438 708.109375 L 503.898438 708.109375 Z M 482.105469 831.96875 " fill-opacity="1" fill-rule="nonzero"/><path fill="#070403" d="M 594.242188 760.554688 C 614.679688 756.484375 630.238281 757 642.578125 760.554688 L 661.367188 779.675781 C 647.253906 771.933594 606.246094 769.328125 589.347656 775.886719 Z M 594.242188 760.554688 " fill-opacity="1" fill-rule="nonzero"/><path fill="#130b09" d="M 607.507812 718.222656 C 608.769531 732.753906 597.71875 734.015625 595.183594 738.757812 C 592.660156 743.5 603.078125 745.394531 601.507812 755.816406 C 599.921875 766.238281 588.242188 768.453125 594.875 774.457031 C 601.507812 780.460938 585.714844 795.625 585.085938 783.308594 C 584.453125 770.980469 588.871094 771.933594 591.71875 760.554688 C 594.566406 749.179688 582.238281 744.761719 582.238281 752.96875 C 582.238281 761.1875 592.980469 783.9375 582.238281 779.828125 C 571.5 775.71875 580.023438 776.042969 577.820312 766.238281 C 575.605469 756.445312 556.972656 754.863281 561.710938 764.652344 C 566.449219 774.445312 566.449219 797.828125 561.078125 788.035156 C 555.707031 778.246094 546.859375 779.507812 552.230469 790.25 C 557.601562 800.996094 537.703125 811.109375 536.441406 798.78125 C 535.179688 786.453125 533.75 784.726562 531.855469 783.460938 C 529.964844 782.199219 520.332031 770.347656 520.332031 788.679688 C 520.332031 807 512.4375 818.699219 509.910156 811.109375 C 507.386719 803.519531 506.433594 819.960938 501.0625 818.699219 C 495.691406 817.433594 485.273438 813.648438 492.214844 803.535156 C 499.171875 793.421875 479.890625 800.054688 479.582031 794.683594 C 479.261719 789.3125 498.21875 691.671875 498.21875 691.671875 L 706.378906 699.890625 C 706.378906 699.890625 725.96875 911.597656 706.378906 912.230469 C 686.789062 912.859375 675.109375 912.230469 679.847656 903.378906 C 684.589844 894.527344 677.324219 904.640625 675.109375 896.421875 C 672.894531 888.203125 673.847656 892.632812 677.957031 882.199219 C 682.0625 871.777344 667.84375 877.78125 670.371094 871.777344 C 672.894531 865.773438 681.742188 854.71875 675.742188 854.71875 C 669.738281 854.71875 659.320312 844.296875 671 837.972656 C 682.683594 831.644531 674.15625 828.8125 664.046875 831.96875 C 653.9375 835.125 652.996094 827.546875 659.308594 822.808594 C 665.628906 818.066406 667.203125 802.902344 661.523438 806.382812 C 655.828125 809.859375 665.308594 789.632812 668.15625 783.953125 C 671 778.269531 659.9375 784.90625 655.199219 779.210938 C 650.460938 773.515625 632.132812 766.25 636.242188 775.734375 C 640.347656 785.214844 652.660156 784.261719 644.457031 790.585938 C 636.242188 796.914062 651.089844 805.75 642.875 815.230469 C 634.65625 824.714844 637.503906 815.863281 639.71875 805.75 C 641.933594 795.636719 637.195312 791.847656 634.667969 786.476562 C 632.144531 781.105469 620.140625 770.359375 626.773438 766.882812 C 633.40625 763.402344 639.410156 757.398438 629.929688 753.921875 C 620.453125 750.441406 629.609375 741.59375 626.773438 736.863281 C 623.929688 732.125 612.878906 740.019531 612.246094 734.015625 C 611.617188 728.011719 607.507812 718.222656 607.507812 718.222656 Z M 607.507812 718.222656 " fill-opacity="1" fill-rule="nonzero"/><path fill="#5e2d21" d="M 655.289062 1061.234375 C 654.710938 1061.6875 654.066406 1062.074219 653.421875 1062.410156 C 652.777344 1062.757812 652.109375 1063.050781 651.4375 1063.335938 C 650.097656 1063.902344 648.734375 1064.355469 647.355469 1064.765625 C 645.976562 1065.164062 644.597656 1065.511719 643.222656 1065.824219 C 641.84375 1066.132812 640.453125 1066.390625 639.046875 1066.53125 C 637.644531 1066.699219 636.226562 1066.75 634.8125 1066.867188 C 633.394531 1066.96875 631.992188 1067.125 630.613281 1067.40625 C 629.234375 1067.691406 627.894531 1068.089844 626.582031 1068.59375 C 625.28125 1069.082031 624.019531 1069.714844 622.859375 1070.433594 C 622.28125 1070.796875 621.714844 1071.183594 621.183594 1071.566406 C 620.925781 1071.773438 620.671875 1071.96875 620.425781 1072.1875 C 620.179688 1072.394531 619.949219 1072.613281 619.730469 1072.816406 C 618.855469 1073.679688 618.183594 1074.597656 617.976562 1075.496094 C 617.953125 1075.613281 617.925781 1075.714844 617.914062 1075.832031 L 617.886719 1076 C 617.886719 1076.050781 617.886719 1076.117188 617.886719 1076.167969 L 617.863281 1076.65625 L 617.824219 1077.261719 C 617.796875 1077.660156 617.734375 1078.046875 617.683594 1078.449219 C 617.617188 1078.835938 617.539062 1079.222656 617.449219 1079.605469 C 617.101562 1081.140625 616.535156 1082.597656 615.839844 1083.949219 C 615.144531 1085.300781 614.320312 1086.5625 613.40625 1087.75 C 612.503906 1088.933594 611.527344 1090.03125 610.46875 1091.0625 C 609.425781 1092.089844 608.320312 1093.042969 607.160156 1093.921875 C 606.582031 1094.359375 605.988281 1094.785156 605.371094 1095.171875 C 604.765625 1095.570312 604.132812 1095.929688 603.476562 1096.265625 L 603.230469 1095.96875 C 604.945312 1093.664062 606.621094 1091.421875 608.164062 1089.140625 C 608.9375 1088.007812 609.660156 1086.847656 610.339844 1085.6875 C 611.011719 1084.527344 611.640625 1083.355469 612.183594 1082.171875 C 612.738281 1080.984375 613.214844 1079.800781 613.585938 1078.601562 C 613.675781 1078.304688 613.753906 1077.996094 613.832031 1077.699219 C 613.894531 1077.40625 613.972656 1077.09375 614.023438 1076.800781 L 614.089844 1076.347656 L 614.128906 1076.117188 L 614.179688 1075.78125 C 614.191406 1075.664062 614.21875 1075.550781 614.230469 1075.433594 L 614.308594 1075.085938 C 614.359375 1074.855469 614.4375 1074.632812 614.515625 1074.402344 C 614.835938 1073.5 615.324219 1072.714844 615.90625 1072.058594 C 616.1875 1071.722656 616.496094 1071.425781 616.804688 1071.15625 C 616.960938 1071.015625 617.117188 1070.886719 617.28125 1070.769531 C 617.449219 1070.640625 617.605469 1070.523438 617.785156 1070.421875 C 618.453125 1069.972656 619.148438 1069.621094 619.847656 1069.3125 C 620.542969 1069.003906 621.25 1068.761719 621.945312 1068.527344 C 622.292969 1068.410156 622.652344 1068.308594 623 1068.207031 C 623.347656 1068.117188 623.695312 1068.011719 624.058594 1067.921875 L 626.144531 1067.367188 L 627.175781 1067.085938 L 627.6875 1066.945312 L 628.203125 1066.800781 C 628.886719 1066.621094 629.570312 1066.414062 630.253906 1066.210938 C 632.96875 1065.398438 635.636719 1064.210938 638.367188 1063.414062 C 639.730469 1063.015625 641.121094 1062.71875 642.511719 1062.484375 C 643.902344 1062.242188 645.292969 1062.046875 646.683594 1061.855469 C 648.078125 1061.675781 649.46875 1061.507812 650.859375 1061.351562 C 652.25 1061.199219 653.640625 1061.042969 655.070312 1060.863281 Z M 655.289062 1061.234375 " fill-opacity="1" fill-rule="nonzero"/><path fill="#5e2d21" d="M 496.957031 1096.136719 C 497.277344 1095.996094 497.625 1095.90625 497.960938 1095.828125 C 498.292969 1095.738281 498.640625 1095.671875 498.976562 1095.59375 C 499.660156 1095.453125 500.34375 1095.324219 501.023438 1095.222656 C 502.390625 1094.988281 503.769531 1094.808594 505.132812 1094.628906 C 507.875 1094.28125 510.605469 1094.023438 513.351562 1093.792969 C 518.824219 1093.328125 524.285156 1093.03125 529.746094 1092.800781 C 535.207031 1092.554688 540.652344 1092.386719 546.089844 1092.207031 C 548.804688 1092.117188 551.523438 1092 554.242188 1091.832031 C 555.59375 1091.757812 556.957031 1091.640625 558.296875 1091.5 C 559.648438 1091.34375 560.988281 1091.152344 562.339844 1090.789062 C 561.207031 1091.601562 559.894531 1092.179688 558.59375 1092.695312 C 557.28125 1093.210938 555.941406 1093.613281 554.589844 1093.984375 C 551.882812 1094.71875 549.152344 1095.234375 546.421875 1095.671875 C 543.679688 1096.109375 540.9375 1096.433594 538.179688 1096.675781 C 535.4375 1096.933594 532.679688 1097.101562 529.925781 1097.21875 C 524.425781 1097.449219 518.914062 1097.464844 513.425781 1097.257812 C 510.683594 1097.15625 507.929688 1097 505.183594 1096.792969 C 503.808594 1096.691406 502.441406 1096.574219 501.0625 1096.445312 L 499.003906 1096.265625 C 498.65625 1096.226562 498.320312 1096.199219 497.972656 1096.1875 C 497.652344 1096.148438 497.304688 1096.125 496.957031 1096.136719 Z M 496.957031 1096.136719 " fill-opacity="1" fill-rule="nonzero"/><path fill="#5e2d21" d="M 761.746094 1023.679688 C 760.40625 1024.710938 759.003906 1025.574219 757.574219 1026.398438 C 756.15625 1027.222656 754.699219 1027.984375 753.246094 1028.691406 C 751.777344 1029.402344 750.296875 1030.070312 748.800781 1030.703125 C 747.308594 1031.335938 745.789062 1031.902344 744.21875 1032.339844 C 741.074219 1033.226562 737.777344 1033.679688 734.699219 1034.722656 C 731.609375 1035.738281 728.671875 1037.144531 725.8125 1038.742188 C 725.09375 1039.140625 724.382812 1039.539062 723.664062 1039.925781 L 722.582031 1040.507812 C 722.21875 1040.6875 721.859375 1040.894531 721.484375 1041.074219 C 720.03125 1041.820312 718.550781 1042.464844 717.070312 1043.148438 C 714.105469 1044.488281 711.144531 1045.839844 708.09375 1046.9375 C 706.574219 1047.488281 705.027344 1048.003906 703.46875 1048.480469 C 701.921875 1048.972656 700.351562 1049.421875 698.769531 1049.835938 C 697.183594 1050.257812 695.597656 1050.644531 693.988281 1050.980469 C 692.378906 1051.316406 690.757812 1051.625 689.097656 1051.820312 L 688.929688 1051.378906 C 690.292969 1050.402344 691.695312 1049.539062 693.113281 1048.699219 C 694.53125 1047.863281 695.972656 1047.089844 697.414062 1046.332031 C 698.859375 1045.582031 700.324219 1044.863281 701.808594 1044.164062 C 703.277344 1043.46875 704.769531 1042.8125 706.261719 1042.195312 C 709.265625 1040.945312 712.355469 1039.953125 715.445312 1038.949219 C 716.992188 1038.445312 718.535156 1037.929688 720.109375 1037.503906 C 720.496094 1037.390625 720.894531 1037.300781 721.292969 1037.183594 L 722.476562 1036.886719 C 723.277344 1036.679688 724.074219 1036.5 724.859375 1036.308594 C 728.054688 1035.558594 731.171875 1034.621094 734.132812 1033.292969 C 737.109375 1031.992188 739.863281 1030.097656 742.773438 1028.640625 C 744.230469 1027.90625 745.738281 1027.300781 747.269531 1026.761719 C 748.800781 1026.21875 750.347656 1025.703125 751.90625 1025.253906 C 753.464844 1024.800781 755.046875 1024.378906 756.660156 1024.03125 C 758.269531 1023.695312 759.890625 1023.386719 761.566406 1023.230469 Z M 761.746094 1023.679688 " fill-opacity="1" fill-rule="nonzero"/><path fill="#ead9d3" d="M 584.132812 899.914062 L 570.558594 883.164062 L 524.75 886 L 526.964844 901.175781 Z M 584.132812 899.914062 " fill-opacity="1" fill-rule="nonzero"/><path fill="#681b19" d="M 518.117188 893.910156 C 518.117188 893.910156 520.332031 876.851562 530.117188 873.050781 C 539.90625 869.265625 545.597656 873.050781 545.597656 873.050781 C 545.597656 873.050781 554.445312 869.894531 559.1875 870.203125 C 573.40625 871.15625 588.871094 899.898438 588.871094 899.898438 C 588.871094 899.898438 564.867188 892.3125 559.816406 887.261719 C 553.492188 890.109375 544.335938 889.476562 538.964844 887.894531 C 538.722656 890.226562 520.007812 896.9375 518.117188 893.910156 Z M 518.117188 893.910156 " fill-opacity="1" fill-rule="nonzero"/><path fill="#701c1c" d="M 518.117188 893.910156 C 518.117188 893.910156 518.117188 909.074219 527.59375 913.183594 C 535.078125 916.429688 556.339844 920.140625 571.5 912.550781 C 586.65625 904.964844 588.871094 899.914062 588.871094 899.914062 C 588.871094 899.914062 565.175781 890.753906 545.597656 898.019531 C 545.597656 898.019531 530.75 891.0625 518.117188 893.910156 Z M 518.117188 893.910156 " fill-opacity="1" fill-rule="nonzero"/><path fill="#5e2d21" d="M 775.371094 1228.523438 L 775.398438 1159.804688 L 761.65625 1228.523438 Z M 775.371094 1228.523438 " fill-opacity="1" fill-rule="nonzero"/><path fill="#5e2d21" d="M 420.582031 1228.523438 L 420.671875 1194.242188 L 436.964844 1228.523438 Z M 420.582031 1228.523438 " fill-opacity="1" fill-rule="nonzero"/><path fill="#5e2d21" d="M 780.769531 1010.980469 C 780.769531 1010.980469 712.535156 1093.445312 703.699219 1183.511719 C 701.355469 1207.332031 559.832031 1214.082031 523.652344 1211.3125 C 453.527344 1205.941406 473.140625 1094.875 473.140625 1094.875 L 459.582031 1098.878906 C 459.582031 1098.878906 461.527344 1142.078125 465.207031 1159.816406 C 473.734375 1200.890625 470.246094 1215.28125 534.074219 1220.484375 C 611.460938 1226.808594 744.527344 1228.460938 756.183594 1228.535156 C 756.183594 1228.535156 716.335938 1202.652344 718.226562 1173.398438 C 723.597656 1090.289062 793.183594 1009.78125 793.183594 1009.78125 Z M 780.769531 1010.980469 " fill-opacity="1" fill-rule="nonzero"/><path fill="#ead9d3" d="M 775.398438 1015.089844 C 775.398438 1015.089844 707.164062 1093.457031 698.328125 1183.511719 C 695.984375 1207.332031 630.417969 1179.398438 603.257812 1194.253906 C 576.097656 1209.109375 535.167969 1197.589844 513.234375 1203.738281 C 457.957031 1219.222656 469.355469 1096.148438 469.355469 1096.148438 L 455.164062 1099.832031 C 455.164062 1099.832031 457.390625 1141.871094 459.839844 1159.816406 C 467.425781 1215.433594 437.09375 1228.550781 437.09375 1228.550781 L 750.8125 1228.550781 C 750.8125 1228.550781 713.179688 1202.988281 715.074219 1173.730469 C 720.441406 1090.621094 789.707031 1009.804688 789.707031 1009.804688 Z M 775.398438 1015.089844 " fill-opacity="1" fill-rule="nonzero"/><g clip-path="url(#5e8bb093f2)"><path stroke-linecap="butt" transform="matrix(1.28789, 0, 0, 1.288315, 307.300725, 602.634522)" fill="none" stroke-linejoin="miter" d="M 363.460949 320.150999 C 363.460949 320.150999 310.479424 380.980214 303.618638 450.881356 C 301.798801 469.370866 250.888857 447.688596 229.799978 459.219525 C 208.711098 470.750454 176.930676 461.808905 159.900033 466.58137 C 116.979174 478.600461 125.829649 383.069304 125.829649 383.069304 L 114.810535 385.928538 C 114.810535 385.928538 116.539381 418.559582 118.44111 432.488872 C 124.331317 475.659362 100.779591 485.841024 100.779591 485.841024 L 344.370858 485.841024 C 344.370858 485.841024 315.150339 465.999214 316.621374 443.289075 C 320.788801 378.778937 374.571055 316.04862 374.571055 316.04862 Z M 363.460949 320.150999 " stroke="#ead9d3" stroke-width="0.731" stroke-opacity="1" stroke-miterlimit="10"/></g><path fill="#130b09" d="M 655.210938 934.167969 C 655.210938 934.167969 641.625 949.835938 642.578125 962.472656 C 643.53125 975.113281 640.363281 983.640625 648.902344 986.179688 C 657.425781 988.703125 647.949219 994.074219 648.902344 1005.144531 C 649.855469 1016.195312 664.765625 1008.582031 664.765625 1008.582031 C 664.765625 1008.582031 649.53125 1039.578125 664.703125 1037.375 C 679.863281 1035.160156 655.148438 1032.507812 667.664062 1029.261719 C 680.183594 1026.011719 697.234375 1032.957031 689.03125 1037.375 C 680.816406 1041.796875 702 1056.367188 707.359375 1044.5 C 712.714844 1032.636719 711.761719 1050.96875 725.351562 1049.074219 C 738.9375 1047.179688 743.03125 1034.542969 737.984375 1023.476562 C 732.933594 1012.421875 770.207031 1020.320312 779.054688 1015.257812 C 787.902344 1010.207031 803.0625 1008.929688 797.382812 1001.664062 C 791.6875 994.398438 778.425781 996.921875 773.683594 984.285156 C 768.917969 971.632812 655.210938 934.167969 655.210938 934.167969 Z M 655.210938 934.167969 " fill-opacity="1" fill-rule="nonzero"/><g clip-path="url(#a8462712ba)"><path fill="#000000" d="M 773.242188 509.378906 C 768.234375 551.679688 764.175781 555.738281 721.878906 560.742188 C 721.964844 560.753906 722.050781 560.765625 722.140625 560.773438 L 722.140625 560.777344 L 722.140625 560.773438 C 764.191406 565.765625 768.246094 569.898438 773.242188 612.109375 C 778.246094 569.808594 782.304688 565.75 824.605469 560.742188 C 782.304688 555.738281 778.246094 551.679688 773.242188 509.378906 Z M 773.242188 509.378906 " fill-opacity="1" fill-rule="nonzero"/></g><g clip-path="url(#06640a8155)"><path fill="#000000" d="M 307.167969 978.6875 C 301.90625 1023.148438 297.640625 1027.414062 253.179688 1032.675781 C 253.269531 1032.6875 253.363281 1032.699219 253.453125 1032.710938 L 253.457031 1032.710938 C 297.65625 1037.957031 301.917969 1042.296875 307.167969 1086.664062 C 312.429688 1042.203125 316.695312 1037.9375 361.15625 1032.675781 C 316.695312 1027.414062 312.429688 1023.148438 307.167969 978.6875 Z M 307.167969 978.6875 " fill-opacity="1" fill-rule="nonzero"/></g><g clip-path="url(#a00eb2ea91)"><path fill="#000000" d="M 917.488281 892.855469 C 911.863281 940.402344 907.300781 944.964844 859.75 950.59375 C 859.851562 950.605469 859.945312 950.613281 860.046875 950.625 L 860.046875 950.628906 C 907.316406 956.238281 911.875 960.878906 917.488281 1008.328125 C 923.117188 960.78125 927.679688 956.21875 975.226562 950.59375 C 927.679688 944.964844 923.117188 940.402344 917.488281 892.855469 Z M 917.488281 892.855469 " fill-opacity="1" fill-rule="nonzero"/></g></svg>