<svg xmlns="http://www.w3.org/2000/svg" xmlns:xlink="http://www.w3.org/1999/xlink" width="1587" zoomAndPan="magnify" viewBox="0 0 1190.25 1683.749945" height="2245" preserveAspectRatio="xMidYMid meet" version="1.0"><defs><clipPath id="e3ff7710ff"><path d="M 363 502 L 538 502 L 538 753 L 363 753 Z M 363 502 " clip-rule="nonzero"/></clipPath><clipPath id="e8610217ab"><path d="M 285.132812 663.871094 L 387.585938 485.78125 L 595.574219 605.433594 L 493.121094 783.523438 Z M 285.132812 663.871094 " clip-rule="nonzero"/></clipPath><clipPath id="4d02061397"><path d="M 285.132812 663.871094 L 387.585938 485.78125 L 595.574219 605.433594 L 493.121094 783.523438 Z M 285.132812 663.871094 " clip-rule="nonzero"/></clipPath><clipPath id="95cc56633a"><path d="M 285.132812 663.871094 L 387.585938 485.78125 L 595.574219 605.433594 L 493.121094 783.523438 Z M 285.132812 663.871094 " clip-rule="nonzero"/></clipPath><clipPath id="b15265535a"><path d="M 357.089844 851 L 828 851 L 828 1089.679688 L 357.089844 1089.679688 Z M 357.089844 851 " clip-rule="nonzero"/></clipPath><clipPath id="e4bc19662d"><path d="M 711 1035 L 723 1035 L 723 1089.679688 L 711 1089.679688 Z M 711 1035 " clip-rule="nonzero"/></clipPath><clipPath id="baf60f5a53"><path d="M 445 1062 L 459 1062 L 459 1089.679688 L 445 1089.679688 Z M 445 1062 " clip-rule="nonzero"/></clipPath><clipPath id="9232f6aa1b"><path d="M 476 918 L 737 918 L 737 1089.679688 L 476 1089.679688 Z M 476 918 " clip-rule="nonzero"/></clipPath><clipPath id="d0050bff99"><path d="M 458 918 L 734 918 L 734 1089.679688 L 458 1089.679688 Z M 458 918 " clip-rule="nonzero"/></clipPath><clipPath id="c6ecff3c7d"><path d="M 448 908 L 745 908 L 745 1089.679688 L 448 1089.679688 Z M 448 908 " clip-rule="nonzero"/></clipPath><clipPath id="b92a2f7e86"><path d="M 680.558594 528.296875 L 760.792969 528.296875 L 760.792969 608.53125 L 680.558594 608.53125 Z M 680.558594 528.296875 " clip-rule="nonzero"/></clipPath><clipPath id="0c84825c77"><path d="M 315.105469 894.226562 L 399.089844 894.226562 L 399.089844 978.207031 L 315.105469 978.207031 Z M 315.105469 894.226562 " clip-rule="nonzero"/></clipPath><clipPath id="173bc57b80"><path d="M 788.058594 827.296875 L 878.039062 827.296875 L 878.039062 917.28125 L 788.058594 917.28125 Z M 788.058594 827.296875 " clip-rule="nonzero"/></clipPath></defs><g clip-path="url(#e3ff7710ff)"><g clip-path="url(#e8610217ab)"><g clip-path="url(#4d02061397)"><g clip-path="url(#95cc56633a)"><path fill="#000000" d="M 433.800781 615.011719 C 433.726562 614.941406 433.648438 614.867188 433.574219 614.789062 C 433.484375 614.703125 433.398438 614.617188 433.226562 614.480469 C 433.066406 614.378906 432.902344 614.285156 432.765625 614.167969 L 431.738281 613.375 L 432.511719 612.949219 C 433.519531 612.394531 434.203125 611.847656 434.789062 611.351562 C 434.898438 611.242188 435.128906 611 435.289062 610.867188 C 435.292969 611.019531 435.28125 611.261719 435.207031 611.601562 C 435.070312 612.011719 434.773438 612.507812 434.394531 612.960938 L 434.074219 613.34375 L 434.652344 613.839844 C 434.734375 613.917969 434.828125 613.996094 434.886719 614.050781 C 436.199219 615.566406 436.527344 617.085938 436.734375 618.078125 C 436.867188 618.757812 436.882812 619.144531 436.875 619.347656 C 436.699219 619.210938 436.421875 618.914062 436.058594 618.375 C 435.855469 618.074219 435.644531 617.722656 435.429688 617.363281 C 434.976562 616.605469 434.464844 615.742188 433.800781 615.011719 Z M 439.71875 601.457031 C 438.710938 602.289062 436.0625 604.023438 430.476562 606.972656 C 425.871094 609.351562 421.957031 610.527344 420.339844 610.769531 C 421.496094 609.960938 424.3125 608.519531 427.054688 607.105469 C 427.9375 606.648438 428.863281 606.171875 429.816406 605.675781 C 434.550781 603.191406 438.1875 601.824219 439.71875 601.457031 Z M 394.421875 600.546875 C 393.882812 601.871094 393.070312 603.199219 392.21875 604.617188 C 391.914062 605.113281 391.605469 605.621094 391.292969 606.160156 C 390.339844 607.867188 389.191406 609.453125 387.953125 611.140625 L 387.183594 612.207031 C 386.785156 612.753906 386.378906 613.300781 385.96875 613.855469 C 384.800781 615.421875 383.621094 617.027344 382.613281 618.792969 C 380.921875 621.816406 380.214844 624.382812 380.460938 626.617188 C 380.5625 627.683594 380.917969 628.722656 381.53125 629.71875 L 381.9375 630.144531 L 382.390625 629.753906 C 383.023438 629.191406 383.652344 628.644531 384.316406 628.128906 C 384.828125 627.714844 385.34375 627.296875 385.828125 626.917969 C 386.3125 626.554688 386.808594 626.203125 387.285156 625.867188 L 387.453125 625.75 C 388.167969 625.191406 388.90625 624.753906 389.617188 624.335938 C 389.933594 624.152344 390.246094 623.957031 390.542969 623.777344 C 391.152344 623.429688 391.722656 623.117188 392.28125 622.8125 C 392.742188 622.566406 393.199219 622.316406 393.660156 622.058594 C 395.617188 620.980469 397.542969 619.960938 399.386719 619.035156 L 399.570312 618.9375 C 401.289062 618.054688 402.914062 617.226562 404.46875 616.582031 L 408.6875 614.761719 L 410.453125 614.226562 C 410.632812 614.175781 410.800781 614.117188 410.976562 614.070312 L 408.753906 615.03125 C 407.890625 615.496094 406.945312 615.988281 405.910156 616.53125 L 404.71875 617.148438 C 403.453125 617.769531 402.113281 618.539062 400.691406 619.351562 L 399.824219 619.851562 C 398.074219 620.828125 396.195312 621.921875 394.234375 623.085938 L 391.1875 624.855469 C 390.871094 625.066406 390.542969 625.273438 390.207031 625.472656 C 389.496094 625.917969 388.757812 626.371094 388.152344 626.878906 C 386.519531 628.027344 384.824219 629.492188 383.191406 630.929688 L 381.664062 632.242188 L 381.191406 631.707031 C 379.949219 630.25 379.175781 628.5 379.03125 626.777344 C 378.691406 623.398438 380.046875 620.5 381.414062 618.105469 C 381.417969 618.097656 381.421875 618.089844 381.425781 618.082031 C 382.53125 616.160156 383.808594 614.519531 385.035156 612.941406 C 385.425781 612.441406 385.808594 611.945312 386.171875 611.457031 L 387.054688 610.324219 C 388.328125 608.671875 389.535156 607.109375 390.476562 605.542969 C 390.832031 604.984375 391.191406 604.441406 391.539062 603.917969 C 392.402344 602.625 393.222656 601.40625 393.804688 600.171875 L 396.316406 595.546875 C 396.851562 594.296875 397.335938 593.199219 397.753906 592.285156 C 397.445312 593.253906 397.070312 594.414062 396.65625 595.679688 L 394.433594 600.527344 Z M 373.21875 520.324219 C 373.199219 520.359375 373.179688 520.390625 373.167969 520.421875 L 372.773438 521.019531 L 372.464844 521.667969 C 372.058594 522.453125 371.804688 523.289062 371.550781 524.097656 L 371.507812 524.238281 C 371.0625 525.824219 370.730469 527.46875 370.53125 529.140625 C 370.210938 531.78125 370.292969 534.222656 370.730469 536.042969 C 370.007812 534.289062 369.679688 531.78125 369.816406 529.078125 C 369.902344 527.367188 370.132812 525.65625 370.519531 523.996094 C 370.742188 523.0625 370.984375 522.148438 371.414062 521.210938 L 372.105469 519.835938 C 372.34375 519.390625 372.628906 519.003906 372.976562 518.523438 C 375.230469 515.5 378.679688 512.9375 383.816406 510.445312 C 387.738281 508.589844 392.339844 506.695312 396.789062 506.644531 C 400.53125 506.550781 404.382812 507.664062 407.367188 509.71875 C 409.320312 511.039062 410.996094 512.589844 412.492188 514.457031 C 411.25 513.332031 409.457031 511.746094 406.992188 510.351562 C 403.980469 508.570312 400.371094 507.703125 396.851562 507.90625 C 393.042969 508.039062 389.140625 509.527344 384.457031 511.726562 C 379.53125 514.113281 376.105469 516.582031 373.976562 519.273438 C 373.703125 519.621094 373.414062 519.984375 373.21875 520.324219 Z M 422.824219 555.832031 L 423.300781 556.710938 C 423.464844 557.015625 423.636719 557.324219 423.816406 557.648438 L 425.113281 559.746094 C 425.207031 559.890625 425.289062 560.027344 425.40625 560.207031 L 425.894531 560.828125 C 426.191406 561.207031 426.5 561.558594 426.796875 561.90625 L 427.007812 562.144531 C 428.144531 563.421875 429.386719 564.863281 430.105469 566.039062 C 429.457031 565.363281 428.554688 564.539062 427.4375 563.519531 L 426.390625 562.5625 C 426.015625 562.207031 425.625 561.835938 425.242188 561.421875 L 425.007812 561.171875 C 424.882812 561.042969 424.746094 560.910156 424.582031 560.703125 L 423.753906 559.539062 C 423.464844 559.136719 423.164062 558.714844 422.878906 558.320312 L 422.605469 557.871094 C 422.320312 557.394531 422.035156 556.917969 421.726562 556.417969 C 421.375 555.867188 421.082031 555.289062 420.78125 554.664062 L 420.671875 554.4375 C 420.5625 554.199219 420.433594 553.960938 420.3125 553.726562 C 420.078125 553.269531 419.835938 552.800781 419.667969 552.300781 L 418.996094 550.566406 L 418.773438 549.933594 C 418.574219 549.140625 418.375 548.328125 418.167969 547.492188 C 417.972656 546.824219 417.871094 546.03125 417.777344 545.269531 L 417.746094 545.050781 C 417.722656 544.761719 417.6875 544.464844 417.644531 544.175781 C 417.570312 543.621094 417.503906 543.085938 417.511719 542.558594 L 417.496094 541.707031 C 417.484375 541.183594 417.472656 540.664062 417.480469 540.15625 C 417.484375 539.589844 417.523438 539.03125 417.566406 538.480469 L 417.613281 537.902344 C 417.816406 534.964844 418.371094 532.394531 418.875 530.226562 C 419.414062 528.058594 419.886719 526.507812 420.246094 525.449219 C 420.085938 526.890625 419.808594 528.855469 419.589844 530.351562 L 419.460938 531.34375 C 419.207031 533.316406 418.917969 535.535156 418.851562 538 C 418.847656 538.292969 418.832031 538.574219 418.820312 538.863281 C 418.808594 539.296875 418.789062 539.746094 418.808594 540.195312 C 418.84375 540.929688 418.875 541.683594 418.90625 542.414062 C 418.90625 542.972656 418.980469 543.511719 419.054688 544.035156 C 419.097656 544.265625 419.132812 544.519531 419.160156 544.761719 L 419.203125 545.144531 C 419.292969 545.792969 419.367188 546.460938 419.566406 547.179688 L 420.175781 549.660156 C 420.316406 550.039062 420.457031 550.414062 420.585938 550.792969 L 420.9375 551.730469 C 421.09375 552.222656 421.3125 552.675781 421.527344 553.113281 C 421.636719 553.351562 421.757812 553.59375 421.863281 553.839844 C 422.160156 554.503906 422.464844 555.203125 422.824219 555.832031 Z M 386.460938 552.511719 L 387.046875 552.929688 C 387.46875 553.21875 387.890625 553.519531 388.285156 553.835938 L 390.121094 555.433594 C 390.519531 555.746094 390.878906 556.136719 391.265625 556.550781 C 391.460938 556.765625 391.660156 556.980469 391.859375 557.175781 L 392.113281 557.453125 C 392.605469 557.984375 393.117188 558.527344 393.492188 559.089844 C 393.839844 559.554688 394.179688 560.015625 394.523438 560.46875 L 394.953125 561.058594 L 396.21875 563.308594 C 396.472656 563.730469 396.667969 564.183594 396.863281 564.625 C 396.988281 564.90625 397.105469 565.175781 397.226562 565.429688 C 397.527344 566.105469 397.839844 566.800781 398.074219 567.53125 C 398.21875 567.933594 398.355469 568.34375 398.492188 568.734375 L 398.785156 569.589844 C 398.898438 570.003906 399.003906 570.40625 399.105469 570.804688 L 399.523438 572.417969 C 399.578125 572.707031 399.601562 572.894531 399.617188 573.070312 L 399.667969 573.417969 C 399.738281 573.980469 399.777344 574.515625 399.808594 575.03125 L 399.875 576.453125 C 399.941406 577.941406 399.996094 579.140625 400.101562 580.058594 C 399.710938 578.9375 399.410156 577.304688 399.09375 575.226562 L 399.035156 574.878906 C 398.964844 574.445312 398.890625 574 398.792969 573.546875 L 398.3125 571.804688 C 398.117188 571.234375 397.925781 570.625 397.726562 570.027344 L 396.914062 568 C 396.707031 567.433594 396.433594 566.871094 396.167969 566.296875 L 396.007812 565.957031 C 395.886719 565.730469 395.785156 565.496094 395.667969 565.265625 C 395.460938 564.816406 395.25 564.355469 394.976562 563.933594 L 394.910156 563.8125 C 394.5625 563.21875 394.21875 562.605469 393.820312 561.945312 L 392.355469 559.976562 C 391.941406 559.359375 391.492188 558.882812 391.058594 558.421875 L 390.738281 558.089844 C 390.5625 557.898438 390.386719 557.707031 390.222656 557.519531 C 389.882812 557.132812 389.539062 556.742188 389.121094 556.402344 C 388.792969 556.109375 388.46875 555.8125 388.152344 555.519531 L 387.445312 554.886719 C 387.113281 554.585938 386.753906 554.3125 386.402344 554.046875 C 386.183594 553.875 385.957031 553.707031 385.734375 553.523438 C 383.753906 551.972656 381.828125 550.746094 380.132812 549.660156 L 379.40625 549.199219 C 378.117188 548.410156 376.425781 547.382812 375.21875 546.578125 C 376.257812 546.972656 377.746094 547.609375 379.738281 548.574219 C 381.734375 549.574219 384.050781 550.785156 386.460938 552.511719 Z M 405.574219 526.894531 C 406.15625 529.3125 405.640625 531.929688 404.089844 534.351562 C 402.382812 537 399.660156 538.910156 396.8125 539.464844 C 393.988281 540.003906 391.078125 539.367188 388.828125 537.714844 C 386.734375 536.1875 385.417969 533.917969 385.113281 531.320312 C 384.671875 527.453125 385.523438 523.871094 387.453125 521.53125 C 388.898438 519.769531 390.871094 518.785156 393.304688 518.589844 L 393.730469 518.558594 C 398.476562 518.554688 404.355469 521.746094 405.574219 526.894531 Z M 479.46875 579.667969 C 480.699219 580.890625 481.546875 582.609375 481.859375 584.484375 L 481.976562 585.191406 L 479.890625 585.535156 C 477.695312 585.894531 475.617188 586.230469 473.746094 586.742188 C 472.933594 586.898438 472.117188 587.171875 471.324219 587.429688 C 470.949219 587.554688 470.574219 587.683594 470.175781 587.804688 C 469.0625 588.210938 467.980469 588.605469 466.921875 588.996094 C 464.753906 589.765625 462.710938 590.507812 460.839844 591.230469 L 459.925781 591.574219 C 458.386719 592.148438 456.925781 592.691406 455.640625 593.265625 L 454.675781 593.671875 C 453.492188 594.164062 452.414062 594.617188 451.398438 595.027344 L 449.265625 596.109375 C 449.441406 595.992188 449.621094 595.871094 449.808594 595.753906 L 451.210938 594.828125 L 452.496094 594.171875 C 453.378906 593.722656 454.347656 593.234375 455.386719 592.707031 C 456.851562 591.925781 458.519531 591.214844 460.28125 590.460938 L 460.496094 590.371094 C 462.410156 589.539062 464.425781 588.707031 466.476562 587.90625 C 466.980469 587.710938 467.46875 587.515625 467.96875 587.316406 C 468.550781 587.089844 469.148438 586.847656 469.777344 586.613281 C 470.121094 586.492188 470.464844 586.375 470.808594 586.253906 C 471.59375 585.972656 472.402344 585.683594 473.320312 585.476562 C 473.945312 585.316406 474.574219 585.144531 475.203125 584.992188 C 475.699219 584.882812 476.183594 584.785156 476.671875 584.691406 L 477.136719 584.601562 C 477.957031 584.414062 478.828125 584.273438 479.710938 584.136719 L 480.316406 584.046875 L 480.121094 583.476562 C 479.746094 582.34375 479.167969 581.402344 478.421875 580.671875 C 476.867188 579.054688 474.441406 577.960938 471.027344 577.328125 C 469.078125 576.957031 467.09375 576.851562 465.164062 576.742188 C 464.457031 576.710938 463.761719 576.667969 463.058594 576.613281 L 461.898438 576.539062 C 459.742188 576.410156 457.71875 576.28125 455.753906 575.914062 C 455.160156 575.820312 454.558594 575.730469 453.988281 575.640625 C 452.347656 575.394531 450.808594 575.167969 449.429688 574.730469 L 446.738281 574 C 445.875 573.761719 445.058594 573.539062 444.351562 573.351562 C 443.046875 572.847656 441.917969 572.402344 440.976562 572.015625 C 441.949219 572.28125 443.109375 572.609375 444.449219 573.003906 C 445.585938 573.230469 446.847656 573.476562 448.214844 573.75 L 449.542969 574.019531 C 450.875 574.351562 452.292969 574.5 453.796875 574.660156 C 454.453125 574.734375 455.128906 574.800781 455.800781 574.894531 C 457.574219 575.171875 459.480469 575.242188 461.496094 575.308594 L 463.121094 575.371094 C 463.734375 575.40625 464.359375 575.417969 464.996094 575.441406 C 467.007812 575.5 469.085938 575.566406 471.265625 575.960938 C 473.984375 576.429688 477.082031 577.25 479.46875 579.667969 Z M 398.472656 502.871094 C 386.859375 501.902344 375.472656 511.097656 368.671875 520.046875 C 368.628906 520.105469 368.574219 520.15625 368.523438 520.207031 L 368.429688 520.328125 C 361.417969 531.078125 362.773438 543.296875 371.902344 551.371094 C 374.640625 553.785156 377.738281 555.765625 380.738281 557.675781 C 384.976562 560.390625 389.363281 563.1875 392.65625 567.21875 C 398.429688 574.292969 396.246094 583.859375 393.023438 593.140625 C 391.246094 598.242188 388.574219 603.0625 384.601562 608.308594 C 384.011719 609.097656 383.375 609.894531 382.742188 610.714844 C 378.609375 615.984375 373.914062 621.960938 375.121094 629.09375 C 375.808594 633.191406 378.300781 637.304688 380.71875 641.285156 C 381.851562 643.136719 382.914062 644.894531 383.753906 646.578125 C 385.554688 650.210938 387.300781 653.949219 388.992188 657.5625 C 390.808594 661.449219 392.6875 665.46875 394.636719 669.367188 C 402.875 685.941406 409.78125 699.449219 416.351562 711.878906 C 419.546875 717.925781 423.828125 725.882812 428.484375 733.800781 C 429.878906 736.160156 431.09375 738.492188 432.484375 741.273438 C 435.511719 747.378906 437.890625 751.132812 439.570312 752.410156 L 440.046875 752.777344 L 440.328125 752.242188 C 440.96875 751.015625 439.425781 747.925781 436.140625 742.285156 C 435.445312 741.085938 434.839844 740.050781 434.675781 739.644531 C 433.53125 736.90625 432.210938 734.210938 430.929688 731.601562 C 430.242188 730.199219 429.554688 728.785156 428.886719 727.375 C 426.390625 722.039062 424.15625 716.453125 421.996094 711.054688 C 420.625 707.632812 419.21875 704.101562 417.75 700.660156 C 414.148438 692.269531 410.1875 683.433594 405.296875 672.851562 C 404.046875 670.132812 402.679688 667.417969 401.359375 664.789062 C 399.847656 661.761719 398.273438 658.628906 396.867188 655.480469 C 396.800781 655.339844 396.703125 655.140625 396.585938 654.878906 C 396.132812 653.929688 395.390625 652.335938 394.714844 650.527344 C 392.859375 647.1875 391.894531 644.832031 391.644531 643.800781 C 391.902344 644.050781 392.3125 644.488281 392.90625 645.269531 L 393.546875 646.105469 L 393.808594 645.089844 C 393.957031 644.515625 394.316406 643.757812 395.769531 643.789062 L 396.714844 643.800781 L 396.210938 643.003906 C 395.570312 641.996094 394.875 640.734375 394.152344 639.261719 L 392.953125 636.847656 C 392.480469 635.777344 392.050781 635.007812 391.617188 634.390625 C 391.011719 633.578125 390.355469 633.152344 389.886719 633.222656 C 389.636719 633.226562 389.335938 633.335938 388.847656 633.640625 C 388.8125 633.667969 388.753906 633.707031 388.707031 633.746094 C 388.59375 633.828125 388.5 633.894531 388.433594 633.980469 C 388.402344 634.019531 388.347656 634.0625 388.304688 634.109375 C 388.203125 634.207031 388.078125 634.355469 388.015625 634.449219 C 387.726562 634.871094 387.554688 635.613281 387.617188 636.273438 C 387.667969 636.84375 387.800781 637.488281 388.035156 638.257812 C 388.183594 638.71875 388.339844 639.148438 388.476562 639.546875 C 388.683594 640.125 388.867188 640.640625 388.988281 641.070312 C 388.597656 640.535156 387.988281 639.695312 387.375 638.546875 C 387.070312 637.929688 386.765625 637.242188 386.613281 636.410156 C 386.484375 635.710938 386.398438 634.664062 387.101562 633.582031 C 387.226562 633.398438 387.300781 633.320312 387.375 633.234375 C 387.429688 633.175781 387.480469 633.113281 387.535156 633.054688 C 387.695312 632.871094 387.816406 632.773438 387.945312 632.675781 L 388.125 632.519531 C 388.585938 632.199219 389.058594 631.902344 389.734375 631.84375 C 390.324219 631.777344 391.015625 631.964844 391.550781 632.324219 C 392.117188 632.707031 392.5 633.175781 392.769531 633.535156 C 393.417969 634.4375 393.824219 635.324219 394.210938 636.226562 C 394.503906 636.933594 394.796875 637.617188 395.085938 638.277344 L 395.285156 638.75 C 395.9375 640.355469 396.535156 641.789062 397.019531 642.921875 C 397.261719 643.582031 397.539062 644.171875 397.777344 644.695312 C 397.957031 645.082031 398.117188 645.429688 398.226562 645.734375 L 398.238281 645.871094 L 398.65625 646.449219 C 400.3125 648.675781 401.558594 651.164062 402.792969 653.726562 L 418.878906 687.265625 C 421.542969 692.808594 424.207031 698.347656 426.882812 703.886719 C 429.554688 709.429688 432.222656 714.964844 434.886719 720.503906 C 437.582031 726.117188 440.277344 731.730469 442.953125 737.328125 C 442.984375 737.398438 443.074219 737.597656 443.207031 737.894531 C 447.933594 748.585938 448.582031 748.589844 449.101562 748.59375 C 449.355469 748.601562 449.558594 748.472656 449.6875 748.214844 C 450.261719 747.007812 448.789062 744.113281 446.054688 739.523438 C 445.675781 738.894531 445.382812 738.394531 445.238281 738.125 C 445 737.660156 444.761719 737.210938 444.53125 736.757812 C 444 735.765625 443.5 734.816406 443.03125 733.796875 C 442.746094 733.179688 442.457031 732.566406 442.175781 731.9375 L 437.617188 721.984375 C 432.9375 711.742188 428.25 701.492188 423.5625 691.253906 C 421.109375 685.878906 418.660156 680.5 416.210938 675.121094 C 411.40625 664.542969 406.433594 653.609375 401.457031 642.886719 L 401.007812 641.933594 C 400.914062 641.730469 400.886719 641.523438 400.90625 641.3125 L 400.921875 641.175781 L 400.871094 641.054688 C 399.683594 638.273438 399.296875 636.617188 399.246094 635.9375 C 399.707031 636.367188 400.570312 637.527344 401.714844 639.652344 L 401.9375 640.0625 L 402.367188 639.871094 C 402.90625 639.640625 403.523438 639.488281 404.0625 639.460938 L 404.945312 639.410156 L 404.46875 638.675781 C 403.898438 637.789062 403.300781 636.867188 402.691406 635.847656 C 402.40625 635.40625 402.136719 634.949219 401.886719 634.503906 C 401.417969 633.683594 400.964844 632.910156 400.484375 632.402344 C 399.847656 631.644531 399.015625 630.90625 398.433594 630.5625 L 398.457031 630.410156 L 397.710938 630.128906 L 397.53125 630.347656 C 397.527344 630.351562 397.523438 630.359375 397.511719 630.363281 L 397.414062 630.371094 L 397.394531 630.488281 C 397.359375 630.550781 397.320312 630.617188 397.296875 630.707031 C 397.210938 630.90625 397.175781 631.125 397.140625 631.3125 C 397.136719 631.386719 397.121094 631.457031 397.097656 631.574219 L 397.066406 631.472656 C 396.988281 631.226562 396.917969 630.996094 396.9375 630.582031 C 396.933594 630.554688 396.941406 630.457031 397.023438 630.238281 C 397.074219 630.101562 397.09375 630.050781 397.230469 629.925781 C 397.433594 629.6875 397.855469 629.636719 398.074219 629.660156 C 399.417969 629.855469 400.300781 630.554688 401.394531 631.535156 C 401.867188 631.960938 402.398438 632.632812 402.742188 633.214844 L 403.007812 633.644531 C 403.3125 634.132812 403.625 634.640625 403.941406 635.128906 C 404.765625 636.5 405.5 637.730469 406.089844 638.875 C 406.398438 639.546875 406.679688 640.1875 406.941406 640.769531 L 407.046875 640.921875 C 407.960938 641.824219 408.753906 642.949219 409.320312 643.777344 C 411.0625 646.296875 412.367188 649.117188 413.625 651.839844 C 414.289062 653.269531 414.972656 654.742188 415.710938 656.167969 C 419.949219 664.347656 424.09375 672.75 428.101562 680.878906 L 437.183594 699.226562 C 442.652344 710.242188 448.296875 721.632812 453.726562 732.902344 C 453.976562 733.425781 454.246094 733.945312 454.503906 734.46875 C 455.117188 735.667969 455.746094 736.917969 456.257812 738.164062 C 456.390625 738.492188 456.617188 739.117188 456.882812 739.835938 C 457.570312 741.71875 458.117188 743.207031 458.417969 743.738281 C 458.601562 744.054688 459.082031 744.910156 459.753906 744.679688 C 460.578125 744.414062 460.441406 742.800781 460.378906 742.316406 C 460.089844 740.222656 458.585938 737.414062 457.265625 734.929688 C 456.5 733.488281 455.769531 732.125 455.363281 731.066406 L 454.570312 729.03125 C 453.824219 727.117188 453.046875 725.140625 452.210938 723.226562 C 448.363281 714.472656 444.144531 705.71875 440.0625 697.253906 C 438.453125 693.925781 436.855469 690.601562 435.269531 687.265625 C 431.785156 679.945312 428.332031 672.601562 424.886719 665.261719 C 422.960938 661.164062 421.035156 657.066406 419.105469 652.964844 L 418.328125 651.316406 C 416.878906 648.210938 415.375 644.988281 413.636719 641.871094 C 412.652344 640.585938 411.589844 638.894531 410.636719 637.105469 C 408.917969 633.796875 408.277344 631.019531 408.257812 629.953125 C 408.992188 630.832031 410.394531 633.527344 411.195312 635.070312 L 411.707031 636.0625 L 412.117188 635.023438 C 412.355469 634.4375 412.6875 634.050781 413.109375 633.878906 C 413.746094 633.613281 414.539062 633.847656 415.097656 634.085938 L 416.292969 634.609375 L 415.554688 632.957031 C 415.050781 631.824219 414.53125 630.652344 413.9375 629.484375 C 413.695312 628.953125 413.402344 628.488281 413.105469 628.046875 C 412.945312 627.785156 412.785156 627.539062 412.644531 627.273438 C 412.5 627.027344 412.328125 626.816406 412.152344 626.625 C 412.066406 626.519531 411.984375 626.425781 411.882812 626.285156 C 411.710938 626.085938 411.550781 625.875 411.394531 625.664062 L 411.222656 625.457031 C 409.9375 624.167969 408.734375 624.117188 408.042969 624.492188 C 407.269531 624.898438 406.964844 625.886719 406.933594 626.675781 C 406.847656 626.441406 406.75 626.066406 406.777344 625.542969 C 406.808594 625.171875 406.953125 624.476562 407.5625 623.957031 C 408.070312 623.488281 408.9375 623.253906 409.730469 623.378906 C 410.125 623.441406 410.511719 623.5625 410.90625 623.753906 C 411.113281 623.871094 411.339844 624.011719 411.511719 624.109375 L 411.941406 624.441406 C 412.214844 624.6875 412.394531 624.882812 412.574219 625.078125 L 412.878906 625.398438 C 412.980469 625.523438 413.101562 625.648438 413.210938 625.777344 C 413.398438 625.976562 413.59375 626.179688 413.734375 626.398438 C 413.890625 626.652344 414.058594 626.902344 414.222656 627.15625 C 414.578125 627.671875 414.933594 628.207031 415.1875 628.78125 C 416.558594 631.433594 417.367188 633.980469 417.976562 636.128906 L 418.089844 636.332031 C 418.355469 636.621094 418.59375 636.925781 418.730469 637.160156 C 420.234375 639.792969 421.402344 642.785156 422.535156 645.695312 C 423.316406 647.703125 424.121094 649.78125 425.042969 651.714844 C 427.660156 657.226562 430.511719 662.730469 433.277344 668.042969 L 438.140625 677.410156 C 442.589844 685.957031 447.199219 694.792969 451.660156 703.523438 C 452.558594 705.277344 453.472656 707.039062 454.386719 708.8125 C 456.363281 712.617188 458.402344 716.550781 460.296875 720.429688 C 461.464844 722.816406 462.820312 726.183594 464.253906 729.75 C 465.957031 733.976562 467.722656 738.351562 469.246094 741.226562 L 469.441406 741.605469 L 469.847656 741.472656 C 470.011719 741.421875 470.238281 741.285156 470.382812 740.972656 C 471.140625 739.1875 467.550781 730.363281 458.730469 712.359375 C 458.316406 711.503906 458.019531 710.902344 457.886719 710.636719 L 421.773438 633.625 L 421.28125 632.570312 L 420.8125 632.789062 L 421.21875 632.453125 C 421.0625 632.105469 421.113281 631.742188 421.371094 631.332031 C 422.003906 630.375 423.640625 629.601562 424.945312 629.644531 L 425.773438 629.671875 L 425.429688 628.925781 C 425.097656 628.210938 424.710938 627.519531 424.296875 626.785156 C 423.988281 626.253906 423.675781 625.695312 423.386719 625.117188 C 423.164062 624.6875 422.925781 624.273438 422.695312 623.875 C 422.546875 623.597656 422.390625 623.324219 422.203125 622.996094 C 422.035156 622.761719 421.867188 622.511719 421.703125 622.269531 C 421.460938 621.890625 421.21875 621.53125 420.988281 621.25 C 420.273438 620.355469 418.957031 619.773438 418.222656 619.964844 C 417.488281 619.980469 416.996094 620.652344 416.933594 621.652344 C 416.832031 621.363281 416.75 621.042969 416.8125 620.582031 C 416.851562 620.210938 417.195312 619.566406 417.816406 619.316406 C 419.113281 618.789062 420.675781 619.210938 421.90625 620.402344 C 422.28125 620.785156 422.574219 621.183594 422.890625 621.613281 C 423.0625 621.839844 423.234375 622.078125 423.382812 622.253906 L 423.695312 622.761719 C 424.027344 623.300781 424.367188 623.855469 424.660156 624.445312 C 426.253906 627.59375 427.121094 630.59375 427.675781 632.519531 C 427.6875 632.625 427.714844 632.722656 427.738281 632.820312 L 427.792969 632.972656 C 428.292969 633.917969 428.738281 634.945312 429.179688 635.933594 C 429.617188 636.957031 430.046875 637.917969 430.476562 638.714844 C 437.851562 652.582031 444.820312 666.824219 450.777344 679.09375 C 451.617188 680.804688 452.679688 683.003906 453.910156 685.554688 C 476.675781 732.578125 479.089844 735.941406 480.167969 735.707031 L 480.511719 735.574219 L 480.617188 735.339844 C 481.113281 734.242188 478.109375 728.394531 470.734375 714.832031 C 468.324219 710.402344 466.234375 706.566406 465.5625 705.0625 C 459.960938 692.476562 454.328125 680.21875 450.046875 670.941406 C 444.46875 658.902344 438.921875 647.085938 434.21875 637.101562 C 434.113281 636.875 433.902344 636.503906 433.644531 636.042969 C 433.089844 635.046875 432.246094 633.550781 431.472656 631.878906 C 431.183594 631.492188 430.84375 631.011719 430.46875 630.457031 C 428.957031 628.265625 427.597656 625.972656 426.4375 623.671875 C 426.261719 623.242188 426.074219 622.820312 425.898438 622.40625 C 425.453125 621.410156 425.039062 620.472656 424.796875 619.527344 C 424.667969 619.046875 424.484375 618.136719 424.640625 617.371094 C 424.71875 616.757812 425.019531 616.140625 425.417969 615.730469 C 426.191406 614.964844 426.914062 614.691406 427.476562 614.546875 L 427.417969 614.597656 C 426.988281 614.980469 426.402344 615.507812 425.992188 616.167969 C 425.984375 616.183594 425.980469 616.191406 425.972656 616.203125 C 425.417969 617.167969 425.679688 618.257812 425.976562 619.097656 C 426.226562 619.808594 426.566406 620.515625 426.917969 621.269531 C 427.191406 621.820312 427.460938 622.398438 427.726562 623.027344 C 428.308594 624.179688 428.863281 625.289062 429.40625 626.371094 L 429.980469 627.523438 L 430.351562 626.289062 C 430.582031 625.523438 431.089844 625.070312 431.964844 624.871094 C 432.207031 624.816406 432.425781 624.785156 432.65625 624.773438 L 433.332031 624.710938 L 433.089844 624.078125 C 432.027344 621.320312 431.640625 619.613281 431.597656 618.878906 C 432.253906 619.570312 433.625 621.699219 435.011719 625.007812 L 435.078125 625.167969 L 435.222656 625.25 C 436.96875 626.300781 437.882812 628.804688 438.765625 631.222656 C 439.085938 632.101562 439.394531 632.941406 439.734375 633.714844 C 443.75 642.601562 448.222656 651.457031 452.542969 660.015625 C 453.542969 661.992188 454.546875 663.972656 455.542969 665.960938 C 457.140625 669.144531 459.601562 674.144531 462.492188 679.992188 C 488.304688 732.28125 488.769531 732.0625 489.632812 731.660156 C 490.539062 731.199219 490.035156 729.109375 468.425781 680.9375 C 465.164062 673.660156 462.34375 667.367188 460.667969 663.550781 C 459.78125 661.507812 458.894531 659.464844 458.007812 657.417969 C 454.183594 648.632812 450.242188 639.539062 445.980469 630.785156 C 445.601562 630.007812 445.144531 629.222656 444.667969 628.390625 C 443.382812 626.183594 442.054688 623.898438 442.359375 621.898438 L 442.386719 621.742188 L 442.3125 621.585938 C 440.648438 618.402344 439.894531 615.984375 439.789062 615.035156 C 440.320312 615.542969 441.382812 616.933594 442.824219 619.515625 L 443.148438 620.097656 L 443.621094 619.625 C 443.792969 619.457031 443.964844 619.300781 444.160156 619.15625 C 444.863281 618.617188 445.542969 618.503906 446.296875 618.816406 L 447.492188 619.3125 L 446.957031 618.132812 C 446.460938 617.050781 445.957031 615.90625 445.433594 614.679688 C 445.121094 614.085938 444.84375 613.484375 444.578125 612.910156 C 444.238281 612.175781 443.921875 611.488281 443.550781 610.855469 C 442.835938 609.691406 442.152344 609.140625 441.277344 609.003906 C 440.507812 608.890625 439.738281 609 439.085938 609.101562 C 439.585938 608.738281 440.253906 608.378906 441.308594 608.28125 C 441.886719 608.226562 442.570312 608.398438 443.105469 608.726562 C 443.582031 609 444.132812 609.539062 444.628906 610.226562 C 445.207031 611.035156 445.683594 611.980469 446.1875 612.984375 C 446.375 613.359375 446.566406 613.742188 446.753906 614.101562 C 447.796875 616.515625 448.683594 619.035156 449.40625 621.578125 C 449.59375 622.226562 449.75 622.785156 449.894531 623.363281 C 450.628906 624.859375 451.203125 626.363281 451.625 627.460938 C 451.84375 628.023438 452.011719 628.460938 452.132812 628.714844 C 458.292969 641.933594 463.351562 652.675781 468.03125 662.503906 C 474.28125 675.683594 479.464844 686.40625 484.339844 696.253906 C 485.046875 697.671875 486.675781 701.332031 488.5625 705.554688 C 497.734375 726.109375 498.386719 726.917969 499.101562 726.886719 L 499.390625 726.863281 L 499.527344 726.628906 C 499.902344 725.972656 498.144531 721.476562 479.910156 681.648438 C 477.402344 676.175781 475.226562 671.414062 473.8125 668.289062 C 467.53125 654.367188 461.421875 640.726562 455.765625 626.859375 C 455.425781 626.03125 454.972656 625.117188 454.488281 624.144531 C 453.992188 623.152344 453.484375 622.125 453.054688 621.117188 L 452.964844 620.972656 C 452.921875 620.921875 452.882812 620.863281 452.832031 620.789062 C 451.347656 618.648438 449.800781 616.253906 448.496094 613.257812 C 448.222656 612.632812 448 611.984375 447.785156 611.355469 L 447.640625 610.949219 C 447.582031 610.652344 447.515625 610.375 447.453125 610.097656 C 447.328125 609.578125 447.207031 609.085938 447.152344 608.578125 C 447.027344 606.820312 447.6875 605.382812 448.925781 604.71875 C 449.46875 604.425781 450.1875 604.519531 450.574219 604.785156 C 450.964844 605.011719 451.152344 605.3125 451.285156 605.542969 C 450.480469 604.945312 449.640625 604.910156 449.253906 605.375 C 448.554688 605.890625 448.167969 607.246094 448.386719 608.398438 C 448.449219 608.734375 448.5625 609.113281 448.683594 609.503906 C 448.78125 609.816406 448.882812 610.132812 448.972656 610.515625 C 449.089844 610.792969 449.191406 611.078125 449.300781 611.363281 C 449.46875 611.808594 449.636719 612.261719 449.835938 612.71875 C 450.472656 614.191406 451.148438 615.582031 451.65625 616.628906 L 452.027344 617.355469 L 452.519531 616.710938 C 453.335938 615.65625 455.113281 614.84375 456.320312 614.980469 C 456.792969 615.03125 457.105469 615.222656 457.261719 615.539062 L 457.441406 615.835938 C 457.625 615.996094 457.746094 616.25 457.765625 616.546875 L 493.929688 693.726562 C 494.074219 694.03125 494.390625 694.757812 494.847656 695.78125 C 502.707031 713.554688 506.84375 721.382812 508.675781 721.929688 C 509.003906 722.027344 509.257812 721.9375 509.40625 721.839844 L 509.757812 721.609375 L 509.601562 721.214844 C 508.378906 718.222656 506.234375 714.363281 504.164062 710.640625 C 502.390625 707.445312 500.714844 704.429688 499.617188 701.980469 C 497.566406 697.417969 495.558594 692.695312 493.609375 688.125 L 492.089844 684.554688 C 487.660156 674.207031 483.226562 663.660156 478.9375 653.460938 L 477.019531 648.890625 C 474.625 643.167969 472.058594 637.078125 469.234375 630.984375 C 468.320312 629.019531 467.226562 627.042969 466.164062 625.128906 C 464.667969 622.433594 463.128906 619.640625 462.070312 616.8125 C 461.972656 616.582031 461.886719 616.222656 461.832031 615.8125 L 461.753906 615.59375 C 460.585938 613.894531 459.101562 611.582031 457.878906 608.730469 C 457.601562 608.160156 457.414062 607.511719 457.230469 606.890625 C 457.152344 606.628906 457.082031 606.367188 456.992188 606.09375 C 456.90625 605.863281 456.871094 605.574219 456.832031 605.277344 C 456.8125 605.117188 456.789062 604.96875 456.773438 604.847656 C 456.75 604.667969 456.726562 604.519531 456.707031 604.359375 C 456.671875 604.101562 456.636719 603.84375 456.617188 603.539062 L 456.652344 602.925781 C 456.6875 602.691406 456.71875 602.460938 456.75 602.277344 C 456.851562 601.859375 457.042969 601.464844 457.21875 601.109375 C 457.640625 600.40625 458.359375 599.890625 459.0625 599.800781 C 459.847656 599.664062 460.46875 600.003906 460.761719 600.210938 C 461.171875 600.519531 461.398438 600.8125 461.527344 601.035156 C 461.070312 600.710938 460.082031 600.132812 459.164062 600.519531 C 458.453125 600.796875 457.691406 601.773438 457.878906 603.613281 C 457.914062 603.789062 457.953125 603.976562 457.984375 604.160156 L 458.089844 604.652344 C 458.125 604.78125 458.140625 604.910156 458.164062 605.042969 C 458.207031 605.308594 458.253906 605.5625 458.355469 605.832031 C 458.464844 606.117188 458.558594 606.398438 458.652344 606.699219 C 458.808594 607.195312 458.976562 607.714844 459.21875 608.21875 C 459.84375 609.652344 460.519531 611.011719 461.101562 612.152344 L 461.679688 613.300781 L 462.039062 612.070312 C 462.207031 611.488281 462.535156 610.730469 463.152344 610.40625 C 463.546875 610.195312 464.058594 610.1875 464.648438 610.386719 L 465.703125 610.738281 L 465.277344 609.707031 C 464.464844 607.769531 463.40625 605.226562 463.214844 604.171875 C 464.011719 604.859375 465.746094 607.121094 467.195312 610.570312 C 467.960938 612.441406 468.578125 614.347656 468.957031 616.003906 C 470.226562 619.265625 471.742188 622.476562 473.203125 625.582031 L 473.984375 627.222656 C 475.921875 631.382812 477.871094 635.550781 479.816406 639.707031 C 483.226562 646.996094 486.648438 654.285156 490.015625 661.597656 C 491.640625 665.101562 493.25 668.621094 494.855469 672.140625 C 498.683594 680.535156 502.644531 689.210938 506.84375 697.601562 C 507.84375 699.625 508.96875 701.636719 510.054688 703.574219 L 510.859375 705.027344 C 511.277344 705.789062 511.75 706.734375 512.261719 707.761719 C 513.632812 710.492188 515.324219 713.898438 516.949219 715.667969 C 517.285156 716.023438 518.410156 717.160156 519.15625 716.707031 C 519.777344 716.332031 519.429688 715.417969 519.300781 715.066406 C 519.109375 714.570312 518.429688 713.710938 517.332031 712.367188 C 516.652344 711.523438 515.949219 710.660156 515.742188 710.269531 C 515.132812 709.128906 514.601562 707.914062 514.09375 706.742188 C 513.832031 706.144531 513.574219 705.542969 513.296875 704.953125 C 508.136719 693.628906 503.007812 682.058594 498.058594 670.863281 L 488.714844 649.796875 C 485.359375 642.234375 481.878906 634.417969 478.609375 626.675781 C 477.988281 625.191406 477.289062 623.714844 476.613281 622.289062 C 475.328125 619.578125 473.996094 616.777344 473.164062 613.839844 C 472.898438 612.867188 472.53125 611.53125 472.425781 610.257812 L 472.375 610.074219 C 472.089844 609.503906 471.78125 608.878906 471.472656 608.234375 C 470.964844 606.996094 470.449219 605.546875 469.972656 604.160156 L 469.25 602.003906 C 469.035156 601.410156 468.859375 600.566406 468.832031 599.910156 C 468.78125 598.4375 468.816406 597.351562 469.488281 596.167969 C 469.621094 595.988281 469.921875 595.675781 470.332031 595.675781 C 470.445312 595.65625 470.515625 595.675781 470.726562 595.753906 C 470.855469 595.789062 470.917969 595.855469 470.992188 595.914062 C 471.273438 596.113281 471.398438 596.3125 471.53125 596.527344 C 471.558594 596.5625 471.578125 596.601562 471.597656 596.632812 C 471.597656 596.621094 471.589844 596.617188 471.582031 596.613281 C 471.515625 596.582031 471.441406 596.539062 471.359375 596.492188 C 471.175781 596.378906 470.96875 596.257812 470.855469 596.25 C 470.742188 596.191406 470.628906 596.164062 470.535156 596.167969 L 470.410156 596.101562 L 470.34375 596.183594 L 470.0625 596.179688 L 469.859375 596.941406 L 469.972656 597.015625 C 469.875 597.683594 469.910156 598.785156 470.070312 599.734375 C 470.148438 600.476562 470.472656 601.332031 470.816406 602.234375 C 470.988281 602.699219 471.167969 603.179688 471.328125 603.675781 C 471.699219 604.777344 472.035156 605.824219 472.347656 606.839844 L 472.601562 607.671875 L 473.199219 607.035156 C 473.59375 606.621094 474.09375 606.246094 474.613281 605.996094 L 475.039062 605.78125 L 474.855469 605.347656 C 473.941406 603.078125 473.636719 601.699219 473.585938 601.085938 C 474.09375 601.558594 475.109375 602.914062 476.476562 605.59375 L 476.535156 605.714844 L 476.648438 605.789062 C 476.828125 605.90625 476.964844 606.066406 477.0625 606.265625 L 477.4375 607.050781 L 477.523438 607.203125 C 482.714844 618.1875 488.089844 629.296875 493.289062 640.046875 C 495.710938 645.082031 498.148438 650.105469 500.566406 655.136719 C 505.632812 665.664062 510.707031 676.203125 515.753906 686.730469 L 517.121094 689.570312 C 518.066406 691.527344 519.007812 693.480469 519.949219 695.464844 L 520.84375 697.308594 C 521.300781 698.277344 521.699219 699.25 522.101562 700.234375 C 522.316406 700.742188 522.523438 701.253906 522.742188 701.765625 L 522.835938 701.976562 C 526.496094 710.660156 527.945312 711.921875 528.71875 712.121094 C 528.976562 712.183594 529.234375 712.105469 529.382812 711.90625 C 529.773438 711.386719 529.636719 710.363281 524.3125 700.808594 C 523.921875 700.105469 523.65625 699.621094 523.59375 699.503906 C 521.226562 694.363281 518.855469 689.183594 516.492188 684.019531 L 515.820312 682.550781 C 513.261719 676.960938 510.710938 671.363281 508.160156 665.769531 C 505.601562 660.171875 503.050781 654.578125 500.496094 648.988281 L 485.003906 615.164062 C 483.875 612.726562 482.710938 610.113281 482.003906 607.238281 C 481.972656 607.101562 481.9375 606.945312 481.894531 606.78125 L 481.800781 606.589844 C 481.636719 606.320312 481.46875 605.96875 481.28125 605.578125 C 481.027344 605.046875 480.738281 604.449219 480.386719 603.851562 C 479.925781 602.914062 479.335938 601.804688 478.675781 600.574219 L 477.027344 597.378906 C 476.597656 596.554688 476.160156 595.640625 475.878906 594.5625 C 475.722656 593.941406 475.679688 593.394531 475.726562 592.832031 C 475.785156 592.207031 476.089844 591.546875 476.535156 591.125 C 477.003906 590.652344 477.542969 590.476562 478.011719 590.351562 L 478.296875 590.296875 C 478.457031 590.257812 478.601562 590.230469 478.824219 590.222656 C 478.925781 590.226562 479.011719 590.21875 479.097656 590.214844 C 479.21875 590.210938 479.316406 590.203125 479.539062 590.230469 C 480.789062 590.378906 481.53125 591.070312 482.035156 591.644531 C 482.5625 592.308594 482.898438 592.980469 483.167969 593.59375 C 483.660156 594.765625 483.914062 595.746094 484.085938 596.46875 C 483.835938 596.105469 483.558594 595.640625 483.25 595.113281 C 483.027344 594.75 482.785156 594.355469 482.527344 593.929688 C 482.183594 593.410156 481.773438 592.816406 481.28125 592.359375 C 480.808594 591.878906 480.136719 591.527344 479.601562 591.488281 C 479.457031 591.457031 479.296875 591.476562 479.167969 591.492188 C 479.101562 591.5 479.042969 591.503906 478.984375 591.507812 C 478.878906 591.5 478.769531 591.53125 478.640625 591.566406 C 478.574219 591.582031 478.511719 591.601562 478.355469 591.628906 C 477.910156 591.796875 477.640625 591.953125 477.507812 592.097656 C 477.113281 592.464844 477.035156 593.238281 477.28125 594.214844 C 477.496094 595.070312 477.898438 595.964844 478.300781 596.796875 L 479.40625 599.269531 C 480.085938 600.835938 480.59375 602.136719 480.960938 603.253906 L 481.25 604.15625 L 481.835938 603.417969 C 482.746094 602.285156 483.566406 602.488281 484.09375 602.746094 L 485.039062 603.191406 L 484.804688 602.164062 C 484.582031 601.210938 484.503906 600.617188 484.488281 600.257812 C 485.121094 601.109375 486.324219 603.367188 487.730469 606.996094 C 488.65625 608.574219 489.394531 610.160156 489.84375 611.105469 C 489.960938 611.378906 490.058594 611.589844 490.128906 611.738281 C 491.699219 614.910156 493.144531 618.214844 494.539062 621.402344 C 495.671875 624.007812 496.855469 626.707031 498.089844 629.324219 C 503.160156 639.972656 507.433594 648.667969 511.53125 656.675781 C 513.253906 660.042969 515.09375 663.429688 516.859375 666.703125 C 519.613281 671.78125 522.457031 677.03125 524.929688 682.324219 C 525.578125 683.714844 526.214844 685.117188 526.839844 686.515625 C 528.039062 689.195312 529.28125 691.964844 530.683594 694.613281 C 530.816406 694.875 531.039062 695.351562 531.332031 695.957031 C 533.949219 701.515625 535.875 705.019531 537.347656 705.335938 L 537.925781 705.457031 L 537.957031 704.859375 C 538.0625 702.65625 536.238281 699.367188 534.777344 696.730469 C 534.199219 695.691406 533.660156 694.703125 533.339844 693.96875 C 531.992188 690.9375 531.003906 688.523438 530.128906 686.121094 C 527.613281 679.125 524.722656 671.703125 521.042969 662.78125 C 515.800781 650.035156 510.003906 636.5 502.230469 618.902344 C 500.507812 614.96875 498.648438 611.007812 496.847656 607.1875 C 495.125 603.515625 493.347656 599.722656 491.679688 595.957031 C 490.914062 594.222656 490.234375 592.265625 489.523438 590.1875 C 488.015625 585.804688 486.453125 581.285156 483.753906 578.136719 C 479.027344 572.65625 471.4375 572.441406 464.742188 572.25 C 463.707031 572.214844 462.691406 572.191406 461.707031 572.136719 C 455.109375 571.835938 449.691406 570.8125 444.652344 568.921875 C 435.453125 565.464844 426.703125 561.035156 424.953125 552.066406 C 423.960938 546.957031 424.609375 541.796875 425.238281 536.8125 C 425.6875 533.273438 426.148438 529.632812 426.042969 525.976562 C 425.503906 507.828125 408.539062 503.707031 398.472656 502.871094 " fill-opacity="1" fill-rule="nonzero"/></g></g></g></g><path fill="#130b09" d="M 515.976562 958.035156 C 516.46875 932.726562 508.339844 958.035156 487.144531 958.035156 C 465.945312 958.035156 485.175781 948.414062 481.96875 945.21875 C 478.765625 942.011719 462.75 945.21875 466.9375 935.601562 C 471.128906 925.984375 456.46875 911.078125 447.839844 919.699219 C 439.21875 928.324219 429.605469 922.164062 432.8125 917.238281 C 436.015625 912.304688 440.203125 921.921875 445.621094 909.109375 C 451.046875 896.292969 448.082031 897.519531 440.445312 901.710938 C 435.183594 904.605469 432.015625 895.296875 427.09375 892.394531 C 424.875 891.085938 422.300781 891.085938 419.015625 894.0625 C 408.417969 903.679688 408.546875 891.71875 412.738281 884.574219 C 416.925781 877.425781 444.898438 884.453125 440.457031 880.261719 C 436.015625 876.070312 421.96875 879.277344 426.410156 872.863281 C 430.851562 866.453125 430.851562 870.644531 438.234375 866.453125 C 445.628906 862.261719 428.621094 864.230469 415.8125 866.453125 C 403.003906 868.671875 401.394531 863.125 408.539062 851.789062 C 415.679688 840.453125 430.839844 849.195312 418.023438 840.824219 C 405.210938 832.441406 416.054688 845.015625 397.816406 846.742188 C 379.582031 848.472656 377.132812 821.617188 389.8125 827.144531 C 408.167969 835.15625 408.417969 830.230469 405.210938 816.421875 C 402.007812 802.621094 389.199219 824.800781 385.007812 810.992188 C 380.820312 797.191406 380.820312 778.941406 391.417969 790.78125 C 402.019531 802.621094 406.207031 782.398438 402.019531 780.175781 C 397.828125 777.957031 388.222656 762.175781 391.417969 762.175781 C 394.625 762.175781 406.449219 754.539062 397.828125 751.332031 C 389.207031 748.125 378.359375 738.757812 386.003906 738.757812 C 393.648438 738.757812 417.046875 733.332031 411.632812 743.933594 C 406.207031 754.539062 413.601562 762.175781 419.027344 756.75 C 424.453125 751.320312 432.578125 740.234375 426.421875 737.269531 C 420.261719 734.316406 410.648438 732.335938 414.835938 722.726562 C 419.027344 713.109375 427.648438 719.28125 435.042969 714.105469 C 442.433594 708.929688 427.40625 681.066406 436.027344 681.066406 C 444.644531 681.066406 442.675781 661.097656 451.054688 665.289062 C 459.433594 669.480469 466.828125 661.589844 469.78125 655.175781 C 472.734375 648.765625 472.496094 644.332031 479.636719 648.03125 C 486.78125 651.730469 488.257812 641.617188 489.746094 637.425781 C 491.230469 633.234375 508.230469 615.738281 500.34375 616.964844 C 492.457031 618.191406 489.011719 613.515625 493.933594 612.03125 C 498.867188 610.550781 514.136719 612.773438 503.296875 629.777344 C 492.457031 646.785156 511.917969 640.382812 516.109375 633.226562 C 520.296875 626.082031 523.503906 629.035156 527.933594 634.703125 C 532.375 640.371094 541.976562 617.699219 544.929688 621.890625 C 547.886719 626.082031 556.265625 612.523438 562.675781 614.742188 C 569.082031 616.964844 571.292969 599.707031 581.894531 604.390625 C 592.492188 609.074219 606.539062 594.773438 610.96875 604.390625 C 615.410156 614.007812 604.066406 599.707031 603.332031 608.332031 C 602.597656 616.953125 608.757812 622.875 615.902344 617.699219 C 623.042969 612.523438 637.089844 615.234375 634.386719 618.933594 C 631.675781 622.632812 657.304688 618.933594 655.828125 626.082031 C 654.351562 633.226562 675.539062 641.117188 675.539062 634.703125 C 675.539062 628.292969 689.835938 630.511719 684.160156 639.636719 C 678.480469 648.765625 668.878906 651.46875 680.710938 655.167969 C 692.539062 658.867188 678.742188 648.019531 694.757812 653.4375 C 710.773438 658.867188 698.453125 675.871094 712.007812 673.648438 C 725.558594 671.429688 730.734375 656.886719 731.96875 668.472656 C 733.207031 680.0625 726.796875 669.457031 724.574219 675.871094 C 722.355469 682.285156 735.175781 684.496094 738.371094 682.285156 C 741.574219 680.0625 746.003906 675.871094 746.988281 686.476562 C 747.976562 697.078125 751.429688 690.917969 763.003906 695.097656 C 774.578125 699.28125 768.429688 712.105469 763.003906 713.097656 C 757.578125 714.085938 792.078125 717.289062 781.238281 726.898438 C 770.398438 736.515625 782.222656 716.296875 770.398438 722.707031 C 758.574219 729.121094 772.367188 736.757812 776.808594 741.933594 C 781.25 747.109375 783.953125 756.476562 772.367188 757.714844 C 760.785156 758.949219 781.238281 753.773438 781.238281 765.351562 C 781.238281 776.941406 779.761719 770.527344 771.382812 770.527344 C 763.003906 770.527344 785.679688 763.132812 781.238281 776.941406 C 776.796875 790.742188 786.90625 785.324219 781.238281 793.945312 C 775.574219 802.570312 788.875 804.792969 781.238281 812.1875 C 773.605469 819.585938 771.753906 816.992188 778.40625 824.390625 C 785.058594 831.789062 786.171875 851.386719 775.574219 846.703125 C 764.972656 842.019531 781.238281 819.585938 769.414062 829.203125 C 757.589844 838.824219 774.589844 847.445312 767.195312 851.636719 C 759.800781 855.828125 749.945312 829.203125 748.960938 846.703125 C 747.976562 864.199219 749.945312 869.871094 745.753906 868.644531 C 741.566406 867.417969 729.980469 864.199219 736.390625 877.027344 C 742.800781 889.839844 740.582031 901.679688 734.171875 899.457031 C 727.761719 897.238281 739.34375 910.304688 718.15625 912.273438 C 696.96875 914.242188 701.890625 916.214844 689.320312 920.65625 C 676.765625 925.128906 515.855469 964.316406 515.976562 958.035156 Z M 515.976562 958.035156 " fill-opacity="1" fill-rule="nonzero"/><g clip-path="url(#b15265535a)"><path fill="#753a28" d="M 622.300781 851.667969 C 622.300781 851.667969 627.726562 921.679688 643.742188 925.128906 C 659.753906 928.574219 738.359375 916.011719 757.339844 917.980469 C 776.316406 919.953125 818.320312 940.292969 825.96875 1004.136719 C 833.019531 1063.09375 818.945312 1089.304688 818.945312 1089.304688 L 582.507812 1089.1875 L 357.308594 1089.296875 C 357.308594 1089.296875 389.480469 1019.433594 425.175781 1001.785156 C 439.007812 994.941406 480.863281 988.226562 491.703125 983.292969 C 502.542969 978.355469 533.589844 949.761719 533.589844 939.167969 C 533.589844 928.566406 518.066406 861.769531 518.066406 861.769531 Z M 622.300781 851.667969 " fill-opacity="1" fill-rule="nonzero"/></g><path fill="#5e2d21" d="M 624.519531 872 C 624.542969 871.980469 624.550781 871.949219 624.570312 871.929688 C 622.984375 860.441406 622.300781 851.65625 622.300781 851.65625 L 518.066406 861.769531 C 518.066406 861.769531 520.617188 872.753906 523.652344 886.535156 C 529.722656 889.730469 535.328125 891.769531 539.253906 892.210938 C 547.886719 893.195312 612.695312 888.019531 624.519531 872 Z M 624.519531 872 " fill-opacity="1" fill-rule="nonzero"/><path fill="#753a28" d="M 493.671875 779.925781 C 493.671875 779.925781 489.484375 800.628906 493.671875 821.828125 C 497.863281 843.023438 490.226562 852.390625 502.050781 864.230469 C 513.878906 876.0625 530.636719 884.695312 539.265625 885.679688 C 547.894531 886.664062 612.695312 881.488281 624.519531 865.46875 C 636.347656 849.445312 636.347656 846.734375 636.347656 846.734375 C 636.347656 846.734375 655.566406 848.460938 660.738281 842.050781 C 665.914062 835.636719 656.550781 683.296875 656.550781 683.296875 L 510.671875 683.296875 Z M 493.671875 779.925781 " fill-opacity="1" fill-rule="nonzero"/><path fill="#070403" d="M 581.148438 724.214844 C 597.09375 721.039062 609.230469 721.441406 618.855469 724.214844 L 633.511719 739.128906 C 622.5 733.089844 590.511719 731.058594 577.332031 736.175781 Z M 581.148438 724.214844 " fill-opacity="1" fill-rule="nonzero"/><path fill="#130b09" d="M 591.496094 691.1875 C 592.480469 702.527344 583.863281 703.511719 581.882812 707.210938 C 579.914062 710.90625 588.042969 712.386719 586.816406 720.515625 C 585.582031 728.648438 576.46875 730.375 581.640625 735.058594 C 586.816406 739.742188 574.5 751.574219 574.007812 741.964844 C 573.515625 732.347656 576.960938 733.089844 579.179688 724.214844 C 581.402344 715.339844 571.785156 711.894531 571.785156 718.296875 C 571.785156 724.707031 580.164062 742.457031 571.785156 739.25 C 563.40625 736.042969 570.058594 736.296875 568.339844 728.648438 C 566.613281 721.007812 552.074219 719.773438 555.773438 727.410156 C 559.46875 735.050781 559.46875 753.292969 555.28125 745.652344 C 551.089844 738.015625 544.1875 739 548.378906 747.382812 C 552.566406 755.765625 537.042969 763.652344 536.058594 754.035156 C 535.074219 744.417969 533.960938 743.070312 532.484375 742.085938 C 531.007812 741.101562 523.492188 731.855469 523.492188 746.15625 C 523.492188 760.449219 517.332031 769.574219 515.363281 763.652344 C 513.394531 757.734375 512.652344 770.558594 508.460938 769.574219 C 504.273438 768.589844 496.144531 765.632812 501.558594 757.746094 C 506.984375 749.855469 491.945312 755.03125 491.703125 750.839844 C 491.453125 746.648438 506.242188 670.472656 506.242188 670.472656 L 668.625 676.886719 C 668.625 676.886719 683.90625 842.050781 668.625 842.542969 C 653.34375 843.035156 644.234375 842.542969 647.929688 835.636719 C 651.628906 828.730469 645.960938 836.621094 644.234375 830.210938 C 642.503906 823.796875 643.25 827.253906 646.453125 819.113281 C 649.65625 810.984375 638.566406 815.667969 640.535156 810.984375 C 642.503906 806.300781 649.40625 797.675781 644.726562 797.675781 C 640.042969 797.675781 631.914062 789.542969 641.027344 784.609375 C 650.140625 779.675781 643.488281 777.464844 635.601562 779.925781 C 627.714844 782.386719 626.984375 776.480469 631.90625 772.78125 C 636.839844 769.082031 638.0625 757.25 633.632812 759.964844 C 629.191406 762.679688 636.585938 746.898438 638.808594 742.46875 C 641.027344 738.035156 632.398438 743.210938 628.699219 738.769531 C 625.003906 734.324219 610.707031 728.65625 613.910156 736.054688 C 617.117188 743.453125 626.722656 742.707031 620.320312 747.644531 C 613.910156 752.578125 625.496094 759.472656 619.085938 766.871094 C 612.675781 774.265625 614.898438 767.363281 616.625 759.472656 C 618.351562 751.582031 614.65625 748.628906 612.6875 744.4375 C 610.71875 740.246094 601.355469 731.863281 606.527344 729.148438 C 611.703125 726.4375 616.382812 721.753906 608.988281 719.039062 C 601.59375 716.324219 608.738281 709.421875 606.527344 705.730469 C 604.308594 702.035156 595.6875 708.195312 595.195312 703.511719 C 594.703125 698.828125 591.496094 691.1875 591.496094 691.1875 Z M 591.496094 691.1875 " fill-opacity="1" fill-rule="nonzero"/><path fill="#5e2d21" d="M 628.769531 958.789062 C 628.320312 959.140625 627.816406 959.441406 627.3125 959.703125 C 626.8125 959.972656 626.289062 960.207031 625.765625 960.425781 C 624.722656 960.867188 623.65625 961.21875 622.582031 961.542969 C 621.507812 961.851562 620.433594 962.125 619.355469 962.367188 C 618.28125 962.605469 617.195312 962.808594 616.101562 962.917969 C 615.007812 963.050781 613.902344 963.089844 612.796875 963.179688 C 611.691406 963.261719 610.597656 963.382812 609.523438 963.601562 C 608.445312 963.824219 607.402344 964.136719 606.375 964.527344 C 605.363281 964.910156 604.378906 965.402344 603.472656 965.964844 C 603.019531 966.246094 602.578125 966.546875 602.167969 966.847656 C 601.964844 967.007812 601.765625 967.160156 601.574219 967.332031 C 601.382812 967.492188 601.203125 967.664062 601.03125 967.824219 C 600.347656 968.496094 599.828125 969.210938 599.664062 969.914062 C 599.644531 970.003906 599.625 970.085938 599.617188 970.175781 L 599.59375 970.304688 C 599.59375 970.347656 599.59375 970.398438 599.59375 970.4375 L 599.574219 970.820312 L 599.546875 971.292969 C 599.523438 971.601562 599.476562 971.902344 599.433594 972.214844 C 599.382812 972.515625 599.324219 972.820312 599.253906 973.121094 C 598.984375 974.316406 598.539062 975.453125 597.996094 976.507812 C 597.457031 977.5625 596.8125 978.546875 596.097656 979.472656 C 595.394531 980.398438 594.632812 981.25 593.808594 982.054688 C 592.996094 982.859375 592.128906 983.601562 591.226562 984.285156 C 590.773438 984.628906 590.3125 984.960938 589.828125 985.261719 C 589.359375 985.574219 588.867188 985.855469 588.351562 986.117188 L 588.164062 985.882812 C 589.5 984.085938 590.804688 982.335938 592.011719 980.558594 C 592.613281 979.671875 593.175781 978.769531 593.707031 977.863281 C 594.230469 976.960938 594.722656 976.046875 595.144531 975.121094 C 595.578125 974.195312 595.949219 973.269531 596.238281 972.335938 C 596.308594 972.105469 596.371094 971.863281 596.429688 971.632812 C 596.480469 971.402344 596.542969 971.160156 596.582031 970.929688 L 596.632812 970.578125 L 596.660156 970.398438 L 596.703125 970.136719 C 596.710938 970.042969 596.730469 969.953125 596.742188 969.863281 L 596.800781 969.59375 C 596.84375 969.410156 596.902344 969.242188 596.964844 969.058594 C 597.214844 968.355469 597.597656 967.742188 598.046875 967.230469 C 598.269531 966.96875 598.511719 966.738281 598.75 966.527344 C 598.871094 966.417969 598.992188 966.316406 599.125 966.226562 C 599.253906 966.125 599.375 966.035156 599.515625 965.953125 C 600.039062 965.601562 600.578125 965.332031 601.121094 965.089844 C 601.664062 964.847656 602.21875 964.65625 602.761719 964.476562 C 603.03125 964.386719 603.3125 964.304688 603.582031 964.226562 C 603.855469 964.15625 604.125 964.074219 604.40625 964.003906 L 606.035156 963.570312 L 607.242188 963.242188 L 607.644531 963.128906 C 608.175781 962.988281 608.707031 962.828125 609.238281 962.667969 C 611.359375 962.035156 613.441406 961.109375 615.570312 960.488281 C 616.632812 960.175781 617.71875 959.945312 618.804688 959.761719 C 619.890625 959.570312 620.976562 959.421875 622.058594 959.269531 C 623.144531 959.128906 624.230469 959 625.316406 958.878906 C 626.398438 958.757812 627.484375 958.636719 628.601562 958.496094 Z M 628.769531 958.789062 " fill-opacity="1" fill-rule="nonzero"/><path fill="#5e2d21" d="M 505.257812 986.015625 C 505.507812 985.90625 505.78125 985.835938 506.039062 985.773438 C 506.300781 985.703125 506.574219 985.652344 506.835938 985.59375 C 507.367188 985.484375 507.898438 985.382812 508.433594 985.300781 C 509.496094 985.121094 510.570312 984.980469 511.636719 984.839844 C 513.777344 984.566406 515.90625 984.367188 518.046875 984.1875 C 522.316406 983.824219 526.578125 983.59375 530.835938 983.414062 C 535.097656 983.222656 539.34375 983.089844 543.585938 982.949219 C 545.707031 982.878906 547.824219 982.789062 549.945312 982.660156 C 551 982.597656 552.066406 982.507812 553.109375 982.398438 C 554.164062 982.277344 555.210938 982.125 556.265625 981.84375 C 555.378906 982.476562 554.355469 982.929688 553.339844 983.332031 C 552.316406 983.734375 551.269531 984.046875 550.214844 984.335938 C 548.105469 984.910156 545.976562 985.3125 543.847656 985.652344 C 541.707031 985.996094 539.566406 986.246094 537.417969 986.4375 C 535.277344 986.636719 533.125 986.769531 530.976562 986.859375 C 526.6875 987.039062 522.386719 987.050781 518.105469 986.890625 C 515.96875 986.808594 513.816406 986.6875 511.675781 986.527344 C 510.601562 986.449219 509.535156 986.355469 508.460938 986.257812 L 506.855469 986.117188 C 506.582031 986.085938 506.320312 986.066406 506.050781 986.054688 C 505.800781 986.023438 505.527344 986.003906 505.257812 986.015625 Z M 505.257812 986.015625 " fill-opacity="1" fill-rule="nonzero"/><path fill="#5e2d21" d="M 711.816406 929.492188 C 710.773438 930.292969 709.675781 930.96875 708.5625 931.609375 C 707.457031 932.253906 706.320312 932.847656 705.1875 933.398438 C 704.039062 933.953125 702.886719 934.476562 701.71875 934.96875 C 700.554688 935.460938 699.367188 935.902344 698.144531 936.246094 C 695.691406 936.9375 693.121094 937.289062 690.71875 938.105469 C 688.308594 938.898438 686.015625 939.992188 683.785156 941.238281 C 683.222656 941.550781 682.671875 941.863281 682.109375 942.164062 L 681.265625 942.617188 C 680.984375 942.757812 680.703125 942.917969 680.410156 943.058594 C 679.277344 943.640625 678.121094 944.144531 676.964844 944.675781 C 674.652344 945.722656 672.34375 946.777344 669.960938 947.632812 C 668.777344 948.0625 667.570312 948.464844 666.355469 948.835938 C 665.148438 949.21875 663.925781 949.570312 662.6875 949.894531 C 661.453125 950.226562 660.21875 950.527344 658.960938 950.789062 C 657.707031 951.050781 656.441406 951.289062 655.144531 951.441406 L 655.011719 951.097656 C 656.078125 950.335938 657.171875 949.660156 658.277344 949.007812 C 659.382812 948.355469 660.507812 947.753906 661.632812 947.160156 C 662.757812 946.578125 663.902344 946.011719 665.058594 945.472656 C 666.203125 944.929688 667.371094 944.414062 668.535156 943.933594 C 670.875 942.957031 673.289062 942.183594 675.699219 941.398438 C 676.90625 941.007812 678.109375 940.605469 679.335938 940.273438 C 679.636719 940.183594 679.949219 940.113281 680.261719 940.023438 L 681.183594 939.792969 C 681.808594 939.632812 682.429688 939.492188 683.042969 939.339844 C 685.535156 938.757812 687.964844 938.023438 690.277344 936.988281 C 692.597656 935.972656 694.746094 934.496094 697.019531 933.359375 C 698.152344 932.785156 699.328125 932.316406 700.523438 931.890625 C 701.71875 931.46875 702.925781 931.066406 704.140625 930.714844 C 705.355469 930.363281 706.59375 930.03125 707.847656 929.761719 C 709.105469 929.5 710.371094 929.257812 711.675781 929.136719 Z M 711.816406 929.492188 " fill-opacity="1" fill-rule="nonzero"/><path fill="#ead9d3" d="M 573.261719 832.933594 L 562.675781 819.867188 L 526.9375 822.078125 L 528.664062 833.917969 Z M 573.261719 832.933594 " fill-opacity="1" fill-rule="nonzero"/><path fill="#681b19" d="M 521.765625 828.25 C 521.765625 828.25 523.492188 814.941406 531.128906 811.976562 C 538.761719 809.023438 543.203125 811.976562 543.203125 811.976562 C 543.203125 811.976562 550.105469 809.515625 553.804688 809.757812 C 564.894531 810.5 576.960938 832.921875 576.960938 832.921875 C 576.960938 832.921875 558.234375 827.003906 554.296875 823.0625 C 549.363281 825.285156 542.21875 824.792969 538.03125 823.554688 C 537.839844 825.375 523.242188 830.613281 521.765625 828.25 Z M 521.765625 828.25 " fill-opacity="1" fill-rule="nonzero"/><path fill="#701c1c" d="M 521.765625 828.25 C 521.765625 828.25 521.765625 840.078125 529.160156 843.285156 C 534.996094 845.816406 551.582031 848.714844 563.40625 842.792969 C 575.230469 836.875 576.960938 832.933594 576.960938 832.933594 C 576.960938 832.933594 558.472656 825.789062 543.203125 831.457031 C 543.203125 831.457031 531.621094 826.027344 521.765625 828.25 Z M 521.765625 828.25 " fill-opacity="1" fill-rule="nonzero"/><g clip-path="url(#e4bc19662d)"><path fill="#5e2d21" d="M 722.445312 1089.296875 L 722.464844 1035.6875 L 711.746094 1089.296875 Z M 722.445312 1089.296875 " fill-opacity="1" fill-rule="nonzero"/></g><g clip-path="url(#baf60f5a53)"><path fill="#5e2d21" d="M 445.679688 1089.296875 L 445.75 1062.550781 L 458.460938 1089.296875 Z M 445.679688 1089.296875 " fill-opacity="1" fill-rule="nonzero"/></g><g clip-path="url(#9232f6aa1b)"><path fill="#5e2d21" d="M 726.65625 919.582031 C 726.65625 919.582031 673.429688 983.914062 666.535156 1054.179688 C 664.707031 1072.761719 554.304688 1078.03125 526.085938 1075.867188 C 471.378906 1071.675781 486.679688 985.03125 486.679688 985.03125 L 476.101562 988.15625 C 476.101562 988.15625 477.617188 1021.855469 480.492188 1035.695312 C 487.144531 1067.738281 484.421875 1078.964844 534.210938 1083.023438 C 594.582031 1087.960938 698.382812 1089.246094 707.476562 1089.304688 C 707.476562 1089.304688 676.390625 1069.113281 677.867188 1046.289062 C 682.058594 981.453125 736.339844 918.644531 736.339844 918.644531 Z M 726.65625 919.582031 " fill-opacity="1" fill-rule="nonzero"/></g><g clip-path="url(#d0050bff99)"><path fill="#ead9d3" d="M 722.464844 922.785156 C 722.464844 922.785156 669.238281 983.925781 662.347656 1054.179688 C 660.519531 1072.761719 609.371094 1050.972656 588.183594 1062.5625 C 566.992188 1074.148438 535.066406 1065.164062 517.957031 1069.957031 C 474.835938 1082.039062 483.726562 986.023438 483.726562 986.023438 L 472.65625 988.898438 C 472.65625 988.898438 474.394531 1021.695312 476.304688 1035.695312 C 482.21875 1079.085938 458.558594 1089.316406 458.558594 1089.316406 L 703.285156 1089.316406 C 703.285156 1089.316406 673.929688 1069.375 675.40625 1046.550781 C 679.597656 981.714844 733.628906 918.664062 733.628906 918.664062 Z M 722.464844 922.785156 " fill-opacity="1" fill-rule="nonzero"/></g><g clip-path="url(#c6ecff3c7d)"><path stroke-linecap="butt" transform="matrix(1.004667, 0, 0, 1.005068, 357.310032, 601.013791)" fill="none" stroke-linejoin="miter" d="M 363.458692 320.148722 C 363.458692 320.148722 310.479363 380.981024 303.620744 450.880651 C 301.801111 469.368976 250.890255 447.689792 229.801169 459.22119 C 208.708196 470.748702 176.930707 461.809634 159.900804 466.578432 C 116.980005 478.599536 125.829334 383.068102 125.829334 383.068102 L 114.810442 385.928604 C 114.810442 385.928604 116.540649 418.56009 118.441933 432.48949 C 124.328525 475.661303 100.778269 485.840181 100.778269 485.840181 L 344.368093 485.840181 C 344.368093 485.840181 315.148978 465.999336 316.618682 443.290216 C 320.790619 378.781236 374.570898 316.04841 374.570898 316.04841 Z M 363.458692 320.148722 " stroke="#ead9d3" stroke-width="0.731" stroke-opacity="1" stroke-miterlimit="10"/></g><path fill="#130b09" d="M 628.710938 859.65625 C 628.710938 859.65625 618.113281 871.878906 618.855469 881.738281 C 619.597656 891.597656 617.125 898.253906 623.789062 900.234375 C 630.4375 902.203125 623.042969 906.394531 623.789062 915.027344 C 624.53125 923.652344 636.164062 917.710938 636.164062 917.710938 C 636.164062 917.710938 624.28125 941.894531 636.113281 940.175781 C 647.941406 938.445312 628.660156 936.375 638.425781 933.84375 C 648.191406 931.308594 661.492188 936.726562 655.09375 940.175781 C 648.683594 943.621094 665.210938 954.988281 669.390625 945.730469 C 673.570312 936.476562 672.824219 950.777344 683.425781 949.300781 C 694.023438 947.824219 697.21875 937.964844 693.28125 929.328125 C 689.34375 920.707031 718.417969 926.867188 725.320312 922.917969 C 732.222656 918.976562 744.046875 917.980469 739.617188 912.3125 C 735.175781 906.644531 724.828125 908.613281 721.128906 898.753906 C 717.414062 888.886719 628.710938 859.65625 628.710938 859.65625 Z M 628.710938 859.65625 " fill-opacity="1" fill-rule="nonzero"/><g clip-path="url(#b92a2f7e86)"><path fill="#000000" d="M 720.675781 528.296875 C 716.765625 561.335938 713.59375 564.503906 680.558594 568.414062 C 680.625 568.421875 680.695312 568.429688 680.761719 568.4375 L 680.761719 568.441406 L 680.765625 568.4375 C 713.609375 572.339844 716.773438 575.5625 720.675781 608.53125 C 724.585938 575.496094 727.753906 572.324219 760.792969 568.414062 C 727.753906 564.503906 724.585938 561.335938 720.675781 528.296875 Z M 720.675781 528.296875 " fill-opacity="1" fill-rule="nonzero"/></g><g clip-path="url(#0c84825c77)"><path fill="#000000" d="M 357.097656 894.226562 C 353.003906 928.804688 349.6875 932.125 315.105469 936.214844 C 315.179688 936.226562 315.25 936.234375 315.320312 936.242188 L 315.324219 936.242188 C 349.699219 940.324219 353.015625 943.699219 357.097656 978.207031 C 361.191406 943.625 364.507812 940.308594 399.089844 936.214844 C 364.507812 932.125 361.191406 928.804688 357.097656 894.226562 Z M 357.097656 894.226562 " fill-opacity="1" fill-rule="nonzero"/></g><g clip-path="url(#173bc57b80)"><path fill="#000000" d="M 833.050781 827.296875 C 828.664062 864.347656 825.109375 867.902344 788.058594 872.289062 C 788.136719 872.296875 788.210938 872.308594 788.289062 872.316406 L 788.292969 872.316406 C 825.125 876.6875 828.675781 880.304688 833.050781 917.28125 C 837.433594 880.230469 840.988281 876.675781 878.039062 872.289062 C 840.988281 867.902344 837.433594 864.347656 833.050781 827.296875 Z M 833.050781 827.296875 " fill-opacity="1" fill-rule="nonzero"/></g></svg>